<svg width="20" height="20" viewBox="0 0 20 20" fill="none" xmlns="http://www.w3.org/2000/svg">
    <path d="M9.99991 4.45999V7.91999" stroke="white" stroke-width="1.5" stroke-linecap="round" stroke-linejoin="round" />
    <path d="M12.08 10H15.54" stroke="white" stroke-width="1.5" stroke-linecap="round" stroke-linejoin="round" />
    <path d="M9.99991 12.08V15.54" stroke="white" stroke-width="1.5" stroke-linecap="round" stroke-linejoin="round" />
    <path d="M4.45987 10H7.91987" stroke="white" stroke-width="1.5" stroke-linecap="round" stroke-linejoin="round" />
    <path d="M12.9999 7L13.9999 6" stroke="white" stroke-width="1.5" stroke-linecap="round" stroke-linejoin="round" />
    <path d="M5.99991 14L6.99991 13" stroke="white" stroke-width="1.5" stroke-linecap="round" stroke-linejoin="round" />
    <path d="M12.9999 13L13.9999 14" stroke="white" stroke-width="1.5" stroke-linecap="round" stroke-linejoin="round" />
    <path d="M5.99991 6L6.99991 7" stroke="white" stroke-width="1.5" stroke-linecap="round" stroke-linejoin="round" />
    <path d="M9.99991 1C7.86317 1 5.79614 1.76022 4.16858 3.14466C2.54102 4.52911 1.45912 6.44745 1.11642 8.55652C0.773717 10.6656 1.19257 12.8278 2.29805 14.6563C3.40354 16.4849 5.12352 17.8604 7.15033 18.537C9.17713 19.2135 11.3785 19.1469 13.3607 18.349C15.3429 17.5511 16.9765 16.074 17.9693 14.1819C18.9622 12.2898 19.2495 10.1063 18.7798 8.02178C18.3102 5.93731 17.1142 4.08792 15.4059 2.80447" stroke="#B9BACA" stroke-width="1.5" stroke-linecap="round" />
</svg>
