<svg width="16" height="16" viewBox="0 0 16 16" fill="none" xmlns="http://www.w3.org/2000/svg">
    <path fill-rule="evenodd" clip-rule="evenodd" d="M8.00007 1.33337C7.66535 1.33337 7.39401 1.60472 7.39401 1.93943V7.39399H1.93943C1.60472 7.39399 1.33337 7.66533 1.33337 8.00005C1.33337 8.33477 1.60472 8.60611 1.93943 8.60611H7.39401V14.0606C7.39401 14.3954 7.66535 14.6667 8.00007 14.6667C8.33479 14.6667 8.60613 14.3954 8.60613 14.0606V8.60611H14.0606C14.3954 8.60611 14.6667 8.33477 14.6667 8.00005C14.6667 7.66533 14.3954 7.39399 14.0606 7.39399H8.60613V1.93943C8.60613 1.60472 8.33479 1.33337 8.00007 1.33337Z" fill="white" />
</svg>
    