<svg width="32" height="32" viewBox="0 0 32 32" fill="none" xmlns="http://www.w3.org/2000/svg">
    <path d="M26.6067 5.39337C27.9996 6.78626 29.1045 8.43986 29.8583 10.2598C30.6121 12.0796 31.0001 14.0302 31.0001 16C31.0001 17.9699 30.6121 19.9204 29.8583 21.7403C29.1045 23.5602 27.9996 25.2138 26.6067 26.6067C25.2138 27.9996 23.5602 29.1045 21.7403 29.8583C19.9204 30.6121 17.9699 31.0001 16 31.0001C14.0302 31.0001 12.0796 30.6121 10.2597 29.8583C8.43985 29.1045 6.78625 27.9996 5.39336 26.6067C2.5803 23.7936 0.999939 19.9783 0.999939 16C0.999939 12.0218 2.5803 8.20644 5.39336 5.39337C8.20643 2.58031 12.0218 0.999947 16 0.999947C19.9783 0.999947 23.7936 2.58031 26.6067 5.39337" stroke="white" stroke-width="1.5" stroke-linecap="round" stroke-linejoin="round" />
    <path d="M24.8452 28.095C24.2052 25.0283 20.5085 22.6667 16.0002 22.6667C11.4919 22.6667 7.79521 25.0283 7.15521 28.095" stroke="white" stroke-width="1.5" stroke-linecap="round" stroke-linejoin="round" />
    <path d="M19.5352 9.13158C20.0207 9.59083 20.4093 10.1427 20.6779 10.7547C20.9464 11.3667 21.0896 12.0263 21.0989 12.6945C21.1082 13.3628 20.9834 14.0261 20.732 14.6453C20.4805 15.2645 20.1075 15.827 19.6349 16.2996C19.1623 16.7722 18.5998 17.1452 17.9806 17.3967C17.3614 17.6481 16.6981 17.7729 16.0298 17.7636C15.3616 17.7543 14.702 17.6111 14.09 17.3426C13.478 17.074 12.9261 16.6854 12.4669 16.1999C11.5837 15.2521 11.1029 13.9984 11.1257 12.7031C11.1486 11.4078 11.6733 10.1719 12.5894 9.25577C13.5055 8.33969 14.7414 7.81494 16.0367 7.79208C17.3321 7.76923 18.5857 8.25005 19.5336 9.13325" stroke="white" stroke-width="1.5" stroke-linecap="round" stroke-linejoin="round" />
</svg>