<svg width="24" height="24" viewBox="0 0 24 24" fill="none" xmlns="http://www.w3.org/2000/svg">
    <path d="M14.9219 6.16924C13.7712 6.29974 12.7087 6.84911 11.9369 7.71264C11.1652 8.57618 10.7381 9.6935 10.7372 10.8516V11.1498C11.2489 10.5333 11.8877 10.0347 12.61 9.68821C13.3323 9.34167 14.1209 9.15537 14.9219 9.14206V10.7152C14.922 10.8271 14.9535 10.9367 15.0129 11.0316C15.0723 11.1264 15.1572 11.2026 15.2579 11.2514C15.3586 11.3003 15.471 11.3198 15.5822 11.3078C15.6935 11.2958 15.7991 11.2527 15.887 11.1834L19.782 8.10704C19.8503 8.0533 19.9056 7.98474 19.9435 7.90655C19.9815 7.82836 20.0012 7.74257 20.0012 7.65565C20.0012 7.56872 19.9815 7.48293 19.9435 7.40474C19.9056 7.32655 19.8503 7.258 19.782 7.20425L15.887 4.12869C15.7993 4.05916 15.6937 4.0158 15.5824 4.00356C15.4711 3.99133 15.3586 4.01073 15.2578 4.05953C15.157 4.10834 15.0721 4.18457 15.0127 4.27948C14.9532 4.37438 14.9218 4.48412 14.9219 4.59609V6.16924Z" stroke="white" stroke-width="1.5" stroke-linecap="round" stroke-linejoin="round" />
    <path d="M19.1588 12.4206V15.7892C19.1588 16.906 18.7152 17.977 17.9255 18.7667C17.1359 19.5563 16.0648 20 14.9481 20H8.21079C7.09402 20 6.02299 19.5563 5.23331 18.7667C4.44364 17.977 4 16.906 4 15.7892V9.05193C4 7.93516 4.44364 6.86413 5.23331 6.07445C6.02299 5.28478 7.09402 4.84114 8.21079 4.84114H10.7373" stroke="white" stroke-width="1.5" stroke-linecap="round" stroke-linejoin="round" />
</svg>
