<svg width="24" height="24" viewBox="0 0 24 24" fill="none" xmlns="http://www.w3.org/2000/svg">
    <mask id="path-1-inside-1" fill="white">
        <path fill-rule="evenodd" clip-rule="evenodd" d="M12.0229 0.0200283C10.9218 0.15806 10.0392 0.804802 9.51106 1.86056C9.37748 2.12756 9.24592 2.47992 9.21415 2.65575C9.20319 2.71645 9.07442 7.97599 9.07689 8.26302C9.07733 8.31513 9.0733 8.32027 8.97143 8.39756C8.49822 8.75664 8.00797 9.22174 7.64292 9.65793C6.46907 11.0605 6.09421 12.6967 6.54784 14.4378C6.77485 15.3092 7.21962 16.1992 7.82193 16.9873L7.95728 17.1644L7.53104 17.5816L7.1048 17.9989L6.95604 17.8154C5.20406 15.654 4.67447 13.4102 5.39567 11.2041C5.78407 10.0159 6.56249 8.81308 7.54409 7.88415L7.7641 7.67595V6.95835C7.7641 6.56367 7.75883 6.24074 7.7524 6.24074C7.74239 6.24074 3.01266 8.68775 3.0011 8.69891C2.99365 8.7061 3.0257 9.39455 3.04644 9.67331C3.24967 12.4035 3.93542 15.041 4.97635 17.0962C5.47733 18.0853 6.02992 18.9089 6.6872 19.6463C6.86533 19.8462 7.20897 20.1963 7.22695 20.1963C7.23566 20.1963 7.69171 19.7569 8.24037 19.2199L9.23794 18.2434L9.28965 18.2644C9.31809 18.276 9.43856 18.3249 9.55737 18.3733C10.5341 18.7705 11.4581 19.0269 12.1622 19.0958C12.4773 19.1267 12.8733 19.1076 13.254 19.0431C13.8855 18.9361 14.7537 18.6689 15.5503 18.3363C15.6665 18.2878 15.767 18.2481 15.7737 18.2481C15.7804 18.2481 16.2336 18.6865 16.7808 19.2222C17.3281 19.758 17.7826 20.1963 17.7909 20.1963C17.8061 20.1963 18.111 19.8858 18.2984 19.6795C20.1146 17.6794 21.3604 14.5918 21.8438 10.8926C21.9359 10.1878 21.9949 9.46337 21.998 8.99928L22 8.68973L19.6375 7.46525C18.3381 6.79178 17.2704 6.24077 17.2649 6.24075C17.2593 6.24074 17.2549 6.56727 17.2551 6.96635L17.2554 7.69196L17.358 7.77811C17.584 7.96777 17.9948 8.4084 18.2796 8.76672C19.4499 10.2387 20.0327 11.9212 19.921 13.5057C19.8177 14.9729 19.2106 16.3845 18.0768 17.7942C17.9873 17.9054 17.9105 17.9963 17.9059 17.9963C17.9013 17.9963 17.7076 17.8099 17.4753 17.5821L17.0531 17.168L17.1622 17.0288C17.4536 16.6572 17.7245 16.2277 17.9523 15.7764C18.3041 15.0794 18.5111 14.4332 18.6102 13.7224C18.6508 13.4312 18.6606 12.8207 18.6295 12.5227C18.525 11.5219 18.1392 10.6156 17.4505 9.75283C17.1062 9.32149 16.5481 8.7823 16.062 8.41129L15.9456 8.32248L15.9371 8.05362C15.9324 7.90572 15.904 6.67544 15.8741 5.31964C15.8443 3.96384 15.8143 2.7973 15.8076 2.72732C15.7859 2.50056 15.6084 2.03431 15.4114 1.68642C14.8638 0.719319 14.023 0.14657 12.9633 0.0188488C12.7506 -0.00679612 12.2316 -0.00614676 12.0229 0.0200283ZM12.8553 1.72956C13.4551 1.83041 13.9093 2.2285 14.1728 2.88428L14.222 3.00679V5.21781V7.42883L13.994 7.39222C13.7011 7.34521 13.2759 7.29287 12.9833 7.26782C12.4575 7.2228 11.9027 7.25714 11.0494 7.38751C10.9315 7.40554 10.8264 7.42027 10.8159 7.42027C10.7995 7.42027 10.7968 7.10404 10.7968 5.21V2.99973L10.8374 2.89635C11.0954 2.24061 11.5647 1.82624 12.1605 1.72819C12.3153 1.7027 12.7002 1.70347 12.8553 1.72956ZM13.0306 8.95606C14.3056 9.14217 15.3792 9.80991 16.0805 10.8528C16.2247 11.0673 16.4445 11.4969 16.5302 11.7319C16.6451 12.0467 16.7323 12.4259 16.7671 12.7613C16.7886 12.9693 16.7852 13.4189 16.7604 13.6316C16.6497 14.5804 16.2398 15.4323 15.5652 16.1157C15.2036 16.4819 14.828 16.7533 14.3777 16.9737C13.1521 17.5734 11.7313 17.5734 10.5057 16.9737C10.0525 16.7519 9.67758 16.4806 9.31299 16.1106C8.64123 15.4288 8.23451 14.5811 8.12261 13.6294C8.09707 13.4121 8.09341 12.9813 8.11532 12.7679C8.251 11.446 8.99694 10.2682 10.144 9.5649C10.7377 9.20089 11.3969 8.98812 12.1235 8.92597C12.2907 8.91167 12.8546 8.93038 13.0306 8.95606ZM12.1506 10.2684V10.6514L12.0795 10.6676C11.7023 10.7536 11.3727 10.9242 11.1549 11.1464C11.0226 11.2814 10.9761 11.3462 10.8979 11.5052C10.7965 11.7115 10.7781 11.8002 10.7773 12.0854C10.7767 12.3017 10.7802 12.3428 10.8071 12.4338C10.8728 12.6562 10.9685 12.813 11.1408 12.9804C11.3818 13.2148 11.702 13.3823 12.3063 13.5902C12.5292 13.6668 12.8142 13.8031 12.902 13.8751C13.1482 14.0769 13.1818 14.362 12.9822 14.5547C12.8564 14.6761 12.6703 14.7356 12.3855 14.7457C11.9814 14.7601 11.5466 14.6665 11.1378 14.4771C11.0468 14.435 10.9691 14.4038 10.9651 14.4078C10.9558 14.4169 10.7125 15.3473 10.7181 15.3522C10.7392 15.3705 10.9506 15.4642 11.0522 15.5002C11.2993 15.5877 11.6744 15.6663 11.9272 15.6835C11.9943 15.6881 12.0628 15.6946 12.0795 15.6979L12.11 15.704V16.0815V16.4589H12.5229H12.9359V16.0503V15.6418L13.0475 15.6183C13.2888 15.5675 13.5363 15.467 13.7388 15.3374C13.8779 15.2484 14.105 15.0187 14.1867 14.8844C14.3281 14.652 14.3876 14.4312 14.3875 14.1396C14.3872 13.7214 14.2635 13.4191 13.9881 13.164C13.7626 12.955 13.4954 12.8108 12.9968 12.6287C12.44 12.4254 12.1515 12.2581 12.0686 12.0905C12.0436 12.0399 12.0399 12.0142 12.0451 11.9272C12.0548 11.7632 12.1233 11.6711 12.2941 11.5926C12.4373 11.5268 12.5448 11.5121 12.8276 11.5198C13.1824 11.5294 13.4455 11.5878 13.7926 11.734C13.8581 11.7616 13.9151 11.7806 13.9195 11.7763C13.9275 11.7685 14.1499 10.9359 14.1572 10.8863C14.1642 10.8394 13.8597 10.7273 13.5604 10.6665C13.4106 10.6361 13.1327 10.601 13.0412 10.601H12.9765V10.2432V9.88536H12.5636H12.1506V10.2684ZM8.88104 20.4492C8.51617 20.7562 8.19972 21.0212 8.17782 21.0382L8.13799 21.0691L8.20942 21.1319C8.44672 21.3408 9.02222 21.7939 9.46837 22.1232C10.3809 22.7968 11.3104 23.3994 12.1871 23.8858C12.3435 23.9726 12.4049 24 12.4432 24C12.5006 24 12.6075 23.9441 13.1119 23.6505C14.199 23.0178 15.4543 22.1427 16.4424 21.3287C16.7571 21.0695 16.7502 21.0761 16.7267 21.0541C16.7042 21.033 15.3925 19.9349 15.3568 19.9074C15.3379 19.8928 15.2901 19.9016 15.0524 19.9634C14.114 20.2075 13.2406 20.3479 12.5839 20.3601C11.8544 20.3738 11.047 20.2628 10.0251 20.0084C9.7905 19.9501 9.5864 19.8998 9.57151 19.8967C9.55136 19.8925 9.37472 20.0339 8.88104 20.4492Z" />
    </mask>
    <path fill-rule="evenodd" clip-rule="evenodd" d="M12.0229 0.0200283C10.9218 0.15806 10.0392 0.804802 9.51106 1.86056C9.37748 2.12756 9.24592 2.47992 9.21415 2.65575C9.20319 2.71645 9.07442 7.97599 9.07689 8.26302C9.07733 8.31513 9.0733 8.32027 8.97143 8.39756C8.49822 8.75664 8.00797 9.22174 7.64292 9.65793C6.46907 11.0605 6.09421 12.6967 6.54784 14.4378C6.77485 15.3092 7.21962 16.1992 7.82193 16.9873L7.95728 17.1644L7.53104 17.5816L7.1048 17.9989L6.95604 17.8154C5.20406 15.654 4.67447 13.4102 5.39567 11.2041C5.78407 10.0159 6.56249 8.81308 7.54409 7.88415L7.7641 7.67595V6.95835C7.7641 6.56367 7.75883 6.24074 7.7524 6.24074C7.74239 6.24074 3.01266 8.68775 3.0011 8.69891C2.99365 8.7061 3.0257 9.39455 3.04644 9.67331C3.24967 12.4035 3.93542 15.041 4.97635 17.0962C5.47733 18.0853 6.02992 18.9089 6.6872 19.6463C6.86533 19.8462 7.20897 20.1963 7.22695 20.1963C7.23566 20.1963 7.69171 19.7569 8.24037 19.2199L9.23794 18.2434L9.28965 18.2644C9.31809 18.276 9.43856 18.3249 9.55737 18.3733C10.5341 18.7705 11.4581 19.0269 12.1622 19.0958C12.4773 19.1267 12.8733 19.1076 13.254 19.0431C13.8855 18.9361 14.7537 18.6689 15.5503 18.3363C15.6665 18.2878 15.767 18.2481 15.7737 18.2481C15.7804 18.2481 16.2336 18.6865 16.7808 19.2222C17.3281 19.758 17.7826 20.1963 17.7909 20.1963C17.8061 20.1963 18.111 19.8858 18.2984 19.6795C20.1146 17.6794 21.3604 14.5918 21.8438 10.8926C21.9359 10.1878 21.9949 9.46337 21.998 8.99928L22 8.68973L19.6375 7.46525C18.3381 6.79178 17.2704 6.24077 17.2649 6.24075C17.2593 6.24074 17.2549 6.56727 17.2551 6.96635L17.2554 7.69196L17.358 7.77811C17.584 7.96777 17.9948 8.4084 18.2796 8.76672C19.4499 10.2387 20.0327 11.9212 19.921 13.5057C19.8177 14.9729 19.2106 16.3845 18.0768 17.7942C17.9873 17.9054 17.9105 17.9963 17.9059 17.9963C17.9013 17.9963 17.7076 17.8099 17.4753 17.5821L17.0531 17.168L17.1622 17.0288C17.4536 16.6572 17.7245 16.2277 17.9523 15.7764C18.3041 15.0794 18.5111 14.4332 18.6102 13.7224C18.6508 13.4312 18.6606 12.8207 18.6295 12.5227C18.525 11.5219 18.1392 10.6156 17.4505 9.75283C17.1062 9.32149 16.5481 8.7823 16.062 8.41129L15.9456 8.32248L15.9371 8.05362C15.9324 7.90572 15.904 6.67544 15.8741 5.31964C15.8443 3.96384 15.8143 2.7973 15.8076 2.72732C15.7859 2.50056 15.6084 2.03431 15.4114 1.68642C14.8638 0.719319 14.023 0.14657 12.9633 0.0188488C12.7506 -0.00679612 12.2316 -0.00614676 12.0229 0.0200283ZM12.8553 1.72956C13.4551 1.83041 13.9093 2.2285 14.1728 2.88428L14.222 3.00679V5.21781V7.42883L13.994 7.39222C13.7011 7.34521 13.2759 7.29287 12.9833 7.26782C12.4575 7.2228 11.9027 7.25714 11.0494 7.38751C10.9315 7.40554 10.8264 7.42027 10.8159 7.42027C10.7995 7.42027 10.7968 7.10404 10.7968 5.21V2.99973L10.8374 2.89635C11.0954 2.24061 11.5647 1.82624 12.1605 1.72819C12.3153 1.7027 12.7002 1.70347 12.8553 1.72956ZM13.0306 8.95606C14.3056 9.14217 15.3792 9.80991 16.0805 10.8528C16.2247 11.0673 16.4445 11.4969 16.5302 11.7319C16.6451 12.0467 16.7323 12.4259 16.7671 12.7613C16.7886 12.9693 16.7852 13.4189 16.7604 13.6316C16.6497 14.5804 16.2398 15.4323 15.5652 16.1157C15.2036 16.4819 14.828 16.7533 14.3777 16.9737C13.1521 17.5734 11.7313 17.5734 10.5057 16.9737C10.0525 16.7519 9.67758 16.4806 9.31299 16.1106C8.64123 15.4288 8.23451 14.5811 8.12261 13.6294C8.09707 13.4121 8.09341 12.9813 8.11532 12.7679C8.251 11.446 8.99694 10.2682 10.144 9.5649C10.7377 9.20089 11.3969 8.98812 12.1235 8.92597C12.2907 8.91167 12.8546 8.93038 13.0306 8.95606ZM12.1506 10.2684V10.6514L12.0795 10.6676C11.7023 10.7536 11.3727 10.9242 11.1549 11.1464C11.0226 11.2814 10.9761 11.3462 10.8979 11.5052C10.7965 11.7115 10.7781 11.8002 10.7773 12.0854C10.7767 12.3017 10.7802 12.3428 10.8071 12.4338C10.8728 12.6562 10.9685 12.813 11.1408 12.9804C11.3818 13.2148 11.702 13.3823 12.3063 13.5902C12.5292 13.6668 12.8142 13.8031 12.902 13.8751C13.1482 14.0769 13.1818 14.362 12.9822 14.5547C12.8564 14.6761 12.6703 14.7356 12.3855 14.7457C11.9814 14.7601 11.5466 14.6665 11.1378 14.4771C11.0468 14.435 10.9691 14.4038 10.9651 14.4078C10.9558 14.4169 10.7125 15.3473 10.7181 15.3522C10.7392 15.3705 10.9506 15.4642 11.0522 15.5002C11.2993 15.5877 11.6744 15.6663 11.9272 15.6835C11.9943 15.6881 12.0628 15.6946 12.0795 15.6979L12.11 15.704V16.0815V16.4589H12.5229H12.9359V16.0503V15.6418L13.0475 15.6183C13.2888 15.5675 13.5363 15.467 13.7388 15.3374C13.8779 15.2484 14.105 15.0187 14.1867 14.8844C14.3281 14.652 14.3876 14.4312 14.3875 14.1396C14.3872 13.7214 14.2635 13.4191 13.9881 13.164C13.7626 12.955 13.4954 12.8108 12.9968 12.6287C12.44 12.4254 12.1515 12.2581 12.0686 12.0905C12.0436 12.0399 12.0399 12.0142 12.0451 11.9272C12.0548 11.7632 12.1233 11.6711 12.2941 11.5926C12.4373 11.5268 12.5448 11.5121 12.8276 11.5198C13.1824 11.5294 13.4455 11.5878 13.7926 11.734C13.8581 11.7616 13.9151 11.7806 13.9195 11.7763C13.9275 11.7685 14.1499 10.9359 14.1572 10.8863C14.1642 10.8394 13.8597 10.7273 13.5604 10.6665C13.4106 10.6361 13.1327 10.601 13.0412 10.601H12.9765V10.2432V9.88536H12.5636H12.1506V10.2684ZM8.88104 20.4492C8.51617 20.7562 8.19972 21.0212 8.17782 21.0382L8.13799 21.0691L8.20942 21.1319C8.44672 21.3408 9.02222 21.7939 9.46837 22.1232C10.3809 22.7968 11.3104 23.3994 12.1871 23.8858C12.3435 23.9726 12.4049 24 12.4432 24C12.5006 24 12.6075 23.9441 13.1119 23.6505C14.199 23.0178 15.4543 22.1427 16.4424 21.3287C16.7571 21.0695 16.7502 21.0761 16.7267 21.0541C16.7042 21.033 15.3925 19.9349 15.3568 19.9074C15.3379 19.8928 15.2901 19.9016 15.0524 19.9634C14.114 20.2075 13.2406 20.3479 12.5839 20.3601C11.8544 20.3738 11.047 20.2628 10.0251 20.0084C9.7905 19.9501 9.5864 19.8998 9.57151 19.8967C9.55136 19.8925 9.37472 20.0339 8.88104 20.4492Z" fill="black" stroke="url(#paint0_linear)" stroke-width="8" mask="url(#path-1-inside-1)" />
    <defs>
        <linearGradient id="paint0_linear" x1="12.5" y1="0" x2="12.5" y2="24" gradientUnits="userSpaceOnUse">
            <stop stop-color="#9737FF" />
            <stop offset="1" stop-color="#127FFF" />
        </linearGradient>
    </defs>
</svg>
