<svg width="24" height="24" viewBox="0 0 24 24" fill="none" xmlns="http://www.w3.org/2000/svg">
    <path fill-rule="evenodd" clip-rule="evenodd" d="M0 11.9306L2.71523 14.6461L5.43074 11.9306L2.71523 9.21533L0 11.9306Z" fill="#FFCC33" />
    <path fill-rule="evenodd" clip-rule="evenodd" d="M11.9305 0.00012207L4.61475 7.31605L7.33011 10.0314L11.9307 5.43086L16.5314 10.0314L19.2466 7.31605L11.9308 0.00012207H11.9305Z" fill="#FFCC33" />
    <path fill-rule="evenodd" clip-rule="evenodd" d="M11.94 18.4401L7.33925 13.8394L4.62402 16.5547L11.94 23.8708L19.2559 16.5547L16.5407 13.8394L11.94 18.4401Z" fill="#FFCC33" />
    <path fill-rule="evenodd" clip-rule="evenodd" d="M18.4587 11.9589L21.174 14.6741L23.8895 11.9589L21.174 9.24353L18.4587 11.9589Z" fill="#FFCC33" />
    <path fill-rule="evenodd" clip-rule="evenodd" d="M11.9612 14.6482L14.6766 11.9329L11.9612 9.21765L9.24585 11.9329L11.9612 14.6482Z" fill="#FFCC33" />
</svg>
    