<svg width="24" height="24" viewBox="0 0 24 24" fill="none" xmlns="http://www.w3.org/2000/svg">
    <path fill-rule="evenodd" clip-rule="evenodd" d="M24.0001 12C24.0001 18.6273 18.6274 24 12.0001 24C5.37258 24 6.10352e-05 18.6273 6.10352e-05 12C6.10352e-05 5.37252 5.37258 0 12.0001 0C18.6274 0 24.0001 5.37252 24.0001 12Z" fill="#F6931A" />
    <path fill-rule="evenodd" clip-rule="evenodd" d="M11.4025 10.747C11.7614 10.8294 12.0999 10.9126 12.4409 10.9844C12.8925 11.0796 13.3489 11.1328 13.81 11.066C14.1755 11.0131 14.5073 10.8842 14.7152 10.5639C14.9892 10.1418 15.0713 9.49203 14.4968 9.00616C14.2689 8.81356 14.0103 8.67456 13.7344 8.56271C13.2023 8.34706 12.6411 8.23564 12.0731 8.10851C11.8501 8.98622 11.6291 9.85544 11.4025 10.747ZM10.3303 14.9632C10.3539 14.9726 10.3716 14.9821 10.3907 14.9871C11.0947 15.1689 11.799 15.3512 12.5289 15.3997C12.9202 15.4257 13.308 15.4049 13.6851 15.2758C14.3958 15.0323 14.7264 14.2042 14.3606 13.558C14.1653 13.2128 13.8489 12.9961 13.5046 12.8146C12.9733 12.5347 12.3967 12.3814 11.816 12.2408C11.5692 12.1811 11.321 12.1267 11.0669 12.0684C10.8194 13.0415 10.5753 14.0002 10.3303 14.9632ZM13.5111 6.79754C13.6905 6.09291 13.8677 5.39762 14.0482 4.68875C14.4963 4.79806 14.9366 4.90524 15.3917 5.01611C15.2084 5.73812 15.0272 6.45279 14.8425 7.18075C14.9469 7.22077 15.0468 7.26092 15.1482 7.29769C15.6814 7.49099 16.1902 7.72926 16.6393 8.07698C17.1379 8.46302 17.4827 8.94266 17.5479 9.57885C17.6238 10.3184 17.3818 11.4214 16.4751 11.9026C16.277 12.0076 16.0598 12.0778 15.8636 12.1588C16.0516 12.2851 16.2615 12.4084 16.4514 12.5567C17.1194 13.0789 17.3716 13.7657 17.244 14.5872C17.1374 15.2743 16.8953 15.9076 16.424 16.4403C16.0133 16.9045 15.4803 17.1494 14.8733 17.2529C14.0447 17.3944 13.2263 17.287 12.4096 17.1477C12.382 17.1429 12.354 17.1397 12.3138 17.134C12.129 17.8592 11.9449 18.5817 11.7575 19.317C11.311 19.2082 10.8712 19.101 10.4144 18.9897C10.5975 18.2682 10.7787 17.5544 10.9621 16.832C10.6036 16.7405 10.2542 16.6513 9.89279 16.5591C9.70825 17.2821 9.52501 18.0003 9.33975 18.7267C8.88711 18.6155 8.44658 18.5072 7.99914 18.3973C8.18497 17.6632 8.36807 16.94 8.55448 16.2036C7.64936 15.9796 6.75605 15.7586 5.85367 15.5354C5.86563 15.5025 5.8734 15.4766 5.88421 15.452C6.07998 15.0088 6.27735 14.5664 6.47082 14.1224C6.50193 14.0507 6.53377 14.0287 6.61646 14.0507C6.8991 14.1256 7.18333 14.195 7.46886 14.2581C7.82439 14.3366 8.04322 14.2004 8.13124 13.855C8.61715 11.9457 9.10306 10.0364 9.58854 8.12704C9.68448 7.75005 9.50383 7.41364 9.12164 7.29741C8.79189 7.19729 8.45422 7.12235 8.12015 7.03595C8.0896 7.02803 8.05935 7.01855 8.01513 7.00583C8.1334 6.54018 8.24994 6.08103 8.37095 5.60435C9.2729 5.82509 10.1665 6.04384 11.079 6.26712C11.2634 5.54412 11.4455 4.83016 11.6323 4.09753C12.0802 4.20698 12.5227 4.3153 12.9741 4.4256C12.7937 5.13743 12.6165 5.83725 12.4363 6.54838C12.799 6.63238 13.1494 6.71368 13.5111 6.79754Z" fill="#FEFEFD" />
</svg>
