<svg width="8" height="11" viewBox="0 0 8 11" fill="none" xmlns="http://www.w3.org/2000/svg">
    <path fill-rule="evenodd" clip-rule="evenodd" d="M3.33372 10.8C3.25372 10.8 3.18572 10.774 3.12972 10.722C3.07372 10.67 3.04572 10.6 3.04572 10.512V9.672C2.46972 9.616 1.97572 9.476 1.56372 9.252C1.15172 9.028 0.839722 8.754 0.627721 8.43C0.41572 8.106 0.301721 7.76 0.285721 7.392C0.285721 7.328 0.311721 7.27 0.363721 7.218C0.415721 7.166 0.47772 7.14 0.549721 7.14H1.62972C1.72572 7.14 1.79972 7.158 1.85172 7.194C1.90372 7.23 1.95372 7.288 2.00172 7.368C2.08972 7.64 2.27572 7.868 2.55972 8.052C2.84372 8.236 3.23372 8.328 3.72972 8.328C4.28172 8.328 4.69972 8.234 4.98372 8.046C5.26772 7.858 5.40972 7.6 5.40972 7.272C5.40972 7.056 5.33772 6.876 5.19372 6.732C5.04972 6.588 4.83172 6.462 4.53972 6.354C4.24772 6.246 3.81772 6.116 3.24972 5.964C2.30572 5.74 1.61372 5.444 1.17372 5.076C0.733719 4.708 0.513721 4.18 0.513721 3.492C0.513721 2.868 0.739719 2.34 1.19172 1.908C1.64372 1.476 2.26172 1.212 3.04572 1.116V0.288C3.04572 0.2 3.07372 0.13 3.12972 0.078C3.18572 0.0259997 3.25372 0 3.33372 0H4.07772C4.16572 0 4.23572 0.0259997 4.28772 0.078C4.33972 0.13 4.36572 0.2 4.36572 0.288V1.14C4.88572 1.212 5.33172 1.366 5.70372 1.602C6.07572 1.838 6.35972 2.112 6.55572 2.424C6.75172 2.736 6.85772 3.04 6.87372 3.336C6.87372 3.408 6.84972 3.468 6.80172 3.516C6.75372 3.564 6.69372 3.588 6.62172 3.588H5.48172C5.31372 3.588 5.19772 3.516 5.13372 3.372C5.08572 3.116 4.92772 2.902 4.65972 2.73C4.39172 2.558 4.05772 2.472 3.65772 2.472C3.21772 2.472 2.87172 2.556 2.61972 2.724C2.36772 2.892 2.24172 3.136 2.24172 3.456C2.24172 3.672 2.30372 3.852 2.42772 3.996C2.55172 4.14 2.75172 4.268 3.02772 4.38C3.30372 4.492 3.69772 4.612 4.20972 4.74C4.92172 4.9 5.48772 5.08 5.90772 5.28C6.32772 5.48 6.63772 5.732 6.83772 6.036C7.03772 6.34 7.13772 6.728 7.13772 7.2C7.13772 7.896 6.88772 8.46 6.38772 8.892C5.88772 9.324 5.21373 9.584 4.36572 9.672V10.512C4.36572 10.6 4.33972 10.67 4.28772 10.722C4.23572 10.774 4.16572 10.8 4.07772 10.8H3.33372Z" fill="white" />
</svg>
