<svg width="24" height="24" viewBox="0 0 24 24" fill="none" xmlns="http://www.w3.org/2000/svg">
    <mask id="mask0" mask-type="alpha" maskUnits="userSpaceOnUse" x="0" y="0" width="24" height="24">
        <path fill-rule="evenodd" clip-rule="evenodd" d="M0 0.139526H23.7282V23.8677H0V0.139526Z" fill="white" />
    </mask>
    <g mask="url(#mask0)">
        <path fill-rule="evenodd" clip-rule="evenodd" d="M23.7282 12.0036C23.7282 18.5559 18.4165 23.8677 11.8642 23.8677C5.31181 23.8677 0 18.5559 0 12.0036C0 5.4512 5.31181 0.139526 11.8642 0.139526C18.4165 0.139526 23.7282 5.4512 23.7282 12.0036Z" fill="#223A75" />
    </g>
    <path fill-rule="evenodd" clip-rule="evenodd" d="M7.92262 13.6574C7.38611 13.8522 6.89676 14.0298 6.35522 14.2265C6.50369 13.6718 6.63709 13.1507 6.78876 12.6349C6.80829 12.5689 6.91588 12.5133 6.99429 12.4828C7.36741 12.3368 7.74095 12.1893 8.12229 12.0668C8.31332 12.0054 8.3976 11.8974 8.44685 11.7098C9.00429 9.58199 9.57569 7.45785 10.1232 5.32757C10.1976 5.0386 10.3133 4.9652 10.599 4.9698C11.7102 4.98794 12.8216 4.9772 13.9329 4.9772H14.265C13.7941 6.75613 13.3325 8.50018 12.8542 10.3066C13.4654 10.0822 14.0365 9.87236 14.6592 9.64381C14.5137 10.2005 14.3834 10.7242 14.2336 11.2423C14.2148 11.3078 14.1001 11.3597 14.0195 11.3905C13.5491 11.5705 13.0734 11.7368 12.6051 11.9219C12.5136 11.958 12.3996 12.0435 12.3759 12.1284C12.0889 13.1565 11.8169 14.1886 11.5423 15.2199C11.5348 15.2485 11.5415 15.2809 11.5415 15.34H18.1755C18.0069 15.9788 17.849 16.5809 17.6892 17.1826C17.5148 17.8404 17.5142 17.8402 16.846 17.8402H7.2142H6.81764C7.19048 16.429 7.55104 15.0643 7.92262 13.6574Z" fill="#FDFEFE" />
</svg>
    