<svg width="24" height="24" viewBox="0 0 24 24" fill="none" xmlns="http://www.w3.org/2000/svg">
    <mask id="mask0" mask-type="alpha" maskUnits="userSpaceOnUse" x="0" y="11" width="3" height="3">
        <path fill-rule="evenodd" clip-rule="evenodd" d="M0 11.0138H2.74804V13.7619H0V11.0138Z" fill="white" />
    </mask>
    <g mask="url(#mask0)">
        <path fill-rule="evenodd" clip-rule="evenodd" d="M1.37404 11.0138C0.615298 11.0138 0 11.629 0 12.3878C0 13.1467 0.615298 13.7619 1.37404 13.7619C2.13291 13.7619 2.74807 13.1467 2.74807 12.3878C2.74807 11.629 2.13291 11.0138 1.37404 11.0138Z" fill="white" />
    </g>
    <path fill-rule="evenodd" clip-rule="evenodd" d="M4.33212 9.08313C3.6837 9.08313 3.15808 9.60874 3.15808 10.2572C3.15808 10.9056 3.6837 11.4313 4.33212 11.4313C4.98054 11.4313 5.50629 10.9056 5.50629 10.2572C5.50629 9.60874 4.98054 9.08313 4.33212 9.08313Z" fill="white" />
    <path fill-rule="evenodd" clip-rule="evenodd" d="M3.15804 8.58149C3.80646 8.58149 4.33208 8.05587 4.33208 7.40731C4.33208 6.75903 3.80646 6.23328 3.15804 6.23328C2.50962 6.23328 1.98401 6.75903 1.98401 7.40731C1.98401 8.05587 2.50962 8.58149 3.15804 8.58149Z" fill="white" />
    <path fill-rule="evenodd" clip-rule="evenodd" d="M5.03735 6.16779C5.03735 6.72134 5.48606 7.17004 6.0396 7.17004C6.59314 7.17004 7.04184 6.72134 7.04184 6.16779C7.04184 5.61425 6.59314 5.16541 6.0396 5.16541C5.48606 5.16541 5.03735 5.61425 5.03735 6.16779Z" fill="white" />
    <path fill-rule="evenodd" clip-rule="evenodd" d="M5.60053 4.57568C6.15407 4.57568 6.60292 4.12697 6.60292 3.57343C6.60292 3.01989 6.15407 2.57104 5.60053 2.57104C5.04699 2.57104 4.59814 3.01989 4.59814 3.57343C4.59814 4.12697 5.04699 4.57568 5.60053 4.57568Z" fill="white" />
    <path fill-rule="evenodd" clip-rule="evenodd" d="M6.16296 9.04155C6.16296 9.5951 6.61167 10.0438 7.16521 10.0438C7.71875 10.0438 8.16746 9.5951 8.16746 9.04155C8.16746 8.48801 7.71875 8.03931 7.16521 8.03931C6.61167 8.03931 6.16296 8.48801 6.16296 9.04155Z" fill="white" />
    <path fill-rule="evenodd" clip-rule="evenodd" d="M9.78649 7.7179C9.31561 7.7179 8.93372 8.09965 8.93372 8.57053C8.93372 9.04154 9.31561 9.4233 9.78649 9.4233C10.2572 9.4233 10.6391 9.04154 10.6391 8.57053C10.6391 8.09965 10.2572 7.7179 9.78649 7.7179Z" fill="white" />
    <path fill-rule="evenodd" clip-rule="evenodd" d="M12.729 8.68707C12.729 8.28047 12.3993 7.95093 11.9929 7.95093C11.5863 7.95093 11.2567 8.28047 11.2567 8.68707C11.2567 9.09366 11.5863 9.42335 11.9929 9.42335C12.3993 9.42335 12.729 9.09366 12.729 8.68707Z" fill="white" />
    <path fill-rule="evenodd" clip-rule="evenodd" d="M12.037 6.34844C12.037 6.69637 12.3192 6.97861 12.6672 6.97861C13.0152 6.97861 13.2972 6.69637 13.2972 6.34844C13.2972 6.00051 13.0152 5.71826 12.6672 5.71826C12.3192 5.71826 12.037 6.00051 12.037 6.34844Z" fill="white" />
    <path fill-rule="evenodd" clip-rule="evenodd" d="M12.256 4.38802C12.6039 4.38802 12.8862 4.10591 12.8862 3.75784C12.8862 3.40991 12.6039 3.12781 12.256 3.12781C11.9081 3.12781 11.626 3.40991 11.626 3.75784C11.626 4.10591 11.9081 4.38802 12.256 4.38802Z" fill="white" />
    <path fill-rule="evenodd" clip-rule="evenodd" d="M13.6726 5.08332C13.9719 5.08332 14.2145 4.84065 14.2145 4.54142C14.2145 4.24206 13.9719 3.99939 13.6726 3.99939C13.3733 3.99939 13.1307 4.24206 13.1307 4.54142C13.1307 4.84065 13.3733 5.08332 13.6726 5.08332Z" fill="white" />
    <path fill-rule="evenodd" clip-rule="evenodd" d="M14.0857 6.59583C13.7863 6.59583 13.5438 6.83849 13.5438 7.13772C13.5438 7.43709 13.7863 7.67975 14.0857 7.67975C14.3849 7.67975 14.6276 7.43709 14.6276 7.13772C14.6276 6.83849 14.3849 6.59583 14.0857 6.59583Z" fill="white" />
    <path fill-rule="evenodd" clip-rule="evenodd" d="M14.6966 5.92074C14.9549 5.92074 15.1641 5.71147 15.1641 5.45323C15.1641 5.19512 14.9549 4.98572 14.6966 4.98572C14.4385 4.98572 14.2291 5.19512 14.2291 5.45323C14.2291 5.71147 14.4385 5.92074 14.6966 5.92074Z" fill="white" />
    <path fill-rule="evenodd" clip-rule="evenodd" d="M13.8207 9.85079C14.1687 9.85079 14.4508 9.56868 14.4508 9.22061C14.4508 8.87268 14.1687 8.59058 13.8207 8.59058C13.4728 8.59058 13.1906 8.87268 13.1906 9.22061C13.1906 9.56868 13.4728 9.85079 13.8207 9.85079Z" fill="white" />
    <path fill-rule="evenodd" clip-rule="evenodd" d="M10.1072 5.83479C10.1072 6.24139 10.4369 6.57093 10.8433 6.57093C11.2501 6.57093 11.5795 6.24139 11.5795 5.83479C11.5795 5.42819 11.2501 5.09851 10.8433 5.09851C10.4369 5.09851 10.1072 5.42819 10.1072 5.83479Z" fill="white" />
    <path fill-rule="evenodd" clip-rule="evenodd" d="M10.4283 3.98451C10.8348 3.98451 11.1644 3.65496 11.1644 3.24837C11.1644 2.84177 10.8348 2.51208 10.4283 2.51208C10.0217 2.51208 9.69202 2.84177 9.69202 3.24837C9.69202 3.65496 10.0217 3.98451 10.4283 3.98451Z" fill="white" />
    <path fill-rule="evenodd" clip-rule="evenodd" d="M7.74817 5.71823C7.74817 6.18911 8.13006 6.57086 8.60094 6.57086C9.07182 6.57086 9.45357 6.18911 9.45357 5.71823C9.45357 5.24735 9.07182 4.8656 8.60094 4.8656C8.13006 4.8656 7.74817 5.24735 7.74817 5.71823Z" fill="white" />
    <path fill-rule="evenodd" clip-rule="evenodd" d="M8.19382 3.98444C8.6647 3.98444 9.04645 3.60268 9.04645 3.13181C9.04645 2.66079 8.6647 2.27917 8.19382 2.27917C7.72294 2.27917 7.34119 2.66079 7.34119 3.13181C7.34119 3.60268 7.72294 3.98444 8.19382 3.98444Z" fill="white" />
    <path fill-rule="evenodd" clip-rule="evenodd" d="M18.1772 19.5115C17.5208 19.8923 17.2975 20.7333 17.6784 21.3896C18.0592 22.046 18.9 22.2693 19.5564 21.8884C20.2129 21.5075 20.4362 20.6666 20.0553 20.0103C19.6743 19.3539 18.8336 19.1306 18.1772 19.5115Z" fill="white" />
    <path fill-rule="evenodd" clip-rule="evenodd" d="M14.9501 18.1953C14.3892 18.5208 14.1985 19.2392 14.5238 19.8001C14.8493 20.3609 15.5678 20.5518 16.1286 20.2263C16.6895 19.9008 16.8803 19.1824 16.5549 18.6215C16.2294 18.0607 15.5109 17.8698 14.9501 18.1953Z" fill="white" />
    <mask id="mask1" mask-type="alpha" maskUnits="userSpaceOnUse" x="12" y="20" width="3" height="3">
        <path fill-rule="evenodd" clip-rule="evenodd" d="M12.4894 20.4823H14.838V22.8309H12.4894V20.4823Z" fill="white" />
    </mask>
    <g mask="url(#mask1)">
        <path fill-rule="evenodd" clip-rule="evenodd" d="M13.0744 20.6411C12.5135 20.9666 12.3228 21.685 12.6481 22.2459C12.9736 22.8067 13.692 22.9976 14.2529 22.6721C14.8139 22.3466 15.0046 21.6282 14.6793 21.0673C14.3536 20.5065 13.6352 20.3156 13.0744 20.6411Z" fill="white" />
    </g>
    <path fill-rule="evenodd" clip-rule="evenodd" d="M10.6423 18.9195C10.1635 19.1972 10.0007 19.8107 10.2785 20.2894C10.5564 20.7682 11.1697 20.9311 11.6484 20.6532C12.1272 20.3755 12.29 19.7621 12.0122 19.2832C11.7343 18.8045 11.121 18.6417 10.6423 18.9195Z" fill="white" />
    <path fill-rule="evenodd" clip-rule="evenodd" d="M8.61868 20.6013C8.13994 20.8791 7.977 21.4926 8.25475 21.9713C8.53265 22.45 9.14598 22.613 9.62472 22.3352C10.1036 22.0573 10.2664 21.444 9.98865 20.9651C9.71075 20.4864 9.09742 20.3236 8.61868 20.6013Z" fill="white" />
    <path fill-rule="evenodd" clip-rule="evenodd" d="M13.5691 18.2374C14.0478 17.9597 14.2108 17.3462 13.933 16.8675C13.6551 16.3887 13.0418 16.2258 12.563 16.5035C12.0842 16.7814 11.9214 17.3948 12.1991 17.8736C12.477 18.3524 13.0903 18.5152 13.5691 18.2374Z" fill="white" />
    <path fill-rule="evenodd" clip-rule="evenodd" d="M11.7711 16.0772C12.1782 15.8409 12.3169 15.3192 12.0806 14.9117C11.8442 14.5044 11.3224 14.3659 10.9151 14.6023C10.5078 14.8386 10.3693 15.3604 10.6055 15.7677C10.842 16.175 11.3638 16.3136 11.7711 16.0772Z" fill="white" />
    <path fill-rule="evenodd" clip-rule="evenodd" d="M10.9731 13.0034C10.769 12.6518 10.3185 12.5321 9.96691 12.7361C9.61519 12.9402 9.49561 13.3907 9.69968 13.7423C9.90375 14.094 10.3541 14.2138 10.7059 14.0096C11.0576 13.8055 11.1772 13.355 10.9731 13.0034Z" fill="white" />
    <path fill-rule="evenodd" clip-rule="evenodd" d="M7.43004 14.2797C7.60478 14.5808 7.99032 14.6832 8.29137 14.5085C8.59229 14.3337 8.69474 13.9482 8.52015 13.6471C8.34541 13.3462 7.95973 13.2438 7.65881 13.4185C7.35776 13.5931 7.25545 13.9787 7.43004 14.2797Z" fill="white" />
    <path fill-rule="evenodd" clip-rule="evenodd" d="M6.25729 16.1641C6.55834 15.9895 6.66066 15.6038 6.48606 15.3029C6.31132 15.0019 5.92578 14.8994 5.62473 15.0741C5.32381 15.2489 5.22136 15.6344 5.39595 15.9353C5.57055 16.2364 5.95623 16.3388 6.25729 16.1641Z" fill="white" />
    <path fill-rule="evenodd" clip-rule="evenodd" d="M5.63558 13.532C5.37677 13.6821 5.28863 14.0138 5.43895 14.2727C5.58912 14.5315 5.92077 14.6197 6.17958 14.4694C6.43852 14.3192 6.52667 13.9875 6.37635 13.7286C6.22617 13.4698 5.89453 13.3816 5.63558 13.532Z" fill="white" />
    <path fill-rule="evenodd" clip-rule="evenodd" d="M8.21794 12.809C8.47689 12.6588 8.56503 12.3272 8.41471 12.0682C8.26454 11.8094 7.93289 11.7213 7.67394 11.8715C7.41499 12.0218 7.32699 12.3534 7.47731 12.6122C7.62748 12.8712 7.95899 12.9592 8.21794 12.809Z" fill="white" />
    <path fill-rule="evenodd" clip-rule="evenodd" d="M6.58663 12.4226C6.45709 12.1993 6.17105 12.1234 5.94761 12.2529C5.72432 12.3824 5.64839 12.6685 5.77793 12.8919C5.90761 13.1152 6.19365 13.1913 6.41695 13.0616C6.64039 12.9321 6.71632 12.6459 6.58663 12.4226Z" fill="white" />
    <path fill-rule="evenodd" clip-rule="evenodd" d="M9.56421 10.9791C9.26316 11.1538 9.16084 11.5393 9.33544 11.8404C9.51003 12.1413 9.89572 12.2438 10.1968 12.0692C10.4977 11.8944 10.6001 11.5087 10.4255 11.2078C10.2508 10.9068 9.86526 10.8043 9.56421 10.9791Z" fill="white" />
    <path fill-rule="evenodd" clip-rule="evenodd" d="M8.81577 16.4354C9.16749 16.2313 9.28706 15.7808 9.08299 15.4292C8.87892 15.0775 8.4284 14.9579 8.07668 15.1619C7.7251 15.3659 7.60552 15.8165 7.80945 16.1682C8.01352 16.5199 8.46405 16.6395 8.81577 16.4354Z" fill="white" />
    <path fill-rule="evenodd" clip-rule="evenodd" d="M7.05426 17.0864C6.85019 16.7348 6.39966 16.6151 6.04808 16.8192C5.69637 17.0232 5.57679 17.4738 5.78086 17.8253C5.98493 18.1771 6.43545 18.2968 6.78703 18.0926C7.13875 17.8886 7.25833 17.4381 7.05426 17.0864Z" fill="white" />
    <path fill-rule="evenodd" clip-rule="evenodd" d="M9.89897 18.5341C10.3061 18.2978 10.4449 17.7759 10.2084 17.3686C9.97209 16.9614 9.45041 16.8228 9.04297 17.0592C8.63567 17.2955 8.49714 17.8174 8.73349 18.2245C8.96984 18.6318 9.49167 18.7705 9.89897 18.5341Z" fill="white" />
    <path fill-rule="evenodd" clip-rule="evenodd" d="M8.17569 19.0189C7.93934 18.6116 7.41766 18.4729 7.01022 18.7093C6.60306 18.9458 6.4644 19.4675 6.70075 19.8748C6.9371 20.2821 7.45892 20.4207 7.86622 20.1844C8.27352 19.948 8.41219 19.4262 8.17569 19.0189Z" fill="white" />
    <path fill-rule="evenodd" clip-rule="evenodd" d="M16.6717 2.56322C17.3283 2.94357 18.169 2.71985 18.5495 2.06315C18.9298 1.40659 18.706 0.565886 18.0493 0.185536C17.3929 -0.194956 16.552 0.0289041 16.1717 0.685465C15.7913 1.34203 16.015 2.18287 16.6717 2.56322Z" fill="white" />
    <path fill-rule="evenodd" clip-rule="evenodd" d="M18.3096 3.98605C17.7486 3.661 17.0303 3.85215 16.7051 4.41328C16.3801 4.9744 16.5714 5.69272 17.1324 6.01777C17.6935 6.34282 18.4119 6.15166 18.737 5.59054C19.062 5.02956 18.8707 4.3111 18.3096 3.98605Z" fill="white" />
    <path fill-rule="evenodd" clip-rule="evenodd" d="M20.1868 6.43065C20.7479 6.7557 21.4662 6.56441 21.7914 6.00342C22.1165 5.4423 21.9252 4.72399 21.3642 4.39879C20.8031 4.07388 20.0846 4.26504 19.7596 4.82616C19.4345 5.38714 19.6258 6.1056 20.1868 6.43065Z" fill="white" />
    <path fill-rule="evenodd" clip-rule="evenodd" d="M19.9009 9.39677C20.3797 9.67424 20.9931 9.51087 21.2705 9.03199C21.548 8.55312 21.3848 7.93978 20.9058 7.66231C20.4269 7.38484 19.8136 7.54806 19.5361 8.02708C19.2586 8.50596 19.4218 9.11915 19.9009 9.39677Z" fill="white" />
    <path fill-rule="evenodd" clip-rule="evenodd" d="M23.3707 8.58315C22.8919 8.30554 22.2787 8.4689 22.0011 8.94792C21.7236 9.4268 21.8868 10.04 22.3658 10.3176C22.8447 10.5951 23.458 10.4319 23.7355 9.95283C24.013 9.47396 23.8498 8.86062 23.3707 8.58315Z" fill="white" />
    <path fill-rule="evenodd" clip-rule="evenodd" d="M18.2197 8.5652C18.4973 8.08618 18.334 7.47299 17.855 7.19551C17.3761 6.91804 16.7629 7.08127 16.4854 7.56029C16.2078 8.03916 16.371 8.6525 16.85 8.92997C17.3289 9.20744 17.9422 9.04422 18.2197 8.5652Z" fill="white" />
    <path fill-rule="evenodd" clip-rule="evenodd" d="M16.0184 11.3045C16.4259 11.5406 16.9475 11.4017 17.1837 10.9942C17.4197 10.5868 17.2807 10.0651 16.8734 9.82904C16.4659 9.59297 15.9443 9.73178 15.7081 10.1394C15.4719 10.5468 15.611 11.0685 16.0184 11.3045Z" fill="white" />
    <path fill-rule="evenodd" clip-rule="evenodd" d="M14.602 12.0485C14.3982 12.4003 14.5181 12.8507 14.8699 13.0545C15.2216 13.2584 15.6722 13.1384 15.876 12.7866C16.0797 12.4349 15.9599 11.9845 15.608 11.7806C15.2563 11.5768 14.8058 11.6968 14.602 12.0485Z" fill="white" />
    <path fill-rule="evenodd" clip-rule="evenodd" d="M17.2404 13.6282C16.9392 13.4538 16.5536 13.5564 16.3792 13.8576C16.2047 14.1586 16.3075 14.5442 16.6085 14.7188C16.9097 14.8931 17.2952 14.7905 17.4697 14.4893C17.6442 14.1882 17.5416 13.8027 17.2404 13.6282Z" fill="white" />
    <path fill-rule="evenodd" clip-rule="evenodd" d="M19.0561 15.6616C19.3572 15.8361 19.7428 15.7335 19.9172 15.4323C20.0916 15.1312 19.9888 14.7457 19.6879 14.5712C19.3867 14.3968 19.0012 14.4994 18.8267 14.8006C18.6523 15.1016 18.7549 15.4872 19.0561 15.6616Z" fill="white" />
    <path fill-rule="evenodd" clip-rule="evenodd" d="M17.7121 16.4183C17.9712 16.5683 18.3027 16.48 18.4528 16.2211C18.6029 15.9621 18.5145 15.6305 18.2556 15.4805C17.9965 15.3304 17.665 15.4187 17.5149 15.6776C17.3648 15.9366 17.4532 16.2682 17.7121 16.4183Z" fill="white" />
    <path fill-rule="evenodd" clip-rule="evenodd" d="M15.8019 14.5362C15.5429 14.3862 15.2113 14.4745 15.0614 14.7334C14.9112 14.9924 14.9995 15.324 15.2584 15.4741C15.5175 15.6241 15.849 15.5358 15.999 15.2769C16.1492 15.0179 16.0609 14.6863 15.8019 14.5362Z" fill="white" />
    <path fill-rule="evenodd" clip-rule="evenodd" d="M16.9159 15.9738C16.6924 15.8444 16.4064 15.9205 16.277 16.1439C16.1475 16.3674 16.2237 16.6534 16.4471 16.7828C16.6705 16.9124 16.9566 16.8362 17.086 16.6127C17.2155 16.3893 17.1393 16.1032 16.9159 15.9738Z" fill="white" />
    <path fill-rule="evenodd" clip-rule="evenodd" d="M13.5449 14.2768C13.8461 14.4513 14.2316 14.3486 14.4061 14.0475C14.5806 13.7464 14.4778 13.3609 14.1768 13.1863C13.8756 13.0118 13.49 13.1146 13.3156 13.4156C13.1411 13.7168 13.2439 14.1024 13.5449 14.2768Z" fill="white" />
    <path fill-rule="evenodd" clip-rule="evenodd" d="M17.9141 13.4899C18.266 13.6936 18.7164 13.5738 18.9201 13.2219C19.1239 12.8701 19.0041 12.4197 18.6522 12.2159C18.3005 12.0121 17.8501 12.132 17.6462 12.4838C17.4424 12.8355 17.5623 13.2859 17.9141 13.4899Z" fill="white" />
    <path fill-rule="evenodd" clip-rule="evenodd" d="M21.0984 13.1534C20.7465 12.9496 20.2962 13.0695 20.0922 13.4213C19.8884 13.7732 20.0083 14.2236 20.3602 14.4274C20.712 14.6311 21.1624 14.5113 21.3662 14.1594C21.57 13.8077 21.4501 13.3573 21.0984 13.1534Z" fill="white" />
    <path fill-rule="evenodd" clip-rule="evenodd" d="M20.2461 11.3986C20.4823 10.9912 20.3432 10.4695 19.9357 10.2334C19.5283 9.99719 19.0066 10.1361 18.7705 10.5436C18.5345 10.9512 18.6734 11.4728 19.0807 11.7089C19.4883 11.945 20.01 11.806 20.2461 11.3986Z" fill="white" />
    <path fill-rule="evenodd" clip-rule="evenodd" d="M22.3777 11.1776C21.9703 10.9416 21.4486 11.0805 21.2124 11.488C20.9764 11.8954 21.1152 12.4172 21.5227 12.6533C21.9303 12.8894 22.4518 12.7504 22.688 12.343C22.9241 11.9354 22.7851 11.4139 22.3777 11.1776Z" fill="white" />
</svg>
    