<svg width="24" height="24" viewBox="0 0 24 24" fill="none" xmlns="http://www.w3.org/2000/svg">
    <mask id="mask0" mask-type="alpha" maskUnits="userSpaceOnUse" x="0" y="0" width="24" height="16">
        <path fill-rule="evenodd" clip-rule="evenodd" d="M0 0.151001H23.8226V15.8351H0V0.151001Z" fill="white" />
    </mask>
    <g mask="url(#mask0)">
        <path fill-rule="evenodd" clip-rule="evenodd" d="M23.8226 12.0645C23.8226 12.665 23.7857 13.0236 23.7814 13.0702C23.7013 13.9462 23.5331 14.8041 23.2758 15.6455C23.234 15.7824 23.1752 15.8357 23.0226 15.8346C21.9772 15.8266 20.9316 15.8253 19.8862 15.8351C19.6946 15.8367 19.64 15.7949 19.6403 15.5942C19.6475 12.4191 19.6457 9.24383 19.6442 6.06843C19.6442 5.99764 19.6679 5.91945 19.6027 5.82994C19.5378 5.90406 19.4859 5.97062 19.4267 6.02994C16.9721 8.48564 14.5158 10.9397 12.0645 13.3985C11.942 13.5214 11.8818 13.5276 11.7556 13.4008C9.29585 10.9321 6.83049 8.46874 4.36755 6.00308C4.31517 5.95055 4.27683 5.88383 4.23185 5.8236C4.21192 5.83613 4.192 5.84851 4.17208 5.86104V6.08443C4.17208 9.25968 4.17057 12.4349 4.176 15.6102C4.1763 15.7866 4.13192 15.8361 3.95275 15.8348C2.90098 15.8259 1.84891 15.8286 0.796981 15.8327C0.665509 15.8333 0.589887 15.8103 0.547472 15.6651C0.357585 15.0145 0.202264 14.3579 0.107925 13.6861C0.0744151 13.4482 0 12.757 0 12.0161C0 11.7409 0.0353208 11.1128 0.0387925 11.0712C0.0778868 10.5949 0.144604 10.1223 0.240755 9.65455C1.25615 4.71432 5.29102 0.950095 10.3048 0.257416C10.5497 0.223605 11.3226 0.151001 11.9112 0.151001C12.2814 0.151001 12.8599 0.186171 12.901 0.189642C13.5641 0.246397 14.2189 0.35251 14.8632 0.519756C19.594 1.74693 23.0338 5.62572 23.7174 10.4961C23.7517 10.7406 23.8226 11.322 23.8226 12.0645Z" fill="#FE6601" />
    </g>
    <mask id="mask1" mask-type="alpha" maskUnits="userSpaceOnUse" x="1" y="11" width="22" height="13">
        <path fill-rule="evenodd" clip-rule="evenodd" d="M1.74658 11.9338H22.0528V23.9735H1.74658V11.9338Z" fill="white" />
    </mask>
    <g mask="url(#mask1)">
        <path fill-rule="evenodd" clip-rule="evenodd" d="M10.3054 23.8667C6.67836 23.3196 3.86749 21.503 1.8527 18.4442C1.81768 18.391 1.78643 18.3352 1.74658 18.2695C1.82024 18.2309 1.89103 18.248 1.95685 18.2478C3.48032 18.2466 5.00379 18.2442 6.52726 18.2507C6.69843 18.2514 6.75156 18.215 6.75096 18.033C6.74356 16.0899 6.74628 14.147 6.74628 12.2039V11.9541C6.82311 12.0244 6.87398 12.0679 6.92122 12.115C8.53285 13.726 10.1452 15.3361 11.7528 16.9512C11.8714 17.0704 11.933 17.088 12.0628 16.9572C13.6593 15.3494 15.2633 13.7489 16.8633 12.1446C16.917 12.0907 16.9499 12.016 17.0036 11.9338C17.0927 12.0638 17.0698 12.1426 17.0698 12.2155C17.0713 14.1391 17.071 16.0629 17.071 17.9865C17.071 18.2469 17.0711 18.2469 17.3221 18.2469H21.8343H22.0441C22.0726 18.3144 22.0245 18.3509 21.9985 18.3909C20.1046 21.3127 17.4557 23.1198 14.0328 23.7826C13.6399 23.8587 13.243 23.9079 12.8438 23.9367C12.808 23.9393 12.5428 23.9735 11.9113 23.9735C11.2645 23.9735 10.5501 23.9036 10.3054 23.8667Z" fill="#4C4C4C" />
    </g>
</svg>
    