<svg width="24" height="24" viewBox="0 0 24 24" fill="none" xmlns="http://www.w3.org/2000/svg">
    <mask id="mask0" mask-type="alpha" maskUnits="userSpaceOnUse" x="0" y="1" width="24" height="22">
        <path fill-rule="evenodd" clip-rule="evenodd" d="M3.05176e-05 1H23.9653V22.3145H3.05176e-05V1Z" fill="white" />
    </mask>
    <g mask="url(#mask0)">
        <path fill-rule="evenodd" clip-rule="evenodd" d="M1.68878 11.8142H2.40706C2.46726 12.1083 2.67928 12.3463 2.95733 12.4451L2.66005 16.6129L1.29722 12.3694C1.49532 12.248 1.64065 12.0491 1.68878 11.8142ZM2.66005 6.70166L2.95521 10.8396C2.69771 10.932 2.49789 11.1439 2.4227 11.4091H1.67314C1.61493 11.2038 1.48206 11.0305 1.30544 10.9197L2.66005 6.70166ZM20.6656 11.4091H19.9465C19.8629 11.1141 19.6247 10.8846 19.3247 10.8131L19.618 6.70166L20.9835 10.9535C20.8318 11.0644 20.7183 11.2237 20.6656 11.4091ZM19.618 16.6129L19.3225 12.4716C19.6441 12.3958 19.8956 12.139 19.9622 11.8142H20.6501C20.694 12.0289 20.819 12.2134 20.9913 12.3364L19.618 16.6129ZM14.8039 20.8005L16.3764 17.2747C16.4306 17.2854 16.4867 17.2912 16.5441 17.2912C16.8254 17.2912 17.0741 17.1545 17.2295 16.9445L19.0731 17.7507L14.8255 20.8196C14.8184 20.8133 14.8113 20.8066 14.8039 20.8005ZM8.66456 20.9111L10.8201 17.89C10.9235 17.9346 11.0374 17.9595 11.1572 17.9595C11.2662 17.9595 11.3701 17.9383 11.4658 17.901L13.6135 20.9111C13.5356 21.0033 13.4774 21.112 13.444 21.2313H8.83402C8.80061 21.112 8.7424 21.0033 8.66456 20.9111ZM3.63928 17.5657L5.04945 16.9457C5.20485 17.1551 5.4532 17.2912 5.73404 17.2912C5.79132 17.2912 5.84741 17.2854 5.90164 17.2747L7.47411 20.8005C7.46668 20.8066 7.45965 20.8133 7.45249 20.8196L3.58903 18.0282C3.62933 17.9291 3.65201 17.8208 3.65201 17.7072C3.65201 17.6589 3.64697 17.6118 3.63928 17.5657ZM3.36056 12.4859C3.38164 12.483 3.40273 12.48 3.42341 12.4754L5.18045 15.7897C4.99733 15.9463 4.88091 16.1785 4.88091 16.4382C4.88091 16.4838 4.88556 16.5285 4.89245 16.5723L3.47897 17.1938C3.37143 17.0516 3.22107 16.9438 3.04644 16.8909L3.36056 12.4859ZM3.47897 6.12075L4.89245 6.74223C4.88556 6.78599 4.88091 6.83067 4.88091 6.87629C4.88091 7.13604 4.99733 7.36822 5.18045 7.52468L3.4376 10.8122C3.41161 10.8061 3.38509 10.8013 3.35831 10.7976L3.04644 6.4236C3.22107 6.3707 3.37143 6.2629 3.47897 6.12075ZM7.47411 2.51399L5.90164 6.04C5.84741 6.02913 5.79132 6.02329 5.73404 6.02329C5.4532 6.02329 5.20485 6.15947 5.04945 6.36884L3.63928 5.74882C3.64697 5.70267 3.65201 5.6556 3.65201 5.6072C3.65201 5.4937 3.62933 5.38537 3.58903 5.28632L7.45249 2.49489C7.45965 2.50126 7.46668 2.50789 7.47411 2.51399ZM13.6135 2.4034L11.4996 5.36628C11.3947 5.32013 11.2791 5.29428 11.1572 5.29428C11.0246 5.29428 10.8996 5.3253 10.7878 5.37927L8.66456 2.4034C8.7424 2.31138 8.80061 2.20252 8.83402 2.08318H13.444C13.4774 2.20252 13.5356 2.31138 13.6135 2.4034ZM18.6688 5.73569L17.2286 6.36884C17.0732 6.15947 16.8248 6.02329 16.5441 6.02329C16.4867 6.02329 16.4306 6.02913 16.3764 6.04L14.8039 2.51399C14.8113 2.50789 14.8184 2.50126 14.8255 2.49489L18.7054 5.29799C18.6732 5.38789 18.6548 5.48442 18.6548 5.58533C18.6548 5.63677 18.6601 5.68676 18.6688 5.73569ZM18.9184 10.8155C18.8961 10.8212 18.874 10.8274 18.8524 10.8347L17.0976 7.52468C17.2807 7.36822 17.3971 7.13604 17.3971 6.87629C17.3971 6.83067 17.3925 6.78599 17.3856 6.74223L18.833 6.10577C18.9346 6.2373 19.0733 6.33808 19.2338 6.39257L18.9184 10.8155ZM17.0976 15.7897L18.8659 12.4542C18.8823 12.4595 18.8993 12.4636 18.9163 12.4679L19.2675 17.3937L17.3858 16.5707C17.3926 16.5273 17.3971 16.4833 17.3971 16.4382C17.3971 16.1785 17.2807 15.9463 17.0976 15.7897ZM4.07844 11.8142H7.18624C7.22615 12.0086 7.33223 12.179 7.47981 12.3006L5.89409 15.6006C5.84224 15.5907 5.7888 15.5851 5.73404 15.5851C5.66801 15.5851 5.60396 15.5933 5.54231 15.6075L3.78779 12.298C3.93391 12.1766 4.03879 12.0074 4.07844 11.8142ZM5.73404 7.72941C5.7888 7.72941 5.84224 7.72371 5.89409 7.7139L7.4696 10.9926C7.34297 11.1004 7.24856 11.2447 7.20202 11.4091H4.06279C4.01665 11.2463 3.92357 11.1033 3.79866 10.9958L5.54231 7.70701C5.60396 7.72119 5.66801 7.72941 5.73404 7.72941ZM18.3063 11.4091H15.1369C15.085 11.2261 14.9736 11.0686 14.825 10.958L16.3839 7.7139C16.4358 7.72371 16.4892 7.72941 16.5441 7.72941C16.61 7.72941 16.6741 7.72119 16.7357 7.70701L18.5099 11.0535C18.4155 11.1524 18.3448 11.2739 18.3063 11.4091ZM16.5441 15.5851C16.4892 15.5851 16.4358 15.5907 16.3839 15.6006L14.8143 12.3341C14.9848 12.2112 15.1088 12.0275 15.1525 11.8142H18.2908C18.3245 11.9791 18.4062 12.1265 18.5202 12.2418L16.7357 15.6075C16.6741 15.5933 16.61 15.5851 16.5441 15.5851ZM11.1572 7.0004C11.2128 7.0004 11.2669 6.9947 11.3195 6.98449L13.7012 11.0523C13.6062 11.1515 13.5352 11.2733 13.4966 11.4091H8.84211C8.79862 11.2556 8.71309 11.1199 8.59879 11.0148L10.9627 6.97719C11.0253 6.99191 11.0902 7.0004 11.1572 7.0004ZM11.1572 16.2534C11.079 16.2534 11.0037 16.2648 10.9318 16.2844L8.58712 12.2799C8.72251 12.1599 8.81996 11.9981 8.85775 11.8142H13.4811C13.5151 11.9799 13.5972 12.1282 13.7121 12.2437L11.351 16.2763C11.2886 16.2617 11.2239 16.2534 11.1572 16.2534ZM15.7011 7.00053C15.7332 7.22064 15.8489 7.41344 16.0156 7.54524L14.4513 10.8005C14.4075 10.7936 14.3628 10.7889 14.3168 10.7889C14.2209 10.7889 14.1291 10.8054 14.0431 10.8346L11.6888 6.81383C11.7993 6.72566 11.8875 6.61123 11.9431 6.47943L15.7011 7.00053ZM6.57696 7.00053L10.3695 6.47465C10.4209 6.5985 10.501 6.70709 10.6011 6.79328L8.2441 10.8192C8.17316 10.8001 8.0989 10.7889 8.022 10.7889C7.95649 10.7889 7.89298 10.797 7.83172 10.811L6.26244 7.54524C6.42911 7.41344 6.54487 7.22064 6.57696 7.00053ZM6.57696 16.314C6.54487 16.0937 6.42911 15.9011 6.26244 15.7693L7.84472 12.4764C7.902 12.4884 7.96127 12.4951 8.022 12.4951C8.09333 12.4951 8.16228 12.4854 8.22845 12.4688L10.5779 16.4816C10.474 16.5779 10.394 16.6994 10.3483 16.837L6.57696 16.314ZM11.9644 16.8322C11.9149 16.6863 11.8271 16.5582 11.7128 16.46L14.0578 12.4548C14.1395 12.4808 14.2265 12.4951 14.3168 12.4951C14.3579 12.4951 14.3982 12.4911 14.4377 12.4855L16.0156 15.7693C15.8489 15.9011 15.7332 16.0937 15.7011 16.314L11.9644 16.8322ZM13.9407 2.64208C14.0407 2.68318 14.1501 2.70612 14.2648 2.70612C14.3242 2.70612 14.3821 2.70002 14.4382 2.68849L16.0096 6.21198C15.8863 6.31129 15.7918 6.44429 15.7387 6.59691L12.0069 6.07938C11.9929 5.90329 11.926 5.74232 11.8214 5.61251L13.9407 2.64208ZM8.01325 2.70612C8.12807 2.70612 8.23733 2.68318 8.33731 2.64208L10.4744 5.63744C10.3817 5.76141 10.3216 5.91098 10.3078 6.07421L6.5393 6.59691C6.48626 6.44429 6.39172 6.31129 6.26841 6.21198L7.83994 2.68849C7.8959 2.70002 7.95384 2.70612 8.01325 2.70612ZM8.33731 20.6724C8.23733 20.6313 8.12807 20.6084 8.01325 20.6084C7.95384 20.6084 7.8959 20.6145 7.83994 20.6262L6.26841 17.1025C6.39172 17.0032 6.48626 16.8702 6.5393 16.7176L10.3159 17.2414C10.3401 17.3933 10.4034 17.532 10.4966 17.6459L8.33731 20.6724ZM14.2648 20.6084C14.1501 20.6084 14.0407 20.6313 13.9407 20.6724L11.7977 17.6687C11.9026 17.5493 11.9743 17.4006 11.9994 17.2362L15.7387 16.7176C15.7918 16.8702 15.8863 17.0032 16.0096 17.1025L14.4382 20.6262C14.3821 20.6145 14.3242 20.6084 14.2648 20.6084ZM22.7274 19.2343C22.4333 19.2343 22.1634 19.3373 21.951 19.5088L19.7136 17.6393L21.3685 12.4861C21.407 12.4914 21.4458 12.4951 21.4857 12.4951C21.9568 12.4951 22.3387 12.1131 22.3387 11.6419C22.3387 11.1708 21.9568 10.7889 21.4857 10.7889C21.4426 10.7889 21.4006 10.7932 21.3592 10.7993L19.9239 6.32972C20.1844 6.18387 20.3609 5.90528 20.3609 5.58533C20.3609 5.11421 19.9789 4.7322 19.5078 4.7322C19.2841 4.7322 19.0811 4.81905 18.929 4.96L15.0588 2.16367C15.0964 2.06727 15.1179 1.96278 15.1179 1.85299C15.1179 1.38188 14.7359 1 14.2648 1C13.8536 1 13.5104 1.29092 13.4298 1.67823H8.84821C8.76759 1.29092 8.42443 1 8.01325 1C7.54213 1 7.16012 1.38188 7.16012 1.85299C7.16012 1.96278 7.1816 2.06727 7.21926 2.16367L3.35154 4.95814C3.20264 4.83112 3.00984 4.75421 2.79888 4.75421C2.32777 4.75421 1.94575 5.13609 1.94575 5.6072C1.94575 5.9147 2.10898 6.18347 2.35296 6.33357L0.921047 10.7923C0.898638 10.7905 0.876097 10.7889 0.853025 10.7889C0.381909 10.7889 3.05176e-05 11.1708 3.05176e-05 11.6419C3.05176e-05 12.1131 0.381909 12.4951 0.853025 12.4951C0.872782 12.4951 0.892008 12.4935 0.911368 12.4922L2.35296 16.981C2.10898 17.1311 1.94575 17.3998 1.94575 17.7072C1.94575 18.1784 2.32777 18.5603 2.79888 18.5603C3.00984 18.5603 3.20264 18.4833 3.35154 18.3564L7.21926 21.1509C7.1816 21.2472 7.16012 21.3517 7.16012 21.4614C7.16012 21.9326 7.54213 22.3145 8.01325 22.3145C8.42443 22.3145 8.76746 22.0236 8.84821 21.6364H13.4298C13.5106 22.0236 13.8536 22.3145 14.2648 22.3145C14.7359 22.3145 15.1179 21.9326 15.1179 21.4614C15.1179 21.3517 15.0964 21.2472 15.0588 21.1509L19.4701 17.9636L21.6817 19.8115C21.5605 20.0028 21.4894 20.229 21.4894 20.4722C21.4894 21.156 22.0437 21.7103 22.7274 21.7103C23.411 21.7103 23.9653 21.156 23.9653 20.4722C23.9653 19.7886 23.411 19.2343 22.7274 19.2343Z" fill="#37A8DD" />
    </g>
</svg>
