<svg width="24" height="24" viewBox="0 0 24 24" fill="none" xmlns="http://www.w3.org/2000/svg">
    <path fill-rule="evenodd" clip-rule="evenodd" d="M24 12C24 18.6273 18.6273 24 12 24C5.37252 24 0 18.6273 0 12C0 5.37252 5.37252 0 12 0C18.6273 0 24 5.37252 24 12Z" fill="#27A17C" />
    <path fill-rule="evenodd" clip-rule="evenodd" d="M15.8534 13.0815C14.8259 13.3225 13.4575 13.4554 12 13.4554C10.5425 13.4554 9.17407 13.3225 8.1466 13.0815C6.98019 12.8077 6.66906 12.4927 6.66906 12.3496C6.66906 12.2066 6.98019 11.8916 8.1466 11.6178C8.88446 11.4448 9.79899 11.3277 10.7955 11.2754V13.058C11.1863 13.0785 11.5894 13.0895 12 13.0895C12.4105 13.0895 12.8136 13.0785 13.2045 13.058V11.2754C14.201 11.3277 15.1153 11.4448 15.8534 11.6178C17.0198 11.8916 17.3309 12.2066 17.3309 12.3496C17.3309 12.4927 17.0198 12.8077 15.8534 13.0815ZM18 12.5183C18 11.5792 15.45 11.1445 13.2045 11.0312V9.50409H16.5503V7H7.44973V9.50409H10.7955V11.0312C8.54999 11.1445 6 11.5792 6 12.5183C6 13.4574 8.54999 13.8921 10.7955 14.0056V19H13.2045V14.0056C15.45 13.8921 18 13.4574 18 12.5183Z" fill="white" />
</svg>