<svg width="51" height="43" viewBox="0 0 51 43" fill="none" xmlns="http://www.w3.org/2000/svg">
    <path opacity="0.1" fill-rule="evenodd" clip-rule="evenodd" d="M51.4197 6.86725V1.1062C50.7016 1.18464 50.0982 1.70369 49.9224 2.418L48.304 8.99447C48.084 9.88828 47.2824 10.5165 46.3619 10.5165H42.8718H39.5168C38.6134 10.5165 37.8222 11.1222 37.5863 11.9942L37.0883 13.8348C36.6414 15.4865 34.4614 15.8508 33.5018 14.4341L31.4433 11.3949C31.0712 10.8456 30.4509 10.5165 29.7874 10.5165H29.7443C28.9832 10.5165 28.2881 10.9485 27.9511 11.6308L25.3324 16.9323C24.9954 17.6147 24.3003 18.0466 23.5392 18.0466H22.3372C21.3749 18.0466 20.549 17.3613 20.3715 16.4154L19.3628 11.0389C18.9587 8.88538 15.8847 8.8555 15.4389 11.0007L14.8593 13.7899C14.8014 14.0682 14.6849 14.3311 14.5175 14.5608L10.5105 20.0598C10.3198 20.3215 10.1955 20.6256 10.1483 20.9459L7.72336 37.3933C7.48354 39.02 5.3043 39.3929 4.53717 37.9386C4.05782 37.0299 2.88827 36.7506 2.05001 37.3446L0.42445 38.4966C0.261681 38.612 0.119225 38.7494 -1.14441e-05 38.9033V42.4444H50.2509L51.4197 6.86725Z" fill="#0885FF"/>
    <path d="M50.5413 1V1C50.4173 1 50.3093 1.08467 50.2797 1.20511L48.3831 8.91511C48.1632 9.80902 47.3616 10.4374 46.441 10.4374H42.9444H39.5831C38.6796 10.4374 37.8883 11.0431 37.6525 11.9153L37.1517 13.7671C36.7049 15.4192 34.5244 15.7834 33.5649 14.3662L31.4999 11.3161C31.1278 10.7666 30.5074 10.4374 29.8437 10.4374H29.7981C29.0369 10.4374 28.3417 10.8694 28.0047 11.552L25.3809 16.8662C25.0439 17.5488 24.3488 17.9808 23.5876 17.9808H22.3805C21.4181 17.9808 20.5922 17.2954 20.4148 16.3495L19.4018 10.9476C18.9979 8.79389 15.9235 8.76402 15.4778 10.9095L14.8946 13.7174C14.8368 13.9957 14.7203 14.2584 14.553 14.4882L10.5397 19.9984C10.3491 20.26 10.2249 20.564 10.1777 20.8843L7.73392 37.4668C7.49873 39.0627 5.36057 39.4285 4.60821 38.0016V38.0016C4.11521 37.0666 2.88792 36.82 2.07209 37.4922L0.504612 38.7835" stroke="#2292FF" stroke-linecap="round" stroke-linejoin="round"/>
    </svg>
