<svg width="53" height="33" viewBox="0 0 53 33" fill="none" xmlns="http://www.w3.org/2000/svg">
    <path opacity="0.1" fill-rule="evenodd" clip-rule="evenodd" d="M0.637241 5.47757L0.511818 1.01062C1.22857 1.09017 1.83059 1.60877 2.00614 2.32209L3.62457 8.89856C3.84454 9.79237 4.64615 10.4206 5.56663 10.4206H9.05676H12.3288C13.2704 10.4206 14.0845 9.76376 14.2836 8.84337L14.838 6.27964C15.2304 4.46534 17.6678 4.11781 18.5516 5.75016L20.5334 9.41051C20.8703 10.0329 21.5212 10.4206 22.2289 10.4206C22.9626 10.4206 23.6327 10.837 23.9577 11.4949L26.5961 16.8364C26.9332 17.5188 27.6283 17.9507 28.3893 17.9507H30.1338C30.8281 17.9507 31.4727 17.5906 31.8368 16.9995L35.8255 10.5227C35.8997 10.4022 35.9609 10.2742 36.008 10.1408L36.7812 7.95485C37.3178 6.43765 39.3354 6.14328 40.2831 7.44392L42.3082 10.223C42.4989 10.4847 42.6232 10.7888 42.6704 11.1091L44.3377 22.4179C44.659 24.5969 47.7519 24.732 48.262 22.5893L50.1163 14.7998C50.408 13.5744 51.719 12.9567 52.8187 13.4103V32.6076H2.56413L0.637241 5.47757Z" fill="#0885FF" />
    <path d="M0.894387 1V1C1.01842 1 1.12644 1.08467 1.15607 1.20511L3.05261 8.91511C3.27249 9.80902 4.07415 10.4374 4.99471 10.4374H8.49137H11.7819C12.7181 10.4374 13.529 9.78794 13.7335 8.87436L14.3077 6.30994C14.7117 4.50543 17.1382 4.1687 18.0183 5.79499L19.9833 9.42584C20.3206 10.0491 20.9723 10.4374 21.681 10.4374V10.4374C22.4156 10.4374 23.0866 10.8544 23.4118 11.5131L26.0548 16.8662C26.3918 17.5488 27.087 17.9808 27.8481 17.9808H29.5961C30.2913 17.9808 30.9367 17.6198 31.3005 17.0273L35.2956 10.5201C35.3685 10.4014 35.4289 10.2753 35.4756 10.1439L36.2491 7.96917C36.7879 6.45425 38.8035 6.16222 39.7501 7.46192L41.7862 10.2575C41.9768 10.5191 42.101 10.8231 42.1482 11.1434L43.8206 22.4918C44.1417 24.6708 47.2346 24.8062 47.7448 22.6635L49.558 15.0498C49.8392 13.8687 51.3873 13.5805 52.0748 14.5812V14.5812" stroke="#2292FF" stroke-linecap="round" stroke-linejoin="round" />
</svg>
