<svg width="53" height="43" viewBox="0 0 53 43" fill="none" xmlns="http://www.w3.org/2000/svg">
    <path opacity="0.1" fill-rule="evenodd" clip-rule="evenodd" d="M0.508827 6.77136V1.01031C1.22689 1.08875 1.83035 1.60781 2.00614 2.32211L3.62457 8.89859C3.84454 9.7924 4.64615 10.4207 5.56663 10.4207H9.05676H12.4117C13.3151 10.4207 14.1063 11.0263 14.3423 11.8983L14.8402 13.7389C15.2871 15.3906 17.4671 15.7549 18.4267 14.3382L20.4853 11.299C20.8574 10.7497 21.4777 10.4207 22.1412 10.4207H22.1843C22.9453 10.4207 23.6404 10.8526 23.9774 11.5349L26.5961 16.8365C26.9332 17.5188 27.6283 17.9507 28.3893 17.9507H29.5913C30.5537 17.9507 31.3796 17.2654 31.557 16.3195L32.5658 10.943C32.9698 8.78949 36.0438 8.75961 36.4896 10.9049L37.0693 13.694C37.1271 13.9724 37.2436 14.2352 37.411 14.4649L41.418 19.9639C41.6087 20.2256 41.733 20.5297 41.7802 20.85L44.2052 37.2974C44.445 38.9241 46.6242 39.2971 47.3914 37.8428C47.8707 36.934 49.0403 36.6547 49.8785 37.2488L51.5041 38.4008C51.6669 38.5161 51.8093 38.6535 51.9285 38.8074V42.3485H1.67762L0.508827 6.77136Z" fill="#A763FE" />
    <path d="M1.89439 1V1C2.01842 1 2.12644 1.08467 2.15607 1.20511L4.05261 8.91511C4.27249 9.80902 5.07415 10.4374 5.99471 10.4374H9.49137H12.8526C13.7561 10.4374 14.5474 11.0431 14.7832 11.9153L15.284 13.7671C15.7308 15.4192 17.9113 15.7834 18.8708 14.3662L20.9359 11.3161C21.3079 10.7666 21.9283 10.4374 22.592 10.4374H22.6377C23.3988 10.4374 24.094 10.8694 24.431 11.552L27.0548 16.8662C27.3918 17.5488 28.087 17.9808 28.8481 17.9808H30.0552C31.0176 17.9808 31.8436 17.2954 32.0209 16.3495L33.034 10.9476C33.4379 8.79389 36.5122 8.76402 36.9579 10.9095L37.5412 13.7174C37.599 13.9957 37.7154 14.2584 37.8827 14.4882L41.8961 19.9984C42.0866 20.26 42.2108 20.564 42.258 20.8843L44.7018 37.4668C44.937 39.0627 47.0752 39.4285 47.8275 38.0016V38.0016C48.3205 37.0666 49.5478 36.82 50.3636 37.4922L51.9311 38.7835" stroke="#A763FE" stroke-linecap="round" stroke-linejoin="round" />
</svg>
