<svg xmlns="http://www.w3.org/2000/svg" width="344" height="304" viewBox="0 0 344 304" fill="none">
    
    
    
    <rect x="58" y="52" width="285" height="1" fill="#1D1D41"/>
    <path d="M3.15283 56.7788H3.79736V55.8765C5.06494 55.7744 6.11768 55.0493 6.11768 53.7603V53.7495C6.11768 52.627 5.34424 52.0576 3.96387 51.7246L3.79736 51.687V49.2217C4.52246 49.313 5.03809 49.7588 5.10791 50.4785V50.4893L6.04248 50.4839V50.4785C5.99951 49.2969 5.03809 48.4912 3.79736 48.3784V47.4707H3.15283V48.3784C1.87988 48.4966 0.972168 49.2808 0.972168 50.4302V50.4409C0.972168 51.4937 1.69189 52.0898 3.0293 52.4121L3.15283 52.4443V55.0278C2.21826 54.9258 1.80469 54.394 1.70801 53.728V53.7173L0.773438 53.7227V53.728C0.816406 54.9741 1.87451 55.7529 3.15283 55.8711V56.7788ZM1.90674 50.3765V50.3657C1.90674 49.8501 2.33643 49.3345 3.15283 49.2217V51.5312C2.229 51.3057 1.90674 50.8975 1.90674 50.3765ZM3.82959 52.6055C4.89307 52.8633 5.18311 53.2393 5.18311 53.8247V53.8354C5.18311 54.4531 4.79639 54.958 3.79736 55.0386V52.6001L3.82959 52.6055ZM7.79346 56H12.8101V55.1299H9.13623V55.0439L10.8979 53.2231C12.2998 51.7783 12.6812 51.1338 12.6812 50.2476V50.2368C12.6812 48.9854 11.6445 48.0669 10.291 48.0669C8.80859 48.0669 7.74512 49.0552 7.73975 50.4302L7.75049 50.4355L8.67432 50.4409L8.67969 50.4302C8.67969 49.5171 9.29736 48.9102 10.2266 48.9102C11.1396 48.9102 11.6929 49.5225 11.6929 50.3389V50.3496C11.6929 51.0264 11.4028 51.4292 10.4146 52.498L7.79346 55.334V56ZM14.4321 56H19.4487V55.1299H15.7749V55.0439L17.5366 53.2231C18.9385 51.7783 19.3198 51.1338 19.3198 50.2476V50.2368C19.3198 48.9854 18.2832 48.0669 16.9297 48.0669C15.4473 48.0669 14.3838 49.0552 14.3784 50.4302L14.3892 50.4355L15.313 50.4409L15.3184 50.4302C15.3184 49.5171 15.936 48.9102 16.8652 48.9102C17.7783 48.9102 18.3315 49.5225 18.3315 50.3389V50.3496C18.3315 51.0264 18.0415 51.4292 17.0532 52.498L14.4321 55.334V56ZM23.665 56.1826C25.3784 56.1826 26.4097 54.6196 26.4097 52.1274V52.1167C26.4097 49.6245 25.3784 48.0669 23.665 48.0669C21.9517 48.0669 20.9312 49.6245 20.9312 52.1167V52.1274C20.9312 54.6196 21.9517 56.1826 23.665 56.1826ZM23.665 55.3394C22.5532 55.3394 21.9033 54.104 21.9033 52.1274V52.1167C21.9033 50.1401 22.5532 48.9155 23.665 48.9155C24.7769 48.9155 25.4375 50.1401 25.4375 52.1167V52.1274C25.4375 54.104 24.7769 55.3394 23.665 55.3394ZM28.3379 56.0537C28.7246 56.0537 29.0361 55.7368 29.0361 55.3555C29.0361 54.9688 28.7246 54.6572 28.3379 54.6572C27.9565 54.6572 27.6396 54.9688 27.6396 55.3555C27.6396 55.7368 27.9565 56.0537 28.3379 56.0537ZM33 56.1826C34.7134 56.1826 35.7446 54.6196 35.7446 52.1274V52.1167C35.7446 49.6245 34.7134 48.0669 33 48.0669C31.2866 48.0669 30.2661 49.6245 30.2661 52.1167V52.1274C30.2661 54.6196 31.2866 56.1826 33 56.1826ZM33 55.3394C31.8882 55.3394 31.2383 54.104 31.2383 52.1274V52.1167C31.2383 50.1401 31.8882 48.9155 33 48.9155C34.1118 48.9155 34.7725 50.1401 34.7725 52.1167V52.1274C34.7725 54.104 34.1118 55.3394 33 55.3394ZM39.9287 56.1826C41.6421 56.1826 42.6733 54.6196 42.6733 52.1274V52.1167C42.6733 49.6245 41.6421 48.0669 39.9287 48.0669C38.2153 48.0669 37.1948 49.6245 37.1948 52.1167V52.1274C37.1948 54.6196 38.2153 56.1826 39.9287 56.1826ZM39.9287 55.3394C38.8169 55.3394 38.167 54.104 38.167 52.1274V52.1167C38.167 50.1401 38.8169 48.9155 39.9287 48.9155C41.0405 48.9155 41.7012 50.1401 41.7012 52.1167V52.1274C41.7012 54.104 41.0405 55.3394 39.9287 55.3394Z" fill="#7878A1"/>
    <rect x="58" y="89" width="285" height="1" fill="#1D1D41"/>
    <path d="M3.15283 93.7788H3.79736V92.8765C5.06494 92.7744 6.11768 92.0493 6.11768 90.7603V90.7495C6.11768 89.627 5.34424 89.0576 3.96387 88.7246L3.79736 88.687V86.2217C4.52246 86.313 5.03809 86.7588 5.10791 87.4785V87.4893L6.04248 87.4839V87.4785C5.99951 86.2969 5.03809 85.4912 3.79736 85.3784V84.4707H3.15283V85.3784C1.87988 85.4966 0.972168 86.2808 0.972168 87.4302V87.4409C0.972168 88.4937 1.69189 89.0898 3.0293 89.4121L3.15283 89.4443V92.0278C2.21826 91.9258 1.80469 91.394 1.70801 90.728V90.7173L0.773438 90.7227V90.728C0.816406 91.9741 1.87451 92.7529 3.15283 92.8711V93.7788ZM1.90674 87.3765V87.3657C1.90674 86.8501 2.33643 86.3345 3.15283 86.2217V88.5312C2.229 88.3057 1.90674 87.8975 1.90674 87.3765ZM3.82959 89.6055C4.89307 89.8633 5.18311 90.2393 5.18311 90.8247V90.8354C5.18311 91.4531 4.79639 91.958 3.79736 92.0386V89.6001L3.82959 89.6055ZM7.79346 93H12.8101V92.1299H9.13623V92.0439L10.8979 90.2231C12.2998 88.7783 12.6812 88.1338 12.6812 87.2476V87.2368C12.6812 85.9854 11.6445 85.0669 10.291 85.0669C8.80859 85.0669 7.74512 86.0552 7.73975 87.4302L7.75049 87.4355L8.67432 87.4409L8.67969 87.4302C8.67969 86.5171 9.29736 85.9102 10.2266 85.9102C11.1396 85.9102 11.6929 86.5225 11.6929 87.3389V87.3496C11.6929 88.0264 11.4028 88.4292 10.4146 89.498L7.79346 92.334V93ZM14.4321 93H19.4487V92.1299H15.7749V92.0439L17.5366 90.2231C18.9385 88.7783 19.3198 88.1338 19.3198 87.2476V87.2368C19.3198 85.9854 18.2832 85.0669 16.9297 85.0669C15.4473 85.0669 14.3838 86.0552 14.3784 87.4302L14.3892 87.4355L15.313 87.4409L15.3184 87.4302C15.3184 86.5171 15.936 85.9102 16.8652 85.9102C17.7783 85.9102 18.3315 86.5225 18.3315 87.3389V87.3496C18.3315 88.0264 18.0415 88.4292 17.0532 89.498L14.4321 92.334V93ZM23.665 93.1826C25.3784 93.1826 26.4097 91.6196 26.4097 89.1274V89.1167C26.4097 86.6245 25.3784 85.0669 23.665 85.0669C21.9517 85.0669 20.9312 86.6245 20.9312 89.1167V89.1274C20.9312 91.6196 21.9517 93.1826 23.665 93.1826ZM23.665 92.3394C22.5532 92.3394 21.9033 91.104 21.9033 89.1274V89.1167C21.9033 87.1401 22.5532 85.9155 23.665 85.9155C24.7769 85.9155 25.4375 87.1401 25.4375 89.1167V89.1274C25.4375 91.104 24.7769 92.3394 23.665 92.3394ZM28.3379 93.0537C28.7246 93.0537 29.0361 92.7368 29.0361 92.3555C29.0361 91.9688 28.7246 91.6572 28.3379 91.6572C27.9565 91.6572 27.6396 91.9688 27.6396 92.3555C27.6396 92.7368 27.9565 93.0537 28.3379 93.0537ZM33 93.1826C34.7134 93.1826 35.7446 91.6196 35.7446 89.1274V89.1167C35.7446 86.6245 34.7134 85.0669 33 85.0669C31.2866 85.0669 30.2661 86.6245 30.2661 89.1167V89.1274C30.2661 91.6196 31.2866 93.1826 33 93.1826ZM33 92.3394C31.8882 92.3394 31.2383 91.104 31.2383 89.1274V89.1167C31.2383 87.1401 31.8882 85.9155 33 85.9155C34.1118 85.9155 34.7725 87.1401 34.7725 89.1167V89.1274C34.7725 91.104 34.1118 92.3394 33 92.3394ZM39.9287 93.1826C41.6421 93.1826 42.6733 91.6196 42.6733 89.1274V89.1167C42.6733 86.6245 41.6421 85.0669 39.9287 85.0669C38.2153 85.0669 37.1948 86.6245 37.1948 89.1167V89.1274C37.1948 91.6196 38.2153 93.1826 39.9287 93.1826ZM39.9287 92.3394C38.8169 92.3394 38.167 91.104 38.167 89.1274V89.1167C38.167 87.1401 38.8169 85.9155 39.9287 85.9155C41.0405 85.9155 41.7012 87.1401 41.7012 89.1167V89.1274C41.7012 91.104 41.0405 92.3394 39.9287 92.3394Z" fill="#7878A1"/>
    <rect x="58" y="126" width="285" height="1" fill="#1D1D41"/>
    <path d="M3.15283 130.779H3.79736V129.876C5.06494 129.774 6.11768 129.049 6.11768 127.76V127.75C6.11768 126.627 5.34424 126.058 3.96387 125.725L3.79736 125.687V123.222C4.52246 123.313 5.03809 123.759 5.10791 124.479V124.489L6.04248 124.484V124.479C5.99951 123.297 5.03809 122.491 3.79736 122.378V121.471H3.15283V122.378C1.87988 122.497 0.972168 123.281 0.972168 124.43V124.441C0.972168 125.494 1.69189 126.09 3.0293 126.412L3.15283 126.444V129.028C2.21826 128.926 1.80469 128.394 1.70801 127.728V127.717L0.773438 127.723V127.728C0.816406 128.974 1.87451 129.753 3.15283 129.871V130.779ZM1.90674 124.376V124.366C1.90674 123.85 2.33643 123.334 3.15283 123.222V125.531C2.229 125.306 1.90674 124.897 1.90674 124.376ZM3.82959 126.605C4.89307 126.863 5.18311 127.239 5.18311 127.825V127.835C5.18311 128.453 4.79639 128.958 3.79736 129.039V126.6L3.82959 126.605ZM9.68945 130H10.6562V122.25H9.69482L7.63232 123.732V124.752L9.60352 123.324H9.68945V130ZM15.5439 130.129C17.1875 130.129 18.3584 129.205 18.3584 127.905V127.895C18.3584 126.938 17.687 126.144 16.6934 125.913V125.891C17.542 125.628 18.0791 124.983 18.0791 124.167V124.156C18.0791 122.985 17.0103 122.121 15.5439 122.121C14.0776 122.121 13.0088 122.985 13.0088 124.156V124.167C13.0088 124.983 13.5459 125.628 14.3945 125.891V125.913C13.4009 126.144 12.7295 126.938 12.7295 127.895V127.905C12.7295 129.205 13.9004 130.129 15.5439 130.129ZM15.5439 125.531C14.6094 125.531 13.9702 125 13.9702 124.248V124.237C13.9702 123.485 14.6094 122.953 15.5439 122.953C16.4785 122.953 17.1177 123.485 17.1177 124.237V124.248C17.1177 125 16.4785 125.531 15.5439 125.531ZM15.5439 129.286C14.4751 129.286 13.7124 128.684 13.7124 127.846V127.835C13.7124 126.987 14.4697 126.38 15.5439 126.38C16.6182 126.38 17.3755 126.987 17.3755 127.835V127.846C17.3755 128.684 16.6128 129.286 15.5439 129.286ZM22.5156 130.183C24.229 130.183 25.2603 128.62 25.2603 126.127V126.117C25.2603 123.625 24.229 122.067 22.5156 122.067C20.8022 122.067 19.7817 123.625 19.7817 126.117V126.127C19.7817 128.62 20.8022 130.183 22.5156 130.183ZM22.5156 129.339C21.4038 129.339 20.7539 128.104 20.7539 126.127V126.117C20.7539 124.14 21.4038 122.916 22.5156 122.916C23.6274 122.916 24.2881 124.14 24.2881 126.117V126.127C24.2881 128.104 23.6274 129.339 22.5156 129.339ZM27.1885 130.054C27.5752 130.054 27.8867 129.737 27.8867 129.355C27.8867 128.969 27.5752 128.657 27.1885 128.657C26.8071 128.657 26.4902 128.969 26.4902 129.355C26.4902 129.737 26.8071 130.054 27.1885 130.054ZM31.8506 130.183C33.564 130.183 34.5952 128.62 34.5952 126.127V126.117C34.5952 123.625 33.564 122.067 31.8506 122.067C30.1372 122.067 29.1167 123.625 29.1167 126.117V126.127C29.1167 128.62 30.1372 130.183 31.8506 130.183ZM31.8506 129.339C30.7388 129.339 30.0889 128.104 30.0889 126.127V126.117C30.0889 124.14 30.7388 122.916 31.8506 122.916C32.9624 122.916 33.623 124.14 33.623 126.117V126.127C33.623 128.104 32.9624 129.339 31.8506 129.339ZM38.7793 130.183C40.4927 130.183 41.5239 128.62 41.5239 126.127V126.117C41.5239 123.625 40.4927 122.067 38.7793 122.067C37.0659 122.067 36.0454 123.625 36.0454 126.117V126.127C36.0454 128.62 37.0659 130.183 38.7793 130.183ZM38.7793 129.339C37.6675 129.339 37.0176 128.104 37.0176 126.127V126.117C37.0176 124.14 37.6675 122.916 38.7793 122.916C39.8911 122.916 40.5518 124.14 40.5518 126.117V126.127C40.5518 128.104 39.8911 129.339 38.7793 129.339Z" fill="#7878A1"/>
    <rect x="58" y="163" width="285" height="1" fill="#1D1D41"/>
    <path d="M3.15283 167.779H3.79736V166.876C5.06494 166.774 6.11768 166.049 6.11768 164.76V164.75C6.11768 163.627 5.34424 163.058 3.96387 162.725L3.79736 162.687V160.222C4.52246 160.313 5.03809 160.759 5.10791 161.479V161.489L6.04248 161.484V161.479C5.99951 160.297 5.03809 159.491 3.79736 159.378V158.471H3.15283V159.378C1.87988 159.497 0.972168 160.281 0.972168 161.43V161.441C0.972168 162.494 1.69189 163.09 3.0293 163.412L3.15283 163.444V166.028C2.21826 165.926 1.80469 165.394 1.70801 164.728V164.717L0.773438 164.723V164.728C0.816406 165.974 1.87451 166.753 3.15283 166.871V167.779ZM1.90674 161.376V161.366C1.90674 160.85 2.33643 160.334 3.15283 160.222V162.531C2.229 162.306 1.90674 161.897 1.90674 161.376ZM3.82959 163.605C4.89307 163.863 5.18311 164.239 5.18311 164.825V164.835C5.18311 165.453 4.79639 165.958 3.79736 166.039V163.6L3.82959 163.605ZM9.68945 167H10.6562V159.25H9.69482L7.63232 160.732V161.752L9.60352 160.324H9.68945V167ZM15.6353 167.183C17.1982 167.183 18.3477 166.06 18.3477 164.513V164.502C18.3477 163.015 17.2627 161.908 15.8071 161.908C14.7598 161.908 14.0293 162.472 13.7446 163.106H13.6426C13.6426 163.047 13.6426 162.982 13.6479 162.923C13.707 161.307 14.2817 159.932 15.689 159.932C16.4731 159.932 17.0156 160.334 17.252 160.984L17.2734 161.043H18.2456L18.2295 160.974C17.9663 159.83 16.9995 159.067 15.6997 159.067C13.8198 159.067 12.7188 160.614 12.7188 163.256V163.267C12.7188 166.184 14.2173 167.183 15.6353 167.183ZM13.8735 164.502V164.497C13.8735 163.487 14.6362 162.751 15.6406 162.751C16.645 162.751 17.3755 163.493 17.3755 164.524V164.535C17.3755 165.539 16.5967 166.329 15.6245 166.329C14.6416 166.329 13.8735 165.523 13.8735 164.502ZM22.4941 167.183C24.2075 167.183 25.2388 165.62 25.2388 163.127V163.117C25.2388 160.625 24.2075 159.067 22.4941 159.067C20.7808 159.067 19.7603 160.625 19.7603 163.117V163.127C19.7603 165.62 20.7808 167.183 22.4941 167.183ZM22.4941 166.339C21.3823 166.339 20.7324 165.104 20.7324 163.127V163.117C20.7324 161.14 21.3823 159.916 22.4941 159.916C23.606 159.916 24.2666 161.14 24.2666 163.117V163.127C24.2666 165.104 23.606 166.339 22.4941 166.339ZM27.167 167.054C27.5537 167.054 27.8652 166.737 27.8652 166.355C27.8652 165.969 27.5537 165.657 27.167 165.657C26.7856 165.657 26.4688 165.969 26.4688 166.355C26.4688 166.737 26.7856 167.054 27.167 167.054ZM31.8291 167.183C33.5425 167.183 34.5737 165.62 34.5737 163.127V163.117C34.5737 160.625 33.5425 159.067 31.8291 159.067C30.1157 159.067 29.0952 160.625 29.0952 163.117V163.127C29.0952 165.62 30.1157 167.183 31.8291 167.183ZM31.8291 166.339C30.7173 166.339 30.0674 165.104 30.0674 163.127V163.117C30.0674 161.14 30.7173 159.916 31.8291 159.916C32.9409 159.916 33.6016 161.14 33.6016 163.117V163.127C33.6016 165.104 32.9409 166.339 31.8291 166.339ZM38.7578 167.183C40.4712 167.183 41.5024 165.62 41.5024 163.127V163.117C41.5024 160.625 40.4712 159.067 38.7578 159.067C37.0444 159.067 36.0239 160.625 36.0239 163.117V163.127C36.0239 165.62 37.0444 167.183 38.7578 167.183ZM38.7578 166.339C37.646 166.339 36.9961 165.104 36.9961 163.127V163.117C36.9961 161.14 37.646 159.916 38.7578 159.916C39.8696 159.916 40.5303 161.14 40.5303 163.117V163.127C40.5303 165.104 39.8696 166.339 38.7578 166.339Z" fill="#7878A1"/>
    <rect x="58" y="200" width="285" height="1" fill="#1D1D41"/>
    <path d="M3.15283 204.779H3.79736V203.876C5.06494 203.774 6.11768 203.049 6.11768 201.76V201.75C6.11768 200.627 5.34424 200.058 3.96387 199.725L3.79736 199.687V197.222C4.52246 197.313 5.03809 197.759 5.10791 198.479V198.489L6.04248 198.484V198.479C5.99951 197.297 5.03809 196.491 3.79736 196.378V195.471H3.15283V196.378C1.87988 196.497 0.972168 197.281 0.972168 198.43V198.441C0.972168 199.494 1.69189 200.09 3.0293 200.412L3.15283 200.444V203.028C2.21826 202.926 1.80469 202.394 1.70801 201.728V201.717L0.773438 201.723V201.728C0.816406 202.974 1.87451 203.753 3.15283 203.871V204.779ZM1.90674 198.376V198.366C1.90674 197.85 2.33643 197.334 3.15283 197.222V199.531C2.229 199.306 1.90674 198.897 1.90674 198.376ZM3.82959 200.605C4.89307 200.863 5.18311 201.239 5.18311 201.825V201.835C5.18311 202.453 4.79639 202.958 3.79736 203.039V200.6L3.82959 200.605ZM9.68945 204H10.6562V196.25H9.69482L7.63232 197.732V198.752L9.60352 197.324H9.68945V204ZM16.4355 204H17.3809V202.394H18.4819V201.529H17.3809V196.25H15.979C14.894 197.866 13.707 199.757 12.6597 201.513V202.394H16.4355V204ZM13.6479 201.535V201.47C14.4912 200.047 15.5063 198.446 16.3765 197.146H16.4409V201.535H13.6479ZM22.5693 204.183C24.2827 204.183 25.314 202.62 25.314 200.127V200.117C25.314 197.625 24.2827 196.067 22.5693 196.067C20.856 196.067 19.8354 197.625 19.8354 200.117V200.127C19.8354 202.62 20.856 204.183 22.5693 204.183ZM22.5693 203.339C21.4575 203.339 20.8076 202.104 20.8076 200.127V200.117C20.8076 198.14 21.4575 196.916 22.5693 196.916C23.6812 196.916 24.3418 198.14 24.3418 200.117V200.127C24.3418 202.104 23.6812 203.339 22.5693 203.339ZM27.2422 204.054C27.6289 204.054 27.9404 203.737 27.9404 203.355C27.9404 202.969 27.6289 202.657 27.2422 202.657C26.8608 202.657 26.5439 202.969 26.5439 203.355C26.5439 203.737 26.8608 204.054 27.2422 204.054ZM31.9043 204.183C33.6177 204.183 34.6489 202.62 34.6489 200.127V200.117C34.6489 197.625 33.6177 196.067 31.9043 196.067C30.1909 196.067 29.1704 197.625 29.1704 200.117V200.127C29.1704 202.62 30.1909 204.183 31.9043 204.183ZM31.9043 203.339C30.7925 203.339 30.1426 202.104 30.1426 200.127V200.117C30.1426 198.14 30.7925 196.916 31.9043 196.916C33.0161 196.916 33.6768 198.14 33.6768 200.117V200.127C33.6768 202.104 33.0161 203.339 31.9043 203.339ZM38.833 204.183C40.5464 204.183 41.5776 202.62 41.5776 200.127V200.117C41.5776 197.625 40.5464 196.067 38.833 196.067C37.1196 196.067 36.0991 197.625 36.0991 200.117V200.127C36.0991 202.62 37.1196 204.183 38.833 204.183ZM38.833 203.339C37.7212 203.339 37.0713 202.104 37.0713 200.127V200.117C37.0713 198.14 37.7212 196.916 38.833 196.916C39.9448 196.916 40.6055 198.14 40.6055 200.117V200.127C40.6055 202.104 39.9448 203.339 38.833 203.339Z" fill="#7878A1"/>
    <rect x="58" y="237" width="285" height="1" fill="#1D1D41"/>
    <path d="M3.15283 241.779H3.79736V240.876C5.06494 240.774 6.11768 240.049 6.11768 238.76V238.75C6.11768 237.627 5.34424 237.058 3.96387 236.725L3.79736 236.687V234.222C4.52246 234.313 5.03809 234.759 5.10791 235.479V235.489L6.04248 235.484V235.479C5.99951 234.297 5.03809 233.491 3.79736 233.378V232.471H3.15283V233.378C1.87988 233.497 0.972168 234.281 0.972168 235.43V235.441C0.972168 236.494 1.69189 237.09 3.0293 237.412L3.15283 237.444V240.028C2.21826 239.926 1.80469 239.394 1.70801 238.728V238.717L0.773438 238.723V238.728C0.816406 239.974 1.87451 240.753 3.15283 240.871V241.779ZM1.90674 235.376V235.366C1.90674 234.85 2.33643 234.334 3.15283 234.222V236.531C2.229 236.306 1.90674 235.897 1.90674 235.376ZM3.82959 237.605C4.89307 237.863 5.18311 238.239 5.18311 238.825V238.835C5.18311 239.453 4.79639 239.958 3.79736 240.039V237.6L3.82959 237.605ZM9.68945 241H10.6562V233.25H9.69482L7.63232 234.732V235.752L9.60352 234.324H9.68945V241ZM12.896 241H17.9126V240.13H14.2388V240.044L16.0005 238.223C17.4023 236.778 17.7837 236.134 17.7837 235.248V235.237C17.7837 233.985 16.7471 233.067 15.3936 233.067C13.9111 233.067 12.8477 234.055 12.8423 235.43L12.853 235.436L13.7769 235.441L13.7822 235.43C13.7822 234.517 14.3999 233.91 15.3291 233.91C16.2422 233.91 16.7954 234.522 16.7954 235.339V235.35C16.7954 236.026 16.5054 236.429 15.5171 237.498L12.896 240.334V241ZM22.1289 241.183C23.8423 241.183 24.8735 239.62 24.8735 237.127V237.117C24.8735 234.625 23.8423 233.067 22.1289 233.067C20.4155 233.067 19.395 234.625 19.395 237.117V237.127C19.395 239.62 20.4155 241.183 22.1289 241.183ZM22.1289 240.339C21.0171 240.339 20.3672 239.104 20.3672 237.127V237.117C20.3672 235.14 21.0171 233.916 22.1289 233.916C23.2407 233.916 23.9014 235.14 23.9014 237.117V237.127C23.9014 239.104 23.2407 240.339 22.1289 240.339ZM26.8018 241.054C27.1885 241.054 27.5 240.737 27.5 240.355C27.5 239.969 27.1885 239.657 26.8018 239.657C26.4204 239.657 26.1035 239.969 26.1035 240.355C26.1035 240.737 26.4204 241.054 26.8018 241.054ZM31.4639 241.183C33.1772 241.183 34.2085 239.62 34.2085 237.127V237.117C34.2085 234.625 33.1772 233.067 31.4639 233.067C29.7505 233.067 28.73 234.625 28.73 237.117V237.127C28.73 239.62 29.7505 241.183 31.4639 241.183ZM31.4639 240.339C30.3521 240.339 29.7021 239.104 29.7021 237.127V237.117C29.7021 235.14 30.3521 233.916 31.4639 233.916C32.5757 233.916 33.2363 235.14 33.2363 237.117V237.127C33.2363 239.104 32.5757 240.339 31.4639 240.339ZM38.3926 241.183C40.106 241.183 41.1372 239.62 41.1372 237.127V237.117C41.1372 234.625 40.106 233.067 38.3926 233.067C36.6792 233.067 35.6587 234.625 35.6587 237.117V237.127C35.6587 239.62 36.6792 241.183 38.3926 241.183ZM38.3926 240.339C37.2808 240.339 36.6309 239.104 36.6309 237.127V237.117C36.6309 235.14 37.2808 233.916 38.3926 233.916C39.5044 233.916 40.165 235.14 40.165 237.117V237.127C40.165 239.104 39.5044 240.339 38.3926 240.339Z" fill="#7878A1"/>
    <rect x="58" y="274" width="285" height="1" fill="#1D1D41"/>
    <path d="M3.15283 278.779H3.79736V277.876C5.06494 277.774 6.11768 277.049 6.11768 275.76V275.75C6.11768 274.627 5.34424 274.058 3.96387 273.725L3.79736 273.687V271.222C4.52246 271.313 5.03809 271.759 5.10791 272.479V272.489L6.04248 272.484V272.479C5.99951 271.297 5.03809 270.491 3.79736 270.378V269.471H3.15283V270.378C1.87988 270.497 0.972168 271.281 0.972168 272.43V272.441C0.972168 273.494 1.69189 274.09 3.0293 274.412L3.15283 274.444V277.028C2.21826 276.926 1.80469 276.394 1.70801 275.728V275.717L0.773438 275.723V275.728C0.816406 276.974 1.87451 277.753 3.15283 277.871V278.779ZM1.90674 272.376V272.366C1.90674 271.85 2.33643 271.334 3.15283 271.222V273.531C2.229 273.306 1.90674 272.897 1.90674 272.376ZM3.82959 274.605C4.89307 274.863 5.18311 275.239 5.18311 275.825V275.835C5.18311 276.453 4.79639 276.958 3.79736 277.039V274.6L3.82959 274.605ZM9.68945 278H10.6562V270.25H9.69482L7.63232 271.732V272.752L9.60352 271.324H9.68945V278ZM15.4902 278.183C17.2036 278.183 18.2349 276.62 18.2349 274.127V274.117C18.2349 271.625 17.2036 270.067 15.4902 270.067C13.7769 270.067 12.7563 271.625 12.7563 274.117V274.127C12.7563 276.62 13.7769 278.183 15.4902 278.183ZM15.4902 277.339C14.3784 277.339 13.7285 276.104 13.7285 274.127V274.117C13.7285 272.14 14.3784 270.916 15.4902 270.916C16.6021 270.916 17.2627 272.14 17.2627 274.117V274.127C17.2627 276.104 16.6021 277.339 15.4902 277.339ZM22.4189 278.183C24.1323 278.183 25.1636 276.62 25.1636 274.127V274.117C25.1636 271.625 24.1323 270.067 22.4189 270.067C20.7056 270.067 19.6851 271.625 19.6851 274.117V274.127C19.6851 276.62 20.7056 278.183 22.4189 278.183ZM22.4189 277.339C21.3071 277.339 20.6572 276.104 20.6572 274.127V274.117C20.6572 272.14 21.3071 270.916 22.4189 270.916C23.5308 270.916 24.1914 272.14 24.1914 274.117V274.127C24.1914 276.104 23.5308 277.339 22.4189 277.339ZM27.0918 278.054C27.4785 278.054 27.79 277.737 27.79 277.355C27.79 276.969 27.4785 276.657 27.0918 276.657C26.7104 276.657 26.3936 276.969 26.3936 277.355C26.3936 277.737 26.7104 278.054 27.0918 278.054ZM31.7539 278.183C33.4673 278.183 34.4985 276.62 34.4985 274.127V274.117C34.4985 271.625 33.4673 270.067 31.7539 270.067C30.0405 270.067 29.02 271.625 29.02 274.117V274.127C29.02 276.62 30.0405 278.183 31.7539 278.183ZM31.7539 277.339C30.6421 277.339 29.9922 276.104 29.9922 274.127V274.117C29.9922 272.14 30.6421 270.916 31.7539 270.916C32.8657 270.916 33.5264 272.14 33.5264 274.117V274.127C33.5264 276.104 32.8657 277.339 31.7539 277.339ZM38.6826 278.183C40.396 278.183 41.4272 276.62 41.4272 274.127V274.117C41.4272 271.625 40.396 270.067 38.6826 270.067C36.9692 270.067 35.9487 271.625 35.9487 274.117V274.127C35.9487 276.62 36.9692 278.183 38.6826 278.183ZM38.6826 277.339C37.5708 277.339 36.9209 276.104 36.9209 274.127V274.117C36.9209 272.14 37.5708 270.916 38.6826 270.916C39.7944 270.916 40.4551 272.14 40.4551 274.117V274.127C40.4551 276.104 39.7944 277.339 38.6826 277.339Z" fill="#7878A1"/>
    <path d="M281.377 301H282.393L285.841 294.146V293.25H280.711V294.114H284.858V294.189L281.377 301ZM292.195 301.183C293.629 301.183 294.478 300.312 294.478 298.846V293.25H293.511V298.835C293.511 299.781 293.049 300.291 292.189 300.291C291.421 300.291 291.04 299.802 290.981 299.217L290.976 299.163H290.009L290.014 299.238C290.095 300.35 290.852 301.183 292.195 301.183ZM298.275 301.102C299.124 301.102 299.709 300.753 299.994 300.135H300.08V301H301.014V295.21H300.08V298.637C300.08 299.652 299.537 300.275 298.517 300.275C297.593 300.275 297.217 299.775 297.217 298.733V295.21H296.282V298.959C296.282 300.329 296.959 301.102 298.275 301.102ZM302.76 301H303.694V297.573C303.694 296.558 304.28 295.935 305.204 295.935C306.127 295.935 306.557 296.435 306.557 297.477V301H307.492V297.251C307.492 295.876 306.767 295.108 305.467 295.108C304.613 295.108 304.07 295.468 303.78 296.08H303.694V295.21H302.76V301ZM311.547 301.102C312.911 301.102 313.738 300.329 313.937 299.544L313.948 299.501H313.013L312.992 299.55C312.836 299.899 312.353 300.27 311.568 300.27C310.537 300.27 309.876 299.571 309.85 298.374H314.018V298.008C314.018 296.279 313.062 295.108 311.488 295.108C309.914 295.108 308.894 296.333 308.894 298.121V298.126C308.894 299.942 309.893 301.102 311.547 301.102ZM311.482 295.94C312.336 295.94 312.97 296.483 313.067 297.627H309.866C309.968 296.526 310.623 295.94 311.482 295.94ZM318.556 301H323.573V300.13H319.899V300.044L321.661 298.223C323.062 296.778 323.444 296.134 323.444 295.248V295.237C323.444 293.985 322.407 293.067 321.054 293.067C319.571 293.067 318.508 294.055 318.502 295.43L318.513 295.436L319.437 295.441L319.442 295.43C319.442 294.517 320.06 293.91 320.989 293.91C321.902 293.91 322.456 294.522 322.456 295.339V295.35C322.456 296.026 322.166 296.429 321.177 297.498L318.556 300.334V301ZM327.789 301.183C329.502 301.183 330.534 299.62 330.534 297.127V297.117C330.534 294.625 329.502 293.067 327.789 293.067C326.076 293.067 325.055 294.625 325.055 297.117V297.127C325.055 299.62 326.076 301.183 327.789 301.183ZM327.789 300.339C326.677 300.339 326.027 299.104 326.027 297.127V297.117C326.027 295.14 326.677 293.916 327.789 293.916C328.901 293.916 329.562 295.14 329.562 297.117V297.127C329.562 299.104 328.901 300.339 327.789 300.339ZM332.124 301H337.14V300.13H333.466V300.044L335.228 298.223C336.63 296.778 337.011 296.134 337.011 295.248V295.237C337.011 293.985 335.975 293.067 334.621 293.067C333.139 293.067 332.075 294.055 332.07 295.43L332.081 295.436L333.004 295.441L333.01 295.43C333.01 294.517 333.627 293.91 334.557 293.91C335.47 293.91 336.023 294.522 336.023 295.339V295.35C336.023 296.026 335.733 296.429 334.745 297.498L332.124 300.334V301ZM340.658 301H341.625V293.25H340.664L338.601 294.732V295.752L340.572 294.324H340.658V301Z" fill="#7878A1"/>
    <path d="M104.392 301H109.409V300.13H105.735V300.044L107.497 298.223C108.898 296.778 109.28 296.134 109.28 295.248V295.237C109.28 293.985 108.243 293.067 106.89 293.067C105.407 293.067 104.344 294.055 104.338 295.43L104.349 295.436L105.273 295.441L105.278 295.43C105.278 294.517 105.896 293.91 106.825 293.91C107.738 293.91 108.292 294.522 108.292 295.339V295.35C108.292 296.026 108.001 296.429 107.013 297.498L104.392 300.334V301ZM113.668 301.129C115.22 301.129 116.359 300.173 116.359 298.878V298.868C116.359 297.767 115.591 297.063 114.463 296.966V296.945C115.43 296.741 116.106 296.085 116.106 295.129V295.119C116.106 293.942 115.134 293.121 113.657 293.121C112.207 293.121 111.208 293.964 111.084 295.226L111.079 295.28H112.008L112.014 295.226C112.094 294.442 112.744 293.958 113.657 293.958C114.603 293.958 115.134 294.426 115.134 295.237V295.248C115.134 296.021 114.49 296.59 113.566 296.59H112.637V297.407H113.609C114.694 297.407 115.376 297.938 115.376 298.889V298.9C115.376 299.722 114.683 300.291 113.668 300.291C112.637 300.291 111.933 299.765 111.858 299.002L111.853 298.948H110.923L110.929 299.013C111.031 300.237 112.067 301.129 113.668 301.129ZM121.145 301H122.047V295.081H122.106L124.555 301H125.372L127.821 295.081H127.88V301H128.782V293.25H127.66L125.006 299.716H124.92L122.267 293.25H121.145V301ZM132.23 301.102C133.009 301.102 133.616 300.764 133.981 300.146H134.067V301H135.002V297.036C135.002 295.833 134.212 295.108 132.8 295.108C131.564 295.108 130.684 295.72 130.533 296.628L130.528 296.66H131.462L131.468 296.644C131.618 296.193 132.075 295.935 132.768 295.935C133.632 295.935 134.067 296.322 134.067 297.036V297.562L132.408 297.665C131.06 297.745 130.297 298.341 130.297 299.373V299.383C130.297 300.436 131.129 301.102 132.23 301.102ZM131.253 299.362V299.351C131.253 298.776 131.64 298.465 132.521 298.411L134.067 298.314V298.841C134.067 299.668 133.375 300.291 132.424 300.291C131.752 300.291 131.253 299.947 131.253 299.362ZM136.989 303.03C138.015 303.03 138.493 302.654 138.971 301.354L141.232 295.21H140.25L138.665 299.974H138.579L136.989 295.21H135.99L138.133 301.005L138.026 301.349C137.816 302.015 137.494 302.257 136.962 302.257C136.833 302.257 136.688 302.251 136.576 302.23V302.998C136.705 303.02 136.866 303.03 136.989 303.03ZM145.556 301H150.573V300.13H146.899V300.044L148.661 298.223C150.062 296.778 150.444 296.134 150.444 295.248V295.237C150.444 293.985 149.407 293.067 148.054 293.067C146.571 293.067 145.508 294.055 145.502 295.43L145.513 295.436L146.437 295.441L146.442 295.43C146.442 294.517 147.06 293.91 147.989 293.91C148.902 293.91 149.456 294.522 149.456 295.339V295.35C149.456 296.026 149.166 296.429 148.177 297.498L145.556 300.334V301ZM154.789 301.183C156.502 301.183 157.534 299.62 157.534 297.127V297.117C157.534 294.625 156.502 293.067 154.789 293.067C153.076 293.067 152.055 294.625 152.055 297.117V297.127C152.055 299.62 153.076 301.183 154.789 301.183ZM154.789 300.339C153.677 300.339 153.027 299.104 153.027 297.127V297.117C153.027 295.14 153.677 293.916 154.789 293.916C155.901 293.916 156.562 295.14 156.562 297.117V297.127C156.562 299.104 155.901 300.339 154.789 300.339ZM159.124 301H164.14V300.13H160.466V300.044L162.228 298.223C163.63 296.778 164.011 296.134 164.011 295.248V295.237C164.011 293.985 162.975 293.067 161.621 293.067C160.139 293.067 159.075 294.055 159.07 295.43L159.081 295.436L160.004 295.441L160.01 295.43C160.01 294.517 160.627 293.91 161.557 293.91C162.47 293.91 163.023 294.522 163.023 295.339V295.35C163.023 296.026 162.733 296.429 161.745 297.498L159.124 300.334V301ZM167.658 301H168.625V293.25H167.664L165.601 294.732V295.752L167.572 294.324H167.658V301Z" fill="#7878A1"/>
    <path d="M193.739 301.129C195.292 301.129 196.43 300.173 196.43 298.878V298.868C196.43 297.767 195.662 297.063 194.534 296.966V296.945C195.501 296.741 196.178 296.085 196.178 295.129V295.119C196.178 293.942 195.206 293.121 193.729 293.121C192.278 293.121 191.279 293.964 191.156 295.226L191.15 295.28H192.08L192.085 295.226C192.166 294.442 192.815 293.958 193.729 293.958C194.674 293.958 195.206 294.426 195.206 295.237V295.248C195.206 296.021 194.561 296.59 193.637 296.59H192.708V297.407H193.68C194.765 297.407 195.447 297.938 195.447 298.889V298.9C195.447 299.722 194.754 300.291 193.739 300.291C192.708 300.291 192.004 299.765 191.929 299.002L191.924 298.948H190.995L191 299.013C191.102 300.237 192.139 301.129 193.739 301.129ZM200.593 301.183C202.306 301.183 203.337 299.62 203.337 297.127V297.117C203.337 294.625 202.306 293.067 200.593 293.067C198.879 293.067 197.859 294.625 197.859 297.117V297.127C197.859 299.62 198.879 301.183 200.593 301.183ZM200.593 300.339C199.481 300.339 198.831 299.104 198.831 297.127V297.117C198.831 295.14 199.481 293.916 200.593 293.916C201.705 293.916 202.365 295.14 202.365 297.117V297.127C202.365 299.104 201.705 300.339 200.593 300.339ZM208.145 301H209.047V295.081H209.106L211.555 301H212.372L214.821 295.081H214.88V301H215.782V293.25H214.66L212.006 299.716H211.92L209.267 293.25H208.145V301ZM219.23 301.102C220.009 301.102 220.616 300.764 220.981 300.146H221.067V301H222.002V297.036C222.002 295.833 221.212 295.108 219.8 295.108C218.564 295.108 217.684 295.72 217.533 296.628L217.528 296.66H218.462L218.468 296.644C218.618 296.193 219.075 295.935 219.768 295.935C220.632 295.935 221.067 296.322 221.067 297.036V297.562L219.408 297.665C218.06 297.745 217.297 298.341 217.297 299.373V299.383C217.297 300.436 218.129 301.102 219.23 301.102ZM218.253 299.362V299.351C218.253 298.776 218.64 298.465 219.521 298.411L221.067 298.314V298.841C221.067 299.668 220.375 300.291 219.424 300.291C218.752 300.291 218.253 299.947 218.253 299.362ZM223.989 303.03C225.015 303.03 225.493 302.654 225.971 301.354L228.232 295.21H227.25L225.665 299.974H225.579L223.989 295.21H222.99L225.133 301.005L225.026 301.349C224.816 302.015 224.494 302.257 223.962 302.257C223.833 302.257 223.688 302.251 223.576 302.23V302.998C223.705 303.02 223.866 303.03 223.989 303.03ZM232.556 301H237.573V300.13H233.899V300.044L235.661 298.223C237.062 296.778 237.444 296.134 237.444 295.248V295.237C237.444 293.985 236.407 293.067 235.054 293.067C233.571 293.067 232.508 294.055 232.502 295.43L232.513 295.436L233.437 295.441L233.442 295.43C233.442 294.517 234.06 293.91 234.989 293.91C235.902 293.91 236.456 294.522 236.456 295.339V295.35C236.456 296.026 236.166 296.429 235.177 297.498L232.556 300.334V301ZM241.789 301.183C243.502 301.183 244.534 299.62 244.534 297.127V297.117C244.534 294.625 243.502 293.067 241.789 293.067C240.076 293.067 239.055 294.625 239.055 297.117V297.127C239.055 299.62 240.076 301.183 241.789 301.183ZM241.789 300.339C240.677 300.339 240.027 299.104 240.027 297.127V297.117C240.027 295.14 240.677 293.916 241.789 293.916C242.901 293.916 243.562 295.14 243.562 297.117V297.127C243.562 299.104 242.901 300.339 241.789 300.339ZM246.124 301H251.14V300.13H247.466V300.044L249.228 298.223C250.63 296.778 251.011 296.134 251.011 295.248V295.237C251.011 293.985 249.975 293.067 248.621 293.067C247.139 293.067 246.075 294.055 246.07 295.43L246.081 295.436L247.004 295.441L247.01 295.43C247.01 294.517 247.627 293.91 248.557 293.91C249.47 293.91 250.023 294.522 250.023 295.339V295.35C250.023 296.026 249.733 296.429 248.745 297.498L246.124 300.334V301ZM254.658 301H255.625V293.25H254.664L252.601 294.732V295.752L254.572 294.324H254.658V301Z" fill="#7878A1"/>
    <rect x="58" y="242" width="5" height="32" fill="#1D1D41"/>
    <rect x="65" y="233" width="5" height="41" fill="#1D1D41"/>
    <rect x="72" y="229" width="5" height="45" fill="#1D1D41"/>
    <rect x="79" y="235" width="5" height="39" fill="#1D1D41"/>
    <rect x="86" y="205" width="5" height="69" fill="#1D1D41"/>
    <rect x="93" y="228" width="5" height="46" fill="#1D1D41"/>
    <rect x="100" y="228" width="5" height="46" fill="#1D1D41"/>
    <rect x="107" y="231" width="5" height="43" fill="#1D1D41"/>
    <rect x="114" y="242" width="5" height="32" fill="#1D1D41"/>
    <rect x="121" y="192" width="5" height="82" fill="#1D1D41"/>
    <rect x="128" y="242" width="5" height="32" fill="#1D1D41"/>
    <rect x="135" y="242" width="5" height="32" fill="#1D1D41"/>
    <rect x="142" y="235" width="5" height="39" fill="#1D1D41"/>
    <rect x="149" y="239" width="5" height="35" fill="#1D1D41"/>
    <rect x="156" y="235" width="5" height="39" fill="#1D1D41"/>
    <rect x="163" y="221" width="5" height="53" fill="#1D1D41"/>
    <rect x="170" y="235" width="5" height="39" fill="#1D1D41"/>
    <rect x="177" y="248" width="5" height="26" fill="#1D1D41"/>
    <rect x="184" y="258" width="5" height="16" fill="#1D1D41"/>
    <rect x="191" y="263" width="5" height="11" fill="#1D1D41"/>
    <rect x="198" y="231" width="5" height="43" fill="#1D1D41"/>
    <rect x="205" y="228" width="5" height="46" fill="#1D1D41"/>
    <rect x="212" y="221" width="5" height="53" fill="#1D1D41"/>
    <rect x="219" y="250" width="5" height="24" fill="#1D1D41"/>
    <rect x="226" y="231" width="5" height="43" fill="#1D1D41"/>
    <rect x="233" y="225" width="5" height="49" fill="#1D1D41"/>
    <rect x="240" y="235" width="5" height="39" fill="#1D1D41"/>
    <rect x="247" y="210" width="5" height="64" fill="#1D1D41"/>
    <rect x="254" y="217" width="5" height="57" fill="#1D1D41"/>
    <rect x="261" y="242" width="5" height="32" fill="#1D1D41"/>
    <rect x="268" y="242" width="5" height="32" fill="#1D1D41"/>
    <rect x="275" y="242" width="5" height="32" fill="#1D1D41"/>
    <rect x="282" y="263" width="5" height="11" fill="#1D1D41"/>
    <rect x="289" y="250" width="5" height="24" fill="#1D1D41"/>
    <rect x="296" y="255" width="5" height="19" fill="#1D1D41"/>
    <rect x="303" y="235" width="5" height="39" fill="#1D1D41"/>
    <rect x="310" y="246" width="5" height="28" fill="#1D1D41"/>
    <rect x="317" y="231" width="5" height="43" fill="#1D1D41"/>
    <rect x="324" y="225" width="5" height="49" fill="#1D1D41"/>
    <rect x="331" y="250" width="5" height="24" fill="#1D1D41"/>
    <rect x="338" y="255" width="5" height="19" fill="#1D1D41"/>
    <rect x="58" y="76" width="5" height="32" fill="#00C48C"/>
    <path fill-rule="evenodd" clip-rule="evenodd" d="M68 53H67V72.4615H65V76H70V72.4615H68V53Z" fill="#00C48C"/>
    <path fill-rule="evenodd" clip-rule="evenodd" d="M75 93H74V78.6154H72V76H77V78.6154H75V93Z" fill="#EF6866"/>
    <path fill-rule="evenodd" clip-rule="evenodd" d="M84 101H79V78.7143H81V75H82V78.7143H84V101Z" fill="#EF6866"/>
    <rect width="5" height="36" transform="matrix(1 0 0 -1 86 137)" fill="#00C48C"/>
    <path fill-rule="evenodd" clip-rule="evenodd" d="M95 142H96V137.8H98V125.2H96V121H95V125.2H93V137.8H95V142Z" fill="#00C48C"/>
    <path fill-rule="evenodd" clip-rule="evenodd" d="M102 181H103V167H105V125H103V111H102V125H100V167H102V181Z" fill="#EF6866"/>
    <path fill-rule="evenodd" clip-rule="evenodd" d="M116 216H117V210.615H119V156.769H117V146H116V156.769H114V210.615H116V216Z" fill="#EF6866"/>
    <path fill-rule="evenodd" clip-rule="evenodd" d="M123 240H124V237.308H126V210.385H124V205H123V210.385H121V237.308H123V240Z" fill="#EF6866"/>
    <path fill-rule="evenodd" clip-rule="evenodd" d="M130 267H131V264.308H133V237.385H131V232H130V237.385H128V264.308H130V267Z" fill="#EF6866"/>
    <path fill-rule="evenodd" clip-rule="evenodd" d="M137 270H138V264.615H140V210.769H138V200H137V210.769H135V264.615H137V270Z" fill="#00C48C"/>
    <path fill-rule="evenodd" clip-rule="evenodd" d="M144 233H145V231H147V211H145V207H144V211H142V231H144V233Z" fill="#EF6866"/>
    <path fill-rule="evenodd" clip-rule="evenodd" d="M151 233H152V228.154H154V179.692H152V170H151V179.692H149V228.154H151V233Z" fill="#00C48C"/>
    <path fill-rule="evenodd" clip-rule="evenodd" d="M159 215H158V185.385H156V180H161V185.385H159V215Z" fill="#EF6866"/>
    <path fill-rule="evenodd" clip-rule="evenodd" d="M168 195H163V185.571H165V184H166V185.571H168V195Z" fill="#EF6866"/>
    <path fill-rule="evenodd" clip-rule="evenodd" d="M172 227H173V219H175V195H173V187H172V195H170V219H172V227Z" fill="#EF6866"/>
    <path fill-rule="evenodd" clip-rule="evenodd" d="M179 224H180V219.4H182V205.6H180V201H179V205.6H177V219.4H179V224Z" fill="#00C48C"/>
    <path fill-rule="evenodd" clip-rule="evenodd" d="M186 241H187V219.4H189V154.6H187V133H186V154.6H184V219.4H186V241Z" fill="#00C48C"/>
    <path fill-rule="evenodd" clip-rule="evenodd" d="M194 159H193V153.571H191V121H196V153.571H194V159Z" fill="#00C48C"/>
    <path fill-rule="evenodd" clip-rule="evenodd" d="M201 123H200V120.571H198V106H203V120.571H201V123Z" fill="#00C48C"/>
    <path fill-rule="evenodd" clip-rule="evenodd" d="M208 178H207V117.077H205V106H210V117.077H208V178Z" fill="#EF6866"/>
    <path fill-rule="evenodd" clip-rule="evenodd" d="M215 136H214V119.923H212V117H217V119.923H215V136Z" fill="#EF6866"/>
    <path fill-rule="evenodd" clip-rule="evenodd" d="M224 160H219V123.143H221V117H222V123.143H224V160Z" fill="#EF6866"/>
    <path fill-rule="evenodd" clip-rule="evenodd" d="M231 160H226V139.429H228V136H229V139.429H231V160Z" fill="#00C48C"/>
    <path fill-rule="evenodd" clip-rule="evenodd" d="M238 139H233V157.857H235V161H236V157.857H238V139Z" fill="#EF6866"/>
    <path fill-rule="evenodd" clip-rule="evenodd" d="M245 120H240V158.571H242V165H243V158.571H245V120Z" fill="#00C48C"/>
    <path fill-rule="evenodd" clip-rule="evenodd" d="M252 120H247V136.286H249V139H250V136.286H252V120Z" fill="#EF6866"/>
    <rect x="254" y="136" width="5" height="90" fill="#00C48C"/>
    <path fill-rule="evenodd" clip-rule="evenodd" d="M264 161H263V216H261V226H266V216H264V161Z" fill="#00C48C"/>
    <path fill-rule="evenodd" clip-rule="evenodd" d="M273 216H268V259.714H270V267H271V259.714H273V216Z" fill="#EF6866"/>
    <path fill-rule="evenodd" clip-rule="evenodd" d="M277 230H278V237.4H280V259.6H278V267H277V259.6H275V237.4H277V230Z" fill="#00C48C"/>
    <path fill-rule="evenodd" clip-rule="evenodd" d="M284 200H285V209H287V236H285V245H284V236H282V209H284V200Z" fill="#00C48C"/>
    <path fill-rule="evenodd" clip-rule="evenodd" d="M291 194H292V197.4H294V207.6H292V211H291V207.6H289V197.4H291V194Z" fill="#00C48C"/>
    <path fill-rule="evenodd" clip-rule="evenodd" d="M298 181H299V185H301V197H299V201H298V197H296V185H298V181Z" fill="#00C48C"/>
    <path fill-rule="evenodd" clip-rule="evenodd" d="M305 152H306V159.4H308V181.6H306V189H305V181.6H303V159.4H305V152Z" fill="#00C48C"/>
    <path fill-rule="evenodd" clip-rule="evenodd" d="M312 154H313V163H315V190H313V199H312V190H310V163H312V154Z" fill="#EF6866"/>
    <path fill-rule="evenodd" clip-rule="evenodd" d="M322 189H317V205.286H319V208H320V205.286H322V189Z" fill="#EF6866"/>
    <path fill-rule="evenodd" clip-rule="evenodd" d="M329 182H324V205.143H326V209H327V205.143H329V182Z" fill="#00C48C"/>
    <path fill-rule="evenodd" clip-rule="evenodd" d="M333 157H334V163.4H336V182.6H334V189H333V182.6H331V163.4H333V157Z" fill="#00C48C"/>
    <path fill-rule="evenodd" clip-rule="evenodd" d="M340 138H341V144.4H343V163.6H341V170H340V163.6H338V144.4H340V138Z" fill="#00C48C"/>
    <path fill-rule="evenodd" clip-rule="evenodd" d="M110 97H109V156.231H107V167H112V156.231H110V97Z" fill="#00C48C"/>
</svg>