<svg width="20" height="20" viewBox="0 0 20 20" fill="none" xmlns="http://www.w3.org/2000/svg">
    <path fill-rule="evenodd" clip-rule="evenodd" d="M11.0417 5.13885C12.0005 5.13885 12.7778 4.36156 12.7778 3.40274C12.7778 2.44391 12.0005 1.66663 11.0417 1.66663C10.0829 1.66663 9.30557 2.44391 9.30557 3.40274C9.30557 4.36156 10.0829 5.13885 11.0417 5.13885ZM13.125 6.52774H7.65072C6.90697 5.25968 5.6521 5.06316 5.0403 5.14579L4.24863 5.25899L4.96252 7.70968C4.4271 8.14927 3.98544 8.68954 3.66113 9.30552H1.66669V14.1666H3.65697C4.49933 15.7659 6.10766 16.8007 7.91669 16.9208V18.3333H9.30558V16.9444H12.0834V18.3333H13.4722V16.927C16.182 16.7472 18.3334 14.4909 18.3334 11.7361C18.3334 8.86385 15.9972 6.52774 13.125 6.52774ZM13.4722 10.6944H8.61114V9.30551H13.4722V10.6944Z" fill="white" />
</svg>
    