<svg width="20" height="20" viewBox="0 0 20 20" fill="none" xmlns="http://www.w3.org/2000/svg">
    <path fill-rule="evenodd" clip-rule="evenodd" d="M15.4545 7.223V8.61206C15.4884 9.46845 15.8705 10.2719 16.5093 10.8297C17.0771 11.3226 17.4328 12.0224 17.5 12.7793C17.5 14.5156 14.6964 15.5574 10 15.5574C5.30364 15.5574 2.5 14.5156 2.5 12.7793C2.56722 12.0224 2.92286 11.3226 3.49068 10.8297C4.12947 10.2719 4.51161 9.46845 4.54545 8.61206V7.223C4.54545 4.15437 6.98754 1.66675 10 1.66675C13.0125 1.66675 15.4545 4.15437 15.4545 7.223ZM10 18.3334C9.10841 18.3334 8.32012 17.7436 8.05341 16.877C8.66296 16.9242 9.31068 16.9464 10 16.9464C10.6893 16.9464 11.337 16.9228 11.9466 16.877C11.6799 17.7436 10.8916 18.3334 10 18.3334Z" fill="white" />
</svg>
    