<svg width="20" height="20" viewBox="0 0 20 20" fill="none" xmlns="http://www.w3.org/2000/svg">
    <path fill-rule="evenodd" clip-rule="evenodd" d="M13.6309 4.25609L15.7433 6.36859L17.971 4.14011C18.2016 4.65817 18.3328 5.2297 18.3328 5.83317C18.3328 8.13456 16.4676 9.99984 14.1663 9.99984C13.7538 9.99984 13.3566 9.93803 12.9802 9.82623L6.91794 17.3186C6.34852 17.9637 5.52771 18.3332 4.66733 18.3332C3.86596 18.3332 3.11252 18.0214 2.54587 17.454C1.96256 16.8714 1.64243 16.0637 1.66812 15.2387C1.69312 14.4144 2.06255 13.6283 2.68128 13.0818L7.88726 8.86918L5.34231 6.32414L4.44443 7.22206L1.66674 4.44428L4.44443 1.6665L7.22211 4.44428L6.32422 5.3422L8.97275 7.99082L10.1734 7.01928C10.0616 6.64289 9.99978 6.24567 9.99978 5.83317C9.99978 3.53178 11.865 1.6665 14.1663 1.6665C14.7698 1.6665 15.3413 1.79775 15.8586 2.02831L13.6309 4.25609ZM14.8191 11.3471C14.6045 11.3721 14.3871 11.3887 14.1663 11.3887C13.9545 11.3887 13.7441 11.3762 13.533 11.3519L11.0046 14.4762L14.142 17.6137C15.101 18.5728 16.6551 18.5728 17.6141 17.6137C18.5731 16.6547 18.5731 15.1005 17.6141 14.1415L14.8191 11.3471Z" fill="white" />
</svg>
    