<svg width="20" height="20" viewBox="0 0 20 20" fill="none" xmlns="http://www.w3.org/2000/svg">
    <path fill-rule="evenodd" clip-rule="evenodd" d="M14.8611 4.03751L10.491 8.40764C10.2195 8.67917 9.78057 8.67917 9.50905 8.40764L7.22224 6.12084L4.24099 9.10209L3.25904 8.12014L6.73127 4.64792C7.00279 4.37639 7.44168 4.37639 7.71321 4.64792L10 6.93473L13.8792 3.05556H11.3889V1.66667H15.5556C15.9389 1.66667 16.25 1.97778 16.25 2.36112V6.52778H14.8611V4.03751ZM17.6389 7.91667H14.8611C14.4778 7.91667 14.1667 8.22778 14.1667 8.61112V17.6389C14.1667 18.0222 14.4778 18.3333 14.8611 18.3333H17.6389C18.0222 18.3333 18.3334 18.0222 18.3334 17.6389V8.61112C18.3334 8.22778 18.0222 7.91667 17.6389 7.91667ZM8.61113 10.6944H11.3889C11.7722 10.6944 12.0834 11.0056 12.0834 11.3889V17.6389C12.0834 18.0222 11.7722 18.3333 11.3889 18.3333H8.61113C8.2278 18.3333 7.91669 18.0222 7.91669 17.6389V11.3889C7.91669 11.0056 8.2278 10.6944 8.61113 10.6944ZM2.36113 13.4722H5.13891C5.52224 13.4722 5.83335 13.7833 5.83335 14.1667V17.6389C5.83335 18.0222 5.52224 18.3333 5.13891 18.3333H2.36113C1.9778 18.3333 1.66669 18.0222 1.66669 17.6389V14.1667C1.66669 13.7833 1.9778 13.4722 2.36113 13.4722Z" fill="white" />
</svg>
    