<svg width="20" height="20" viewBox="0 0 20 20" fill="none" xmlns="http://www.w3.org/2000/svg">
    <path fill-rule="evenodd" clip-rule="evenodd" d="M15.4545 9.30647C15.4545 10.0833 15.7065 10.6022 16.3067 11.2952C16.3487 11.3437 16.3926 11.3935 16.4495 11.4575L16.596 11.622C16.7201 11.762 16.8073 11.8639 16.8907 11.9682C17.2902 12.468 17.5 12.9216 17.5 13.4737C17.5 15.2898 14.4471 16.2518 10 16.2518C5.55287 16.2518 2.5 15.2898 2.5 13.4737C2.5 12.9216 2.70984 12.468 3.10927 11.9682C3.19266 11.8639 3.27993 11.762 3.40403 11.622L3.55052 11.4575C3.60743 11.3935 3.65125 11.3437 3.69329 11.2952C4.29353 10.6022 4.54545 10.0833 4.54545 9.30647V7.22288C4.54545 4.15424 6.98754 1.66663 10 1.66663C13.0125 1.66663 15.4545 4.15424 15.4545 7.22288V9.30647ZM14.0909 9.30647V7.22288C14.0909 4.9214 12.2593 3.05569 9.99999 3.05569C7.74064 3.05569 5.90908 4.9214 5.90908 7.22288V9.30647C5.90908 10.4801 5.51541 11.2911 4.71579 12.2142C4.75034 12.1743 4.26964 12.7164 4.16678 12.8452C3.94685 13.1203 3.86363 13.3002 3.86363 13.4737C3.86363 14.0839 6.33507 14.8627 9.99999 14.8627C13.6649 14.8627 16.1364 14.0839 16.1364 13.4737C16.1364 13.3002 16.0531 13.1203 15.8332 12.8452C15.7303 12.7164 15.2496 12.1743 15.2842 12.2142C14.4846 11.2911 14.0909 10.4801 14.0909 9.30647ZM8.05341 16.8769C8.66296 16.9227 9.31068 16.9463 10 16.9463C10.6893 16.9463 11.337 16.9227 11.9466 16.8769C11.6799 17.7435 10.8916 18.3333 10 18.3333C9.10841 18.3333 8.32012 17.7435 8.05341 16.8769Z" fill="#A9A9E2" />
</svg>
    