<svg width="18" height="18" viewBox="0 0 18 18" fill="none" xmlns="http://www.w3.org/2000/svg">
    <path fill-rule="evenodd" clip-rule="evenodd" d="M3.24106 8.10212C2.96986 8.37331 2.53017 8.37331 2.25897 8.10212C1.98777 7.83092 1.98777 7.39122 2.25897 7.12002L5.73119 3.6478C6.00239 3.3766 6.44209 3.3766 6.71328 3.6478L9.00001 5.93453L12.879 2.05551H11.0833C10.6998 2.05551 10.3889 1.7446 10.3889 1.36107C10.3889 0.977539 10.6998 0.666626 11.0833 0.666626H14.5555C14.5555 0.666626 14.5555 0.666626 14.5556 0.666626C14.6493 0.666626 14.7387 0.685207 14.8203 0.718887C14.9026 0.75278 14.9797 0.803159 15.0466 0.870024C15.1784 1.00179 15.2461 1.17334 15.2499 1.34601C15.25 1.35161 15.25 1.35721 15.25 1.3628V4.83329C15.25 5.21682 14.9391 5.52774 14.5556 5.52774C14.172 5.52774 13.8611 5.21682 13.8611 4.83329V3.03761L9.49106 7.40767C9.21986 7.67887 8.78016 7.67887 8.50897 7.40767L6.22224 5.12094L3.24106 8.10212ZM13.8611 6.91663H16.6389C17.0224 6.91663 17.3334 7.22754 17.3334 7.61107V16.6389C17.3334 17.0224 17.0224 17.3333 16.6389 17.3333H13.8611C13.4776 17.3333 13.1667 17.0224 13.1667 16.6389V7.61107C13.1667 7.22754 13.4776 6.91663 13.8611 6.91663ZM14.5556 8.30551V15.9444H15.9445V8.30551H14.5556ZM10.3889 9.69441H7.61113C7.2276 9.69441 6.91669 10.0053 6.91669 10.3889V16.6389C6.91669 17.0224 7.2276 17.3333 7.61113 17.3333H10.3889C10.7724 17.3333 11.0834 17.0224 11.0834 16.6389V10.3889C11.0834 10.0053 10.7724 9.69441 10.3889 9.69441ZM8.30557 15.9444V11.0833H9.69446V15.9444H8.30557ZM4.13891 12.4722H1.36113C0.9776 12.4722 0.666687 12.7831 0.666687 13.1666V16.6388C0.666687 17.0224 0.9776 17.3333 1.36113 17.3333H4.13891C4.52244 17.3333 4.83335 17.0224 4.83335 16.6388V13.1666C4.83335 12.7831 4.52244 12.4722 4.13891 12.4722ZM2.05557 15.9444V13.8611H3.44446V15.9444H2.05557Z" fill="#A9A9E2" />
</svg>
    