<svg width="728" height="318" viewBox="0 0 728 318" fill="none" xmlns="http://www.w3.org/2000/svg">
    <mask id="mask0" mask-type="alpha" maskUnits="userSpaceOnUse" x="2" y="9" width="684" height="288">
        <path fill-rule="evenodd" clip-rule="evenodd" d="M2 9H686V297H2V9Z" fill="white" />
    </mask>
    <g mask="url(#mask0)">
        <rect x="2.25" y="9.25" width="75.5" height="35.5" stroke="#33394D" stroke-width="0.5" />
        <rect x="2.25" y="45.25" width="75.5" height="35.5" stroke="#33394D" stroke-width="0.5" />
        <rect x="2.25" y="81.25" width="75.5" height="35.5" stroke="#33394D" stroke-width="0.5" />
        <rect x="2.25" y="117.25" width="75.5" height="35.5" stroke="#33394D" stroke-width="0.5" />
        <rect x="2.25" y="153.25" width="75.5" height="35.5" stroke="#33394D" stroke-width="0.5" />
        <rect x="2.25" y="189.25" width="75.5" height="35.5" stroke="#33394D" stroke-width="0.5" />
        <rect x="2.25" y="225.25" width="75.5" height="35.5" stroke="#33394D" stroke-width="0.5" />
        <rect x="2.25" y="261.25" width="75.5" height="35.5" stroke="#33394D" stroke-width="0.5" />
        <rect x="78.25" y="9.25" width="75.5" height="35.5" stroke="#33394D" stroke-width="0.5" />
        <rect x="78.25" y="45.25" width="75.5" height="35.5" stroke="#33394D" stroke-width="0.5" />
        <rect x="78.25" y="81.25" width="75.5" height="35.5" stroke="#33394D" stroke-width="0.5" />
        <rect x="78.25" y="117.25" width="75.5" height="35.5" stroke="#33394D" stroke-width="0.5" />
        <rect x="78.25" y="153.25" width="75.5" height="35.5" stroke="#33394D" stroke-width="0.5" />
        <rect x="78.25" y="189.25" width="75.5" height="35.5" stroke="#33394D" stroke-width="0.5" />
        <rect x="78.25" y="225.25" width="75.5" height="35.5" stroke="#33394D" stroke-width="0.5" />
        <rect x="78.25" y="261.25" width="75.5" height="35.5" stroke="#33394D" stroke-width="0.5" />
        <rect x="154.25" y="9.25" width="75.5" height="35.5" stroke="#33394D" stroke-width="0.5" />
        <rect x="154.25" y="45.25" width="75.5" height="35.5" stroke="#33394D" stroke-width="0.5" />
        <rect x="154.25" y="81.25" width="75.5" height="35.5" stroke="#33394D" stroke-width="0.5" />
        <rect x="154.25" y="117.25" width="75.5" height="35.5" stroke="#33394D" stroke-width="0.5" />
        <rect x="154.25" y="153.25" width="75.5" height="35.5" stroke="#33394D" stroke-width="0.5" />
        <rect x="154.25" y="189.25" width="75.5" height="35.5" stroke="#33394D" stroke-width="0.5" />
        <rect x="154.25" y="225.25" width="75.5" height="35.5" stroke="#33394D" stroke-width="0.5" />
        <rect x="154.25" y="261.25" width="75.5" height="35.5" stroke="#33394D" stroke-width="0.5" />
        <rect x="230.25" y="9.25" width="75.5" height="35.5" stroke="#33394D" stroke-width="0.5" />
        <rect x="230.25" y="45.25" width="75.5" height="35.5" stroke="#33394D" stroke-width="0.5" />
        <rect x="230.25" y="81.25" width="75.5" height="35.5" stroke="#33394D" stroke-width="0.5" />
        <rect x="230.25" y="117.25" width="75.5" height="35.5" stroke="#33394D" stroke-width="0.5" />
        <rect x="230.25" y="153.25" width="75.5" height="35.5" stroke="#33394D" stroke-width="0.5" />
        <rect x="230.25" y="189.25" width="75.5" height="35.5" stroke="#33394D" stroke-width="0.5" />
        <rect x="230.25" y="225.25" width="75.5" height="35.5" stroke="#33394D" stroke-width="0.5" />
        <rect x="230.25" y="261.25" width="75.5" height="35.5" stroke="#33394D" stroke-width="0.5" />
        <rect x="306.25" y="9.25" width="75.5" height="35.5" stroke="#33394D" stroke-width="0.5" />
        <rect x="306.25" y="45.25" width="75.5" height="35.5" stroke="#33394D" stroke-width="0.5" />
        <rect x="306.25" y="81.25" width="75.5" height="35.5" stroke="#33394D" stroke-width="0.5" />
        <rect x="306.25" y="117.25" width="75.5" height="35.5" stroke="#33394D" stroke-width="0.5" />
        <rect x="306.25" y="153.25" width="75.5" height="35.5" stroke="#33394D" stroke-width="0.5" />
        <rect x="306.25" y="189.25" width="75.5" height="35.5" stroke="#33394D" stroke-width="0.5" />
        <rect x="306.25" y="225.25" width="75.5" height="35.5" stroke="#33394D" stroke-width="0.5" />
        <rect x="306.25" y="261.25" width="75.5" height="35.5" stroke="#33394D" stroke-width="0.5" />
        <rect x="382.25" y="9.25" width="75.5" height="35.5" stroke="#33394D" stroke-width="0.5" />
        <rect x="382.25" y="45.25" width="75.5" height="35.5" stroke="#33394D" stroke-width="0.5" />
        <rect x="382.25" y="81.25" width="75.5" height="35.5" stroke="#33394D" stroke-width="0.5" />
        <rect x="382.25" y="117.25" width="75.5" height="35.5" stroke="#33394D" stroke-width="0.5" />
        <rect x="382.25" y="153.25" width="75.5" height="35.5" stroke="#33394D" stroke-width="0.5" />
        <rect x="382.25" y="189.25" width="75.5" height="35.5" stroke="#33394D" stroke-width="0.5" />
        <rect x="382.25" y="225.25" width="75.5" height="35.5" stroke="#33394D" stroke-width="0.5" />
        <rect x="382.25" y="261.25" width="75.5" height="35.5" stroke="#33394D" stroke-width="0.5" />
        <rect x="458.25" y="9.25" width="75.5" height="35.5" stroke="#33394D" stroke-width="0.5" />
        <rect x="458.25" y="45.25" width="75.5" height="35.5" stroke="#33394D" stroke-width="0.5" />
        <rect x="458.25" y="81.25" width="75.5" height="35.5" stroke="#33394D" stroke-width="0.5" />
        <rect x="458.25" y="117.25" width="75.5" height="35.5" stroke="#33394D" stroke-width="0.5" />
        <rect x="458.25" y="153.25" width="75.5" height="35.5" stroke="#33394D" stroke-width="0.5" />
        <rect x="458.25" y="189.25" width="75.5" height="35.5" stroke="#33394D" stroke-width="0.5" />
        <rect x="458.25" y="225.25" width="75.5" height="35.5" stroke="#33394D" stroke-width="0.5" />
        <rect x="458.25" y="261.25" width="75.5" height="35.5" stroke="#33394D" stroke-width="0.5" />
        <rect x="534.25" y="9.25" width="75.5" height="35.5" stroke="#33394D" stroke-width="0.5" />
        <rect x="534.25" y="45.25" width="75.5" height="35.5" stroke="#33394D" stroke-width="0.5" />
        <rect x="534.25" y="81.25" width="75.5" height="35.5" stroke="#33394D" stroke-width="0.5" />
        <rect x="534.25" y="117.25" width="75.5" height="35.5" stroke="#33394D" stroke-width="0.5" />
        <rect x="534.25" y="153.25" width="75.5" height="35.5" stroke="#33394D" stroke-width="0.5" />
        <rect x="534.25" y="189.25" width="75.5" height="35.5" stroke="#33394D" stroke-width="0.5" />
        <rect x="534.25" y="225.25" width="75.5" height="35.5" stroke="#33394D" stroke-width="0.5" />
        <rect x="534.25" y="261.25" width="75.5" height="35.5" stroke="#33394D" stroke-width="0.5" />
        <rect x="610.25" y="9.25" width="75.5" height="35.5" stroke="#33394D" stroke-width="0.5" />
        <rect x="610.25" y="45.25" width="75.5" height="35.5" stroke="#33394D" stroke-width="0.5" />
        <rect x="610.25" y="81.25" width="75.5" height="35.5" stroke="#33394D" stroke-width="0.5" />
        <rect x="610.25" y="117.25" width="75.5" height="35.5" stroke="#33394D" stroke-width="0.5" />
        <rect x="610.25" y="153.25" width="75.5" height="35.5" stroke="#33394D" stroke-width="0.5" />
        <rect x="610.25" y="189.25" width="75.5" height="35.5" stroke="#33394D" stroke-width="0.5" />
        <rect x="610.25" y="225.25" width="75.5" height="35.5" stroke="#33394D" stroke-width="0.5" />
        <rect x="610.25" y="261.25" width="75.5" height="35.5" stroke="#33394D" stroke-width="0.5" />
    </g>
    <path d="M3 229.779C3 229.779 20.9305 168.388 49.9464 168.388C78.9623 168.388 86.6774 139.424 123.01 162.12C159.343 184.815 151.727 125.551 180.058 125.551C208.389 125.551 209.245 177.665 239.202 177.665C269.16 177.665 257.752 208.35 308.296 208.35C358.839 208.35 332.741 178.43 374.068 171.695C415.395 164.96 393.797 120.408 436.666 100.963C479.535 81.5172 473.105 41.4234 509.438 52.7231C545.77 64.0227 526.233 84.521 564.604 47.7174C602.975 10.9138 657.67 15.9351 685.4 32.3698" stroke="#641BFF" stroke-width="0.5" />
    <path d="M3 229.779C3 229.779 20.9305 168.388 49.9464 168.388C78.9623 168.388 86.6774 139.424 123.01 162.12C159.343 184.815 151.727 125.551 180.058 125.551C208.389 125.551 209.245 177.665 239.202 177.665C269.16 177.665 257.752 208.35 308.296 208.35C358.839 208.35 332.741 178.43 374.068 171.695C415.395 164.96 393.797 120.408 436.666 100.963C479.535 81.5172 473.105 41.4234 509.438 52.7231C545.77 64.0227 526.233 84.521 564.604 47.7174C602.975 10.9138 657.813 15.2907 685.543 31.7254C685.543 84.8284 685.543 288.083 685.543 288.083H3V229.779Z" fill="url(#paint0_linear)" />
    <path d="M3 231.779C3 231.779 20.9305 170.388 49.9464 170.388C78.9623 170.388 86.6774 141.424 123.01 164.12C159.343 186.815 151.727 127.551 180.058 127.551C208.389 127.551 209.245 179.665 239.202 179.665C269.16 179.665 257.752 210.35 308.296 210.35C358.839 210.35 332.741 180.43 374.068 173.695C415.395 166.96 393.797 122.408 436.666 102.963C479.535 83.5172 473.105 43.4234 509.438 54.7231C545.77 66.0227 526.233 86.521 564.604 49.7174C602.975 12.9138 657.67 17.9351 685.4 34.3698" stroke="#57607E" stroke-width="0.5" />
    <path d="M3 233.779C3 233.779 20.9305 172.388 49.9464 172.388C78.9623 172.388 86.6774 143.424 123.01 166.12C159.343 188.815 151.727 129.551 180.058 129.551C208.389 129.551 209.245 181.665 239.202 181.665C269.16 181.665 257.752 212.35 308.296 212.35C358.839 212.35 332.741 182.43 374.068 175.695C415.395 168.96 393.797 124.408 436.666 104.963C479.535 85.5172 473.105 45.4234 509.438 56.7231C545.77 68.0227 526.233 88.521 564.604 51.7174C602.975 14.9138 657.67 19.9351 685.4 36.3698" stroke="#747A90" stroke-width="0.5" />
    <path d="M1.21 311C1.13667 311 1.07433 310.978 1.023 310.934C0.979 310.883 0.957 310.82 0.957 310.747V303.564C0.957 303.483 0.979 303.421 1.023 303.377C1.07433 303.326 1.13667 303.3 1.21 303.3H1.716C1.848 303.3 1.93967 303.351 1.991 303.454L5.643 309.064V303.564C5.643 303.483 5.665 303.421 5.709 303.377C5.76033 303.326 5.82267 303.3 5.896 303.3H6.424C6.50467 303.3 6.567 303.326 6.611 303.377C6.66233 303.421 6.688 303.483 6.688 303.564V310.736C6.688 310.809 6.66233 310.872 6.611 310.923C6.567 310.974 6.50833 311 6.435 311H5.907C5.797 311 5.709 310.949 5.643 310.846L2.002 305.291V310.747C2.002 310.82 1.97633 310.883 1.925 310.934C1.87367 310.978 1.81133 311 1.738 311H1.21ZM10.8054 311.11C9.99877 311.11 9.37177 310.883 8.92444 310.428C8.48444 309.973 8.24977 309.368 8.22044 308.613L8.20944 308.14L8.22044 307.667C8.24977 306.919 8.4881 306.318 8.93544 305.863C9.38277 305.401 10.0061 305.17 10.8054 305.17C11.6048 305.17 12.2281 305.401 12.6754 305.863C13.1228 306.318 13.3611 306.919 13.3904 307.667C13.3978 307.748 13.4014 307.905 13.4014 308.14C13.4014 308.375 13.3978 308.532 13.3904 308.613C13.3611 309.368 13.1228 309.973 12.6754 310.428C12.2354 310.883 11.6121 311.11 10.8054 311.11ZM10.8054 310.263C11.2674 310.263 11.6304 310.116 11.8944 309.823C12.1658 309.53 12.3124 309.108 12.3344 308.558C12.3418 308.485 12.3454 308.345 12.3454 308.14C12.3454 307.935 12.3418 307.795 12.3344 307.722C12.3124 307.172 12.1658 306.75 11.8944 306.457C11.6304 306.164 11.2674 306.017 10.8054 306.017C10.3434 306.017 9.97677 306.164 9.70544 306.457C9.4341 306.75 9.2911 307.172 9.27644 307.722L9.26544 308.14L9.27644 308.558C9.2911 309.108 9.4341 309.53 9.70544 309.823C9.97677 310.116 10.3434 310.263 10.8054 310.263ZM16.5657 311C16.3751 311 16.2394 310.908 16.1587 310.725L14.1237 305.621L14.1017 305.511C14.1017 305.445 14.1237 305.39 14.1677 305.346C14.2117 305.302 14.2667 305.28 14.3327 305.28H14.8607C14.9854 305.28 15.0771 305.342 15.1357 305.467L16.8077 309.801L18.4797 305.467C18.5457 305.342 18.6337 305.28 18.7437 305.28H19.2827C19.3414 305.28 19.3927 305.302 19.4367 305.346C19.4881 305.39 19.5137 305.445 19.5137 305.511L19.4917 305.621L17.4457 310.725C17.3651 310.908 17.2294 311 17.0387 311H16.5657Z" fill="#9FA3C6" />
    <path d="M69.21 311C69.1367 311 69.0743 310.978 69.023 310.934C68.979 310.883 68.957 310.82 68.957 310.747V303.564C68.957 303.483 68.979 303.421 69.023 303.377C69.0743 303.326 69.1367 303.3 69.21 303.3H71.707C72.8143 303.3 73.6137 303.549 74.105 304.048C74.5963 304.539 74.853 305.284 74.875 306.281C74.8823 306.494 74.886 306.78 74.886 307.139C74.886 307.498 74.8823 307.788 74.875 308.008C74.853 308.705 74.7357 309.273 74.523 309.713C74.3177 310.146 73.9913 310.468 73.544 310.681C73.0967 310.894 72.5027 311 71.762 311H69.21ZM71.707 310.065C72.213 310.065 72.6127 309.995 72.906 309.856C73.2067 309.717 73.423 309.497 73.555 309.196C73.6943 308.888 73.7713 308.477 73.786 307.964C73.8007 307.524 73.808 307.249 73.808 307.139C73.808 307.022 73.8007 306.75 73.786 306.325C73.7713 305.599 73.599 305.071 73.269 304.741C72.939 304.404 72.4 304.235 71.652 304.235H70.035V310.065H71.707ZM78.686 311.11C77.9307 311.11 77.3257 310.879 76.871 310.417C76.4237 309.948 76.178 309.31 76.134 308.503L76.123 308.129L76.134 307.766C76.1853 306.974 76.4347 306.343 76.882 305.874C77.3367 305.405 77.9343 305.17 78.675 305.17C79.489 305.17 80.1197 305.43 80.567 305.951C81.0143 306.464 81.238 307.161 81.238 308.041V308.228C81.238 308.301 81.2123 308.364 81.161 308.415C81.117 308.459 81.0583 308.481 80.985 308.481H77.179V308.58C77.201 309.057 77.344 309.464 77.608 309.801C77.8793 310.131 78.235 310.296 78.675 310.296C79.0123 310.296 79.2873 310.23 79.5 310.098C79.72 309.959 79.8813 309.816 79.984 309.669C80.05 309.581 80.0977 309.53 80.127 309.515C80.1637 309.493 80.226 309.482 80.314 309.482H80.853C80.919 309.482 80.974 309.5 81.018 309.537C81.062 309.574 81.084 309.625 81.084 309.691C81.084 309.852 80.9813 310.047 80.776 310.274C80.578 310.501 80.2957 310.699 79.929 310.868C79.5697 311.029 79.1553 311.11 78.686 311.11ZM80.193 307.722V307.689C80.193 307.183 80.0537 306.772 79.775 306.457C79.5037 306.134 79.137 305.973 78.675 305.973C78.213 305.973 77.8463 306.134 77.575 306.457C77.311 306.772 77.179 307.183 77.179 307.689V307.722H80.193ZM84.8633 311.11C84.0786 311.11 83.4626 310.89 83.0153 310.45C82.5753 310.003 82.3406 309.379 82.3113 308.58L82.3003 308.14L82.3113 307.7C82.3406 306.901 82.5753 306.281 83.0153 305.841C83.4626 305.394 84.0786 305.17 84.8633 305.17C85.3913 305.17 85.8386 305.265 86.2053 305.456C86.5719 305.647 86.8433 305.881 87.0193 306.16C87.2026 306.439 87.3016 306.717 87.3163 306.996C87.3236 307.069 87.3016 307.128 87.2503 307.172C87.1989 307.216 87.1366 307.238 87.0633 307.238H86.5353C86.4619 307.238 86.4069 307.223 86.3703 307.194C86.3336 307.165 86.2969 307.106 86.2603 307.018C86.1356 306.666 85.9596 306.417 85.7323 306.27C85.5049 306.116 85.2189 306.039 84.8743 306.039C84.4196 306.039 84.0566 306.182 83.7853 306.468C83.5213 306.747 83.3783 307.176 83.3563 307.755L83.3453 308.151L83.3563 308.525C83.3783 309.112 83.5213 309.544 83.7853 309.823C84.0493 310.102 84.4123 310.241 84.8743 310.241C85.2189 310.241 85.5049 310.168 85.7323 310.021C85.9596 309.867 86.1356 309.614 86.2603 309.262C86.2969 309.174 86.3336 309.115 86.3703 309.086C86.4069 309.049 86.4619 309.031 86.5353 309.031H87.0633C87.1366 309.031 87.1989 309.057 87.2503 309.108C87.3016 309.152 87.3236 309.211 87.3163 309.284C87.3016 309.555 87.2026 309.834 87.0193 310.12C86.8433 310.399 86.5719 310.633 86.2053 310.824C85.8459 311.015 85.3986 311.11 84.8633 311.11Z" fill="#9FA3C6" />
    <path d="M149.245 311.11C148.446 311.11 147.782 310.912 147.254 310.516C146.726 310.12 146.447 309.541 146.418 308.778C146.418 308.712 146.44 308.657 146.484 308.613C146.528 308.562 146.587 308.536 146.66 308.536H147.254C147.408 308.536 147.503 308.62 147.54 308.789C147.584 309.258 147.764 309.607 148.079 309.834C148.394 310.061 148.79 310.175 149.267 310.175C149.817 310.175 150.239 309.995 150.532 309.636C150.833 309.269 150.983 308.778 150.983 308.162V304.257H147.078C147.005 304.257 146.942 304.235 146.891 304.191C146.847 304.14 146.825 304.077 146.825 304.004V303.553C146.825 303.48 146.847 303.421 146.891 303.377C146.942 303.326 147.005 303.3 147.078 303.3H151.819C151.9 303.3 151.962 303.326 152.006 303.377C152.057 303.421 152.083 303.483 152.083 303.564V308.184C152.083 309.079 151.83 309.79 151.324 310.318C150.825 310.846 150.132 311.11 149.245 311.11ZM155.338 311.11C154.978 311.11 154.645 311.037 154.337 310.89C154.029 310.743 153.783 310.545 153.6 310.296C153.424 310.039 153.336 309.757 153.336 309.449C153.336 308.965 153.534 308.569 153.93 308.261C154.333 307.946 154.876 307.74 155.558 307.645L157.197 307.414V307.095C157.197 306.347 156.768 305.973 155.91 305.973C155.587 305.973 155.323 306.043 155.118 306.182C154.912 306.314 154.758 306.472 154.656 306.655C154.634 306.721 154.604 306.769 154.568 306.798C154.538 306.827 154.494 306.842 154.436 306.842H153.963C153.897 306.842 153.838 306.82 153.787 306.776C153.743 306.725 153.721 306.666 153.721 306.6C153.728 306.424 153.809 306.226 153.963 306.006C154.124 305.779 154.37 305.584 154.7 305.423C155.03 305.254 155.437 305.17 155.921 305.17C156.742 305.17 157.332 305.364 157.692 305.753C158.051 306.134 158.231 306.611 158.231 307.183V310.747C158.231 310.82 158.205 310.883 158.154 310.934C158.11 310.978 158.051 311 157.978 311H157.472C157.398 311 157.336 310.978 157.285 310.934C157.241 310.883 157.219 310.82 157.219 310.747V310.274C157.057 310.509 156.823 310.707 156.515 310.868C156.207 311.029 155.814 311.11 155.338 311.11ZM155.569 310.285C156.045 310.285 156.434 310.131 156.735 309.823C157.043 309.508 157.197 309.057 157.197 308.47V308.162L155.921 308.349C155.4 308.422 155.008 308.547 154.744 308.723C154.48 308.892 154.348 309.108 154.348 309.372C154.348 309.665 154.469 309.893 154.711 310.054C154.953 310.208 155.239 310.285 155.569 310.285ZM160.065 311C159.992 311 159.929 310.978 159.878 310.934C159.834 310.883 159.812 310.82 159.812 310.747V305.533C159.812 305.46 159.834 305.401 159.878 305.357C159.929 305.306 159.992 305.28 160.065 305.28H160.582C160.655 305.28 160.714 305.306 160.758 305.357C160.809 305.401 160.835 305.46 160.835 305.533V306.017C161.048 305.746 161.297 305.537 161.583 305.39C161.876 305.243 162.239 305.17 162.672 305.17C163.376 305.17 163.922 305.397 164.311 305.852C164.707 306.299 164.905 306.897 164.905 307.645V310.747C164.905 310.82 164.879 310.883 164.828 310.934C164.784 310.978 164.725 311 164.652 311H164.102C164.029 311 163.966 310.978 163.915 310.934C163.871 310.883 163.849 310.82 163.849 310.747V307.7C163.849 307.179 163.721 306.776 163.464 306.49C163.215 306.204 162.852 306.061 162.375 306.061C161.913 306.061 161.546 306.208 161.275 306.501C161.004 306.787 160.868 307.187 160.868 307.7V310.747C160.868 310.82 160.842 310.883 160.791 310.934C160.747 310.978 160.688 311 160.615 311H160.065Z" fill="#9FA3C6" />
    <path d="M222.21 311C222.137 311 222.074 310.978 222.023 310.934C221.979 310.883 221.957 310.82 221.957 310.747V303.564C221.957 303.483 221.979 303.421 222.023 303.377C222.074 303.326 222.137 303.3 222.21 303.3H226.698C226.779 303.3 226.841 303.326 226.885 303.377C226.936 303.421 226.962 303.483 226.962 303.564V304.004C226.962 304.077 226.936 304.14 226.885 304.191C226.841 304.235 226.779 304.257 226.698 304.257H223.024V306.82H226.478C226.559 306.82 226.621 306.846 226.665 306.897C226.716 306.941 226.742 307.003 226.742 307.084V307.524C226.742 307.597 226.716 307.66 226.665 307.711C226.614 307.755 226.551 307.777 226.478 307.777H223.024V310.747C223.024 310.82 222.998 310.883 222.947 310.934C222.896 310.978 222.833 311 222.76 311H222.21ZM230.408 311.11C229.652 311.11 229.047 310.879 228.593 310.417C228.145 309.948 227.9 309.31 227.856 308.503L227.845 308.129L227.856 307.766C227.907 306.974 228.156 306.343 228.604 305.874C229.058 305.405 229.656 305.17 230.397 305.17C231.211 305.17 231.841 305.43 232.289 305.951C232.736 306.464 232.96 307.161 232.96 308.041V308.228C232.96 308.301 232.934 308.364 232.883 308.415C232.839 308.459 232.78 308.481 232.707 308.481H228.901V308.58C228.923 309.057 229.066 309.464 229.33 309.801C229.601 310.131 229.957 310.296 230.397 310.296C230.734 310.296 231.009 310.23 231.222 310.098C231.442 309.959 231.603 309.816 231.706 309.669C231.772 309.581 231.819 309.53 231.849 309.515C231.885 309.493 231.948 309.482 232.036 309.482H232.575C232.641 309.482 232.696 309.5 232.74 309.537C232.784 309.574 232.806 309.625 232.806 309.691C232.806 309.852 232.703 310.047 232.498 310.274C232.3 310.501 232.017 310.699 231.651 310.868C231.291 311.029 230.877 311.11 230.408 311.11ZM231.915 307.722V307.689C231.915 307.183 231.775 306.772 231.497 306.457C231.225 306.134 230.859 305.973 230.397 305.973C229.935 305.973 229.568 306.134 229.297 306.457C229.033 306.772 228.901 307.183 228.901 307.689V307.722H231.915ZM237.102 311.11C236.31 311.11 235.709 310.835 235.298 310.285V310.747C235.298 310.82 235.272 310.883 235.221 310.934C235.177 310.978 235.118 311 235.045 311H234.539C234.466 311 234.403 310.978 234.352 310.934C234.308 310.883 234.286 310.82 234.286 310.747V303.443C234.286 303.37 234.308 303.311 234.352 303.267C234.403 303.216 234.466 303.19 234.539 303.19H235.078C235.151 303.19 235.21 303.216 235.254 303.267C235.298 303.311 235.32 303.37 235.32 303.443V305.973C235.753 305.438 236.347 305.17 237.102 305.17C237.865 305.17 238.44 305.423 238.829 305.929C239.218 306.428 239.427 307.055 239.456 307.81C239.463 307.891 239.467 308.001 239.467 308.14C239.467 308.279 239.463 308.389 239.456 308.47C239.427 309.233 239.218 309.863 238.829 310.362C238.44 310.861 237.865 311.11 237.102 311.11ZM236.871 310.219C237.392 310.219 237.769 310.058 238.004 309.735C238.246 309.412 238.378 308.987 238.4 308.459C238.407 308.386 238.411 308.279 238.411 308.14C238.411 306.754 237.898 306.061 236.871 306.061C236.38 306.061 236.002 306.222 235.738 306.545C235.474 306.868 235.335 307.245 235.32 307.678L235.309 308.107L235.32 308.525C235.342 308.987 235.478 309.387 235.727 309.724C235.984 310.054 236.365 310.219 236.871 310.219Z" fill="#9FA3C6" />
    <path d="M297.21 311C297.137 311 297.074 310.978 297.023 310.934C296.979 310.883 296.957 310.82 296.957 310.747V303.564C296.957 303.483 296.979 303.421 297.023 303.377C297.074 303.326 297.137 303.3 297.21 303.3H297.76C297.877 303.3 297.973 303.359 298.046 303.476L300.367 307.92L302.71 303.476C302.725 303.432 302.754 303.392 302.798 303.355C302.849 303.318 302.912 303.3 302.985 303.3H303.524C303.605 303.3 303.667 303.326 303.711 303.377C303.762 303.421 303.788 303.483 303.788 303.564V310.747C303.788 310.82 303.762 310.883 303.711 310.934C303.66 310.978 303.597 311 303.524 311H302.985C302.912 311 302.849 310.978 302.798 310.934C302.754 310.883 302.732 310.82 302.732 310.747V305.335L300.895 308.921C300.822 309.075 300.704 309.152 300.543 309.152H300.202C300.041 309.152 299.923 309.075 299.85 308.921L298.002 305.335V310.747C298.002 310.82 297.976 310.883 297.925 310.934C297.881 310.978 297.822 311 297.749 311H297.21ZM307.142 311.11C306.783 311.11 306.449 311.037 306.141 310.89C305.833 310.743 305.588 310.545 305.404 310.296C305.228 310.039 305.14 309.757 305.14 309.449C305.14 308.965 305.338 308.569 305.734 308.261C306.138 307.946 306.68 307.74 307.362 307.645L309.001 307.414V307.095C309.001 306.347 308.572 305.973 307.714 305.973C307.392 305.973 307.128 306.043 306.922 306.182C306.717 306.314 306.563 306.472 306.46 306.655C306.438 306.721 306.409 306.769 306.372 306.798C306.343 306.827 306.299 306.842 306.24 306.842H305.767C305.701 306.842 305.643 306.82 305.591 306.776C305.547 306.725 305.525 306.666 305.525 306.6C305.533 306.424 305.613 306.226 305.767 306.006C305.929 305.779 306.174 305.584 306.504 305.423C306.834 305.254 307.241 305.17 307.725 305.17C308.547 305.17 309.137 305.364 309.496 305.753C309.856 306.134 310.035 306.611 310.035 307.183V310.747C310.035 310.82 310.01 310.883 309.958 310.934C309.914 310.978 309.856 311 309.782 311H309.276C309.203 311 309.141 310.978 309.089 310.934C309.045 310.883 309.023 310.82 309.023 310.747V310.274C308.862 310.509 308.627 310.707 308.319 310.868C308.011 311.029 307.619 311.11 307.142 311.11ZM307.373 310.285C307.85 310.285 308.239 310.131 308.539 309.823C308.847 309.508 309.001 309.057 309.001 308.47V308.162L307.725 308.349C307.205 308.422 306.812 308.547 306.548 308.723C306.284 308.892 306.152 309.108 306.152 309.372C306.152 309.665 306.273 309.893 306.515 310.054C306.757 310.208 307.043 310.285 307.373 310.285ZM311.87 311C311.796 311 311.734 310.978 311.683 310.934C311.639 310.883 311.617 310.82 311.617 310.747V305.544C311.617 305.471 311.639 305.408 311.683 305.357C311.734 305.306 311.796 305.28 311.87 305.28H312.376C312.449 305.28 312.511 305.306 312.563 305.357C312.614 305.408 312.64 305.471 312.64 305.544V306.028C312.94 305.529 313.454 305.28 314.18 305.28H314.609C314.682 305.28 314.741 305.306 314.785 305.357C314.836 305.401 314.862 305.46 314.862 305.533V305.984C314.862 306.057 314.836 306.116 314.785 306.16C314.741 306.204 314.682 306.226 314.609 306.226H313.949C313.553 306.226 313.241 306.343 313.014 306.578C312.786 306.805 312.673 307.117 312.673 307.513V310.747C312.673 310.82 312.647 310.883 312.596 310.934C312.544 310.978 312.482 311 312.409 311H311.87Z" fill="#9FA3C6" />
    <path d="M371.44 311C371.381 311 371.33 310.978 371.286 310.934C371.242 310.89 371.22 310.839 371.22 310.78C371.22 310.721 371.224 310.681 371.231 310.659L373.959 303.542C374.018 303.381 374.135 303.3 374.311 303.3H375.059C375.235 303.3 375.352 303.381 375.411 303.542L378.128 310.659L378.15 310.78C378.15 310.839 378.128 310.89 378.084 310.934C378.04 310.978 377.989 311 377.93 311H377.369C377.288 311 377.226 310.982 377.182 310.945C377.138 310.901 377.109 310.857 377.094 310.813L376.489 309.251H372.881L372.276 310.813C372.261 310.857 372.228 310.901 372.177 310.945C372.133 310.982 372.074 311 372.001 311H371.44ZM376.17 308.305L374.685 304.4L373.2 308.305H376.17ZM379.447 313.09C379.374 313.09 379.311 313.064 379.26 313.013C379.216 312.969 379.194 312.91 379.194 312.837V305.533C379.194 305.46 379.216 305.401 379.26 305.357C379.311 305.306 379.374 305.28 379.447 305.28H379.953C380.026 305.28 380.085 305.306 380.129 305.357C380.18 305.401 380.206 305.46 380.206 305.533V306.017C380.617 305.452 381.218 305.17 382.01 305.17C382.78 305.17 383.356 305.412 383.737 305.896C384.126 306.38 384.335 307.003 384.364 307.766C384.371 307.847 384.375 307.971 384.375 308.14C384.375 308.309 384.371 308.433 384.364 308.514C384.335 309.269 384.126 309.893 383.737 310.384C383.348 310.868 382.773 311.11 382.01 311.11C381.247 311.11 380.653 310.835 380.228 310.285V312.837C380.228 312.91 380.206 312.969 380.162 313.013C380.118 313.064 380.059 313.09 379.986 313.09H379.447ZM381.779 310.219C382.3 310.219 382.677 310.058 382.912 309.735C383.154 309.412 383.286 308.987 383.308 308.459C383.315 308.386 383.319 308.279 383.319 308.14C383.319 306.754 382.806 306.061 381.779 306.061C381.273 306.061 380.892 306.23 380.635 306.567C380.386 306.897 380.25 307.293 380.228 307.755L380.217 308.173L380.228 308.602C380.243 309.035 380.382 309.412 380.646 309.735C380.91 310.058 381.288 310.219 381.779 310.219ZM385.989 311C385.916 311 385.853 310.978 385.802 310.934C385.758 310.883 385.736 310.82 385.736 310.747V305.544C385.736 305.471 385.758 305.408 385.802 305.357C385.853 305.306 385.916 305.28 385.989 305.28H386.495C386.568 305.28 386.631 305.306 386.682 305.357C386.733 305.408 386.759 305.471 386.759 305.544V306.028C387.06 305.529 387.573 305.28 388.299 305.28H388.728C388.801 305.28 388.86 305.306 388.904 305.357C388.955 305.401 388.981 305.46 388.981 305.533V305.984C388.981 306.057 388.955 306.116 388.904 306.16C388.86 306.204 388.801 306.226 388.728 306.226H388.068C387.672 306.226 387.36 306.343 387.133 306.578C386.906 306.805 386.792 307.117 386.792 307.513V310.747C386.792 310.82 386.766 310.883 386.715 310.934C386.664 310.978 386.601 311 386.528 311H385.989Z" fill="#9FA3C6" />
    <path d="M452.21 311C452.137 311 452.074 310.978 452.023 310.934C451.979 310.883 451.957 310.82 451.957 310.747V303.564C451.957 303.483 451.979 303.421 452.023 303.377C452.074 303.326 452.137 303.3 452.21 303.3H452.76C452.877 303.3 452.973 303.359 453.046 303.476L455.367 307.92L457.71 303.476C457.725 303.432 457.754 303.392 457.798 303.355C457.849 303.318 457.912 303.3 457.985 303.3H458.524C458.605 303.3 458.667 303.326 458.711 303.377C458.762 303.421 458.788 303.483 458.788 303.564V310.747C458.788 310.82 458.762 310.883 458.711 310.934C458.66 310.978 458.597 311 458.524 311H457.985C457.912 311 457.849 310.978 457.798 310.934C457.754 310.883 457.732 310.82 457.732 310.747V305.335L455.895 308.921C455.822 309.075 455.704 309.152 455.543 309.152H455.202C455.041 309.152 454.923 309.075 454.85 308.921L453.002 305.335V310.747C453.002 310.82 452.976 310.883 452.925 310.934C452.881 310.978 452.822 311 452.749 311H452.21ZM462.142 311.11C461.783 311.11 461.449 311.037 461.141 310.89C460.833 310.743 460.588 310.545 460.404 310.296C460.228 310.039 460.14 309.757 460.14 309.449C460.14 308.965 460.338 308.569 460.734 308.261C461.138 307.946 461.68 307.74 462.362 307.645L464.001 307.414V307.095C464.001 306.347 463.572 305.973 462.714 305.973C462.392 305.973 462.128 306.043 461.922 306.182C461.717 306.314 461.563 306.472 461.46 306.655C461.438 306.721 461.409 306.769 461.372 306.798C461.343 306.827 461.299 306.842 461.24 306.842H460.767C460.701 306.842 460.643 306.82 460.591 306.776C460.547 306.725 460.525 306.666 460.525 306.6C460.533 306.424 460.613 306.226 460.767 306.006C460.929 305.779 461.174 305.584 461.504 305.423C461.834 305.254 462.241 305.17 462.725 305.17C463.547 305.17 464.137 305.364 464.496 305.753C464.856 306.134 465.035 306.611 465.035 307.183V310.747C465.035 310.82 465.01 310.883 464.958 310.934C464.914 310.978 464.856 311 464.782 311H464.276C464.203 311 464.141 310.978 464.089 310.934C464.045 310.883 464.023 310.82 464.023 310.747V310.274C463.862 310.509 463.627 310.707 463.319 310.868C463.011 311.029 462.619 311.11 462.142 311.11ZM462.373 310.285C462.85 310.285 463.239 310.131 463.539 309.823C463.847 309.508 464.001 309.057 464.001 308.47V308.162L462.725 308.349C462.205 308.422 461.812 308.547 461.548 308.723C461.284 308.892 461.152 309.108 461.152 309.372C461.152 309.665 461.273 309.893 461.515 310.054C461.757 310.208 462.043 310.285 462.373 310.285ZM467.5 313.09C467.441 313.09 467.39 313.068 467.346 313.024C467.302 312.98 467.28 312.929 467.28 312.87C467.28 312.819 467.298 312.753 467.335 312.672L468.182 310.659L466.081 305.698C466.044 305.603 466.026 305.54 466.026 305.511C466.026 305.445 466.048 305.39 466.092 305.346C466.136 305.302 466.191 305.28 466.257 305.28H466.796C466.913 305.28 467.001 305.342 467.06 305.467L468.732 309.471L470.448 305.467C470.506 305.342 470.598 305.28 470.723 305.28H471.24C471.306 305.28 471.361 305.302 471.405 305.346C471.449 305.39 471.471 305.441 471.471 305.5C471.471 305.522 471.452 305.588 471.416 305.698L468.292 312.903C468.233 313.028 468.141 313.09 468.017 313.09H467.5Z" fill="#9FA3C6" />
    <path d="M529.245 311.11C528.446 311.11 527.782 310.912 527.254 310.516C526.726 310.12 526.447 309.541 526.418 308.778C526.418 308.712 526.44 308.657 526.484 308.613C526.528 308.562 526.587 308.536 526.66 308.536H527.254C527.408 308.536 527.503 308.62 527.54 308.789C527.584 309.258 527.764 309.607 528.079 309.834C528.394 310.061 528.79 310.175 529.267 310.175C529.817 310.175 530.239 309.995 530.532 309.636C530.833 309.269 530.983 308.778 530.983 308.162V304.257H527.078C527.005 304.257 526.942 304.235 526.891 304.191C526.847 304.14 526.825 304.077 526.825 304.004V303.553C526.825 303.48 526.847 303.421 526.891 303.377C526.942 303.326 527.005 303.3 527.078 303.3H531.819C531.9 303.3 531.962 303.326 532.006 303.377C532.057 303.421 532.083 303.483 532.083 303.564V308.184C532.083 309.079 531.83 309.79 531.324 310.318C530.825 310.846 530.132 311.11 529.245 311.11ZM535.877 311.11C535.18 311.11 534.641 310.886 534.26 310.439C533.878 309.984 533.688 309.383 533.688 308.635V305.533C533.688 305.46 533.71 305.401 533.754 305.357C533.805 305.306 533.867 305.28 533.941 305.28H534.491C534.564 305.28 534.623 305.306 534.667 305.357C534.718 305.401 534.744 305.46 534.744 305.533V308.58C534.744 309.673 535.22 310.219 536.174 310.219C536.636 310.219 537.002 310.076 537.274 309.79C537.545 309.497 537.681 309.093 537.681 308.58V305.533C537.681 305.46 537.703 305.401 537.747 305.357C537.798 305.306 537.86 305.28 537.934 305.28H538.484C538.557 305.28 538.616 305.306 538.66 305.357C538.704 305.401 538.726 305.46 538.726 305.533V310.747C538.726 310.82 538.704 310.883 538.66 310.934C538.616 310.978 538.557 311 538.484 311H537.967C537.893 311 537.831 310.978 537.78 310.934C537.736 310.883 537.714 310.82 537.714 310.747V310.263C537.508 310.542 537.259 310.754 536.966 310.901C536.672 311.04 536.309 311.11 535.877 311.11ZM540.613 311C540.54 311 540.477 310.978 540.426 310.934C540.382 310.883 540.36 310.82 540.36 310.747V305.533C540.36 305.46 540.382 305.401 540.426 305.357C540.477 305.306 540.54 305.28 540.613 305.28H541.13C541.203 305.28 541.262 305.306 541.306 305.357C541.357 305.401 541.383 305.46 541.383 305.533V306.017C541.596 305.746 541.845 305.537 542.131 305.39C542.424 305.243 542.787 305.17 543.22 305.17C543.924 305.17 544.47 305.397 544.859 305.852C545.255 306.299 545.453 306.897 545.453 307.645V310.747C545.453 310.82 545.427 310.883 545.376 310.934C545.332 310.978 545.273 311 545.2 311H544.65C544.577 311 544.514 310.978 544.463 310.934C544.419 310.883 544.397 310.82 544.397 310.747V307.7C544.397 307.179 544.269 306.776 544.012 306.49C543.763 306.204 543.4 306.061 542.923 306.061C542.461 306.061 542.094 306.208 541.823 306.501C541.552 306.787 541.416 307.187 541.416 307.7V310.747C541.416 310.82 541.39 310.883 541.339 310.934C541.295 310.978 541.236 311 541.163 311H540.613Z" fill="#9FA3C6" />
    <path d="M604.245 311.11C603.446 311.11 602.782 310.912 602.254 310.516C601.726 310.12 601.447 309.541 601.418 308.778C601.418 308.712 601.44 308.657 601.484 308.613C601.528 308.562 601.587 308.536 601.66 308.536H602.254C602.408 308.536 602.503 308.62 602.54 308.789C602.584 309.258 602.764 309.607 603.079 309.834C603.394 310.061 603.79 310.175 604.267 310.175C604.817 310.175 605.239 309.995 605.532 309.636C605.833 309.269 605.983 308.778 605.983 308.162V304.257H602.078C602.005 304.257 601.942 304.235 601.891 304.191C601.847 304.14 601.825 304.077 601.825 304.004V303.553C601.825 303.48 601.847 303.421 601.891 303.377C601.942 303.326 602.005 303.3 602.078 303.3H606.819C606.9 303.3 606.962 303.326 607.006 303.377C607.057 303.421 607.083 303.483 607.083 303.564V308.184C607.083 309.079 606.83 309.79 606.324 310.318C605.825 310.846 605.132 311.11 604.245 311.11ZM610.877 311.11C610.18 311.11 609.641 310.886 609.26 310.439C608.878 309.984 608.688 309.383 608.688 308.635V305.533C608.688 305.46 608.71 305.401 608.754 305.357C608.805 305.306 608.867 305.28 608.941 305.28H609.491C609.564 305.28 609.623 305.306 609.667 305.357C609.718 305.401 609.744 305.46 609.744 305.533V308.58C609.744 309.673 610.22 310.219 611.174 310.219C611.636 310.219 612.002 310.076 612.274 309.79C612.545 309.497 612.681 309.093 612.681 308.58V305.533C612.681 305.46 612.703 305.401 612.747 305.357C612.798 305.306 612.86 305.28 612.934 305.28H613.484C613.557 305.28 613.616 305.306 613.66 305.357C613.704 305.401 613.726 305.46 613.726 305.533V310.747C613.726 310.82 613.704 310.883 613.66 310.934C613.616 310.978 613.557 311 613.484 311H612.967C612.893 311 612.831 310.978 612.78 310.934C612.736 310.883 612.714 310.82 612.714 310.747V310.263C612.508 310.542 612.259 310.754 611.966 310.901C611.672 311.04 611.309 311.11 610.877 311.11ZM615.624 311C615.551 311 615.488 310.978 615.437 310.934C615.393 310.883 615.371 310.82 615.371 310.747V303.443C615.371 303.37 615.393 303.311 615.437 303.267C615.488 303.216 615.551 303.19 615.624 303.19H616.141C616.214 303.19 616.273 303.216 616.317 303.267C616.368 303.311 616.394 303.37 616.394 303.443V310.747C616.394 310.82 616.368 310.883 616.317 310.934C616.273 310.978 616.214 311 616.141 311H615.624Z" fill="#9FA3C6" />
    <rect x="85" y="116" width="58" height="21" rx="4" fill="url(#paint1_linear)" />
    <path d="M97.601 131C97.5143 131 97.4407 130.97 97.38 130.909C97.3193 130.848 97.289 130.775 97.289 130.688V123.954L95.313 125.475C95.261 125.518 95.2003 125.54 95.131 125.54C95.027 125.54 94.9403 125.492 94.871 125.397L94.325 124.695C94.2817 124.626 94.26 124.561 94.26 124.5C94.26 124.396 94.3077 124.309 94.403 124.24L97.315 121.991C97.393 121.93 97.5013 121.9 97.64 121.9H98.784C98.8793 121.9 98.953 121.93 99.005 121.991C99.0657 122.043 99.096 122.117 99.096 122.212V130.688C99.096 130.775 99.0657 130.848 99.005 130.909C98.953 130.97 98.8793 131 98.784 131H97.601ZM103.619 131C103.532 131 103.458 130.97 103.398 130.909C103.337 130.848 103.307 130.775 103.307 130.688V123.954L101.331 125.475C101.279 125.518 101.218 125.54 101.149 125.54C101.045 125.54 100.958 125.492 100.889 125.397L100.343 124.695C100.299 124.626 100.278 124.561 100.278 124.5C100.278 124.396 100.325 124.309 100.421 124.24L103.333 121.991C103.411 121.93 103.519 121.9 103.658 121.9H104.802C104.897 121.9 104.971 121.93 105.023 121.991C105.083 122.043 105.114 122.117 105.114 122.212V130.688C105.114 130.775 105.083 130.848 105.023 130.909C104.971 130.97 104.897 131 104.802 131H103.619ZM107.92 131C107.842 131 107.777 130.974 107.725 130.922C107.673 130.861 107.647 130.792 107.647 130.714C107.647 130.688 107.656 130.649 107.673 130.597L110.806 123.447H106.724C106.637 123.447 106.564 123.417 106.503 123.356C106.442 123.295 106.412 123.222 106.412 123.135V122.225C106.412 122.13 106.438 122.052 106.49 121.991C106.551 121.93 106.629 121.9 106.724 121.9H112.431C112.526 121.9 112.6 121.93 112.652 121.991C112.713 122.052 112.743 122.13 112.743 122.225V123.031C112.743 123.204 112.704 123.391 112.626 123.59L109.519 130.688C109.424 130.896 109.285 131 109.103 131H107.92ZM113.399 131C113.312 131 113.238 130.97 113.178 130.909C113.117 130.848 113.087 130.775 113.087 130.688V129.401C113.087 129.314 113.117 129.241 113.178 129.18C113.238 129.111 113.312 129.076 113.399 129.076H114.699C114.785 129.076 114.859 129.111 114.92 129.18C114.98 129.241 115.011 129.314 115.011 129.401V130.688C115.011 130.775 114.98 130.848 114.92 130.909C114.859 130.97 114.785 131 114.699 131H113.399ZM117.277 131C117.199 131 117.134 130.974 117.082 130.922C117.03 130.861 117.004 130.792 117.004 130.714C117.004 130.688 117.012 130.649 117.03 130.597L120.163 123.447H116.081C115.994 123.447 115.92 123.417 115.86 123.356C115.799 123.295 115.769 123.222 115.769 123.135V122.225C115.769 122.13 115.795 122.052 115.847 121.991C115.907 121.93 115.985 121.9 116.081 121.9H121.788C121.883 121.9 121.957 121.93 122.009 121.991C122.069 122.052 122.1 122.13 122.1 122.225V123.031C122.1 123.204 122.061 123.391 121.983 123.59L118.876 130.688C118.78 130.896 118.642 131 118.46 131H117.277ZM126.714 131.13C125.96 131.13 125.31 131.013 124.764 130.779C124.227 130.536 123.815 130.203 123.529 129.778C123.243 129.353 123.1 128.868 123.1 128.322C123.1 127.837 123.222 127.408 123.464 127.035C123.707 126.654 124.032 126.363 124.439 126.164C124.119 125.965 123.867 125.709 123.685 125.397C123.512 125.076 123.425 124.712 123.425 124.305C123.425 123.542 123.711 122.931 124.283 122.472C124.864 122.004 125.674 121.77 126.714 121.77C127.746 121.77 128.547 122 129.119 122.459C129.691 122.918 129.977 123.529 129.977 124.292C129.977 124.699 129.891 125.063 129.717 125.384C129.553 125.696 129.31 125.956 128.989 126.164C129.405 126.363 129.73 126.654 129.964 127.035C130.207 127.408 130.328 127.841 130.328 128.335C130.328 128.881 130.185 129.366 129.899 129.791C129.613 130.216 129.197 130.545 128.651 130.779C128.105 131.013 127.46 131.13 126.714 131.13ZM126.714 125.605C127.165 125.596 127.538 125.479 127.832 125.254C128.136 125.029 128.287 124.734 128.287 124.37C128.287 123.989 128.14 123.685 127.845 123.46C127.551 123.235 127.174 123.122 126.714 123.122C126.255 123.122 125.878 123.235 125.583 123.46C125.289 123.685 125.141 123.989 125.141 124.37C125.141 124.743 125.289 125.042 125.583 125.267C125.878 125.492 126.255 125.605 126.714 125.605ZM126.714 129.778C127.226 129.778 127.655 129.648 128.001 129.388C128.348 129.119 128.521 128.768 128.521 128.335C128.521 127.902 128.348 127.555 128.001 127.295C127.655 127.026 127.226 126.892 126.714 126.892C126.194 126.892 125.761 127.022 125.414 127.282C125.076 127.542 124.907 127.893 124.907 128.335C124.907 128.777 125.076 129.128 125.414 129.388C125.761 129.648 126.194 129.778 126.714 129.778Z" fill="white" />
    <rect x="73.5" y="297.5" width="80" height="20" rx="3.5" fill="#898FA0" stroke="#9DA1AC" />
    <path d="M81.759 312C81.6857 312 81.6233 311.974 81.572 311.923C81.5207 311.872 81.495 311.809 81.495 311.736V311.175C81.495 310.977 81.5867 310.805 81.77 310.658L83.508 308.931C84.2633 308.337 84.7877 307.875 85.081 307.545C85.3817 307.208 85.532 306.878 85.532 306.555C85.532 306.21 85.4367 305.939 85.246 305.741C85.0627 305.543 84.784 305.444 84.41 305.444C84.0433 305.444 83.7537 305.554 83.541 305.774C83.3283 305.987 83.1963 306.265 83.145 306.61C83.123 306.698 83.0827 306.764 83.024 306.808C82.9653 306.845 82.8993 306.863 82.826 306.863H81.847C81.781 306.863 81.726 306.841 81.682 306.797C81.638 306.753 81.616 306.702 81.616 306.643C81.6307 306.21 81.748 305.807 81.968 305.433C82.188 305.052 82.507 304.747 82.925 304.52C83.343 304.285 83.8343 304.168 84.399 304.168C84.9857 304.168 85.4807 304.271 85.884 304.476C86.2947 304.674 86.6027 304.949 86.808 305.301C87.0133 305.653 87.116 306.053 87.116 306.5C87.116 306.991 86.9767 307.435 86.698 307.831C86.4267 308.227 86.0087 308.652 85.444 309.107L83.882 310.691H87.017C87.0977 310.691 87.16 310.717 87.204 310.768C87.2553 310.812 87.281 310.874 87.281 310.955V311.736C87.281 311.809 87.2553 311.872 87.204 311.923C87.16 311.974 87.0977 312 87.017 312H81.759ZM91.4185 312.11C90.4432 312.11 89.7135 311.839 89.2295 311.296C88.7529 310.753 88.4925 310.042 88.4485 309.162C88.4412 308.964 88.4375 308.627 88.4375 308.15C88.4375 307.666 88.4412 307.321 88.4485 307.116C88.4852 306.251 88.7492 305.547 89.2405 305.004C89.7319 304.461 90.4579 304.19 91.4185 304.19C92.3865 304.19 93.1162 304.461 93.6075 305.004C94.0989 305.547 94.3592 306.251 94.3885 307.116C94.4032 307.321 94.4105 307.666 94.4105 308.15C94.4105 308.627 94.4032 308.964 94.3885 309.162C94.3519 310.042 94.0915 310.753 93.6075 311.296C93.1309 311.839 92.4012 312.11 91.4185 312.11ZM91.4185 310.845C91.8805 310.845 92.2252 310.695 92.4525 310.394C92.6799 310.086 92.8009 309.657 92.8155 309.107C92.8302 308.682 92.8375 308.359 92.8375 308.139C92.8375 307.897 92.8302 307.578 92.8155 307.182C92.8009 306.639 92.6799 306.214 92.4525 305.906C92.2252 305.598 91.8805 305.444 91.4185 305.444C90.9639 305.444 90.6192 305.598 90.3845 305.906C90.1572 306.214 90.0362 306.639 90.0215 307.182C90.0142 307.38 90.0105 307.699 90.0105 308.139C90.0105 308.572 90.0142 308.894 90.0215 309.107C90.0362 309.657 90.1572 310.086 90.3845 310.394C90.6192 310.695 90.9639 310.845 91.4185 310.845ZM95.2772 312.924C95.2186 312.924 95.1672 312.902 95.1232 312.858C95.0792 312.814 95.0572 312.759 95.0572 312.693C95.0572 312.649 95.0646 312.609 95.0792 312.572L98.8302 303.585C98.8522 303.526 98.8889 303.475 98.9402 303.431C98.9989 303.38 99.0722 303.354 99.1602 303.354H99.8752C99.9339 303.354 99.9852 303.376 100.029 303.42C100.081 303.464 100.106 303.519 100.106 303.585C100.106 303.607 100.095 303.647 100.073 303.706L96.3222 312.693C96.2489 312.847 96.1352 312.924 95.9812 312.924H95.2772ZM103.318 312C103.245 312 103.183 311.974 103.131 311.923C103.08 311.872 103.054 311.809 103.054 311.736V306.038L101.382 307.325C101.338 307.362 101.287 307.38 101.228 307.38C101.14 307.38 101.067 307.34 101.008 307.259L100.546 306.665C100.51 306.606 100.491 306.551 100.491 306.5C100.491 306.412 100.532 306.339 100.612 306.28L103.076 304.377C103.142 304.326 103.234 304.3 103.351 304.3H104.319C104.4 304.3 104.462 304.326 104.506 304.377C104.558 304.421 104.583 304.483 104.583 304.564V311.736C104.583 311.809 104.558 311.872 104.506 311.923C104.462 311.974 104.4 312 104.319 312H103.318ZM106.122 312C106.049 312 105.987 311.974 105.935 311.923C105.884 311.872 105.858 311.809 105.858 311.736V311.175C105.858 310.977 105.95 310.805 106.133 310.658L107.871 308.931C108.627 308.337 109.151 307.875 109.444 307.545C109.745 307.208 109.895 306.878 109.895 306.555C109.895 306.21 109.8 305.939 109.609 305.741C109.426 305.543 109.147 305.444 108.773 305.444C108.407 305.444 108.117 305.554 107.904 305.774C107.692 305.987 107.56 306.265 107.508 306.61C107.486 306.698 107.446 306.764 107.387 306.808C107.329 306.845 107.263 306.863 107.189 306.863H106.21C106.144 306.863 106.089 306.841 106.045 306.797C106.001 306.753 105.979 306.702 105.979 306.643C105.994 306.21 106.111 305.807 106.331 305.433C106.551 305.052 106.87 304.747 107.288 304.52C107.706 304.285 108.198 304.168 108.762 304.168C109.349 304.168 109.844 304.271 110.247 304.476C110.658 304.674 110.966 304.949 111.171 305.301C111.377 305.653 111.479 306.053 111.479 306.5C111.479 306.991 111.34 307.435 111.061 307.831C110.79 308.227 110.372 308.652 109.807 309.107L108.245 310.691H111.38C111.461 310.691 111.523 310.717 111.567 310.768C111.619 310.812 111.644 310.874 111.644 310.955V311.736C111.644 311.809 111.619 311.872 111.567 311.923C111.523 311.974 111.461 312 111.38 312H106.122ZM112.669 312.924C112.61 312.924 112.559 312.902 112.515 312.858C112.471 312.814 112.449 312.759 112.449 312.693C112.449 312.649 112.456 312.609 112.471 312.572L116.222 303.585C116.244 303.526 116.28 303.475 116.332 303.431C116.39 303.38 116.464 303.354 116.552 303.354H117.267C117.325 303.354 117.377 303.376 117.421 303.42C117.472 303.464 117.498 303.519 117.498 303.585C117.498 303.607 117.487 303.647 117.465 303.706L113.714 312.693C113.64 312.847 113.527 312.924 113.373 312.924H112.669ZM118.325 312C118.252 312 118.19 311.974 118.138 311.923C118.087 311.872 118.061 311.809 118.061 311.736V311.175C118.061 310.977 118.153 310.805 118.336 310.658L120.074 308.931C120.83 308.337 121.354 307.875 121.647 307.545C121.948 307.208 122.098 306.878 122.098 306.555C122.098 306.21 122.003 305.939 121.812 305.741C121.629 305.543 121.35 305.444 120.976 305.444C120.61 305.444 120.32 305.554 120.107 305.774C119.895 305.987 119.763 306.265 119.711 306.61C119.689 306.698 119.649 306.764 119.59 306.808C119.532 306.845 119.466 306.863 119.392 306.863H118.413C118.347 306.863 118.292 306.841 118.248 306.797C118.204 306.753 118.182 306.702 118.182 306.643C118.197 306.21 118.314 305.807 118.534 305.433C118.754 305.052 119.073 304.747 119.491 304.52C119.909 304.285 120.401 304.168 120.965 304.168C121.552 304.168 122.047 304.271 122.45 304.476C122.861 304.674 123.169 304.949 123.374 305.301C123.58 305.653 123.682 306.053 123.682 306.5C123.682 306.991 123.543 307.435 123.264 307.831C122.993 308.227 122.575 308.652 122.01 309.107L120.448 310.691H123.583C123.664 310.691 123.726 310.717 123.77 310.768C123.822 310.812 123.847 310.874 123.847 310.955V311.736C123.847 311.809 123.822 311.872 123.77 311.923C123.726 311.974 123.664 312 123.583 312H118.325ZM127.985 312.11C127.01 312.11 126.28 311.839 125.796 311.296C125.319 310.753 125.059 310.042 125.015 309.162C125.008 308.964 125.004 308.627 125.004 308.15C125.004 307.666 125.008 307.321 125.015 307.116C125.052 306.251 125.316 305.547 125.807 305.004C126.298 304.461 127.024 304.19 127.985 304.19C128.953 304.19 129.683 304.461 130.174 305.004C130.665 305.547 130.926 306.251 130.955 307.116C130.97 307.321 130.977 307.666 130.977 308.15C130.977 308.627 130.97 308.964 130.955 309.162C130.918 310.042 130.658 310.753 130.174 311.296C129.697 311.839 128.968 312.11 127.985 312.11ZM127.985 310.845C128.447 310.845 128.792 310.695 129.019 310.394C129.246 310.086 129.367 309.657 129.382 309.107C129.397 308.682 129.404 308.359 129.404 308.139C129.404 307.897 129.397 307.578 129.382 307.182C129.367 306.639 129.246 306.214 129.019 305.906C128.792 305.598 128.447 305.444 127.985 305.444C127.53 305.444 127.186 305.598 126.951 305.906C126.724 306.214 126.603 306.639 126.588 307.182C126.581 307.38 126.577 307.699 126.577 308.139C126.577 308.572 126.581 308.894 126.588 309.107C126.603 309.657 126.724 310.086 126.951 310.394C127.186 310.695 127.53 310.845 127.985 310.845ZM134.653 312C134.58 312 134.518 311.974 134.466 311.923C134.415 311.872 134.389 311.809 134.389 311.736V306.038L132.717 307.325C132.673 307.362 132.622 307.38 132.563 307.38C132.475 307.38 132.402 307.34 132.343 307.259L131.881 306.665C131.845 306.606 131.826 306.551 131.826 306.5C131.826 306.412 131.867 306.339 131.947 306.28L134.411 304.377C134.477 304.326 134.569 304.3 134.686 304.3H135.654C135.735 304.3 135.797 304.326 135.841 304.377C135.893 304.421 135.918 304.483 135.918 304.564V311.736C135.918 311.809 135.893 311.872 135.841 311.923C135.797 311.974 135.735 312 135.654 312H134.653ZM138.293 312C138.227 312 138.172 311.978 138.128 311.934C138.084 311.883 138.062 311.824 138.062 311.758C138.062 311.736 138.07 311.703 138.084 311.659L140.735 305.609H137.281C137.208 305.609 137.146 305.583 137.094 305.532C137.043 305.481 137.017 305.418 137.017 305.345V304.575C137.017 304.494 137.039 304.428 137.083 304.377C137.135 304.326 137.201 304.3 137.281 304.3H142.11C142.191 304.3 142.253 304.326 142.297 304.377C142.349 304.428 142.374 304.494 142.374 304.575V305.257C142.374 305.404 142.341 305.561 142.275 305.73L139.646 311.736C139.566 311.912 139.448 312 139.294 312H138.293Z" fill="white" />
    <path d="M112.2 145.25C112.2 145.112 112.312 145 112.45 145C112.588 145 112.7 145.112 112.7 145.25V288.75C112.7 288.888 112.588 289 112.45 289C112.312 289 112.2 288.888 112.2 288.75V145.25Z" fill="#7E87A4" />
    <path d="M2.25 157.4C2.11193 157.4 2 157.288 2 157.15C2 157.012 2.11193 156.9 2.25 156.9L685.75 156.9C685.888 156.9 686 157.012 686 157.15C686 157.288 685.888 157.4 685.75 157.4L2.25 157.4Z" fill="#7E87A4" />
    <circle cx="112.5" cy="156.5" r="2.5" fill="#7E87A4" />
    <circle cx="112.4" cy="145" r="1" fill="#7E87A4" />
    <circle cx="112.4" cy="289" r="1" fill="#7E87A4" />
    <path d="M696.036 296C695.963 296 695.9 295.978 695.849 295.934C695.805 295.883 695.783 295.82 695.783 295.747V289.587L693.957 290.995C693.906 291.039 693.851 291.061 693.792 291.061C693.726 291.061 693.664 291.024 693.605 290.951L693.319 290.588C693.282 290.537 693.264 290.485 693.264 290.434C693.264 290.346 693.301 290.276 693.374 290.225L695.772 288.377C695.853 288.326 695.948 288.3 696.058 288.3H696.619C696.692 288.3 696.751 288.326 696.795 288.377C696.846 288.421 696.872 288.48 696.872 288.553V295.747C696.872 295.82 696.846 295.883 696.795 295.934C696.751 295.978 696.692 296 696.619 296H696.036ZM701.192 296.11C700.246 296.11 699.553 295.835 699.113 295.285C698.673 294.735 698.438 294.013 698.409 293.118C698.402 292.92 698.398 292.601 698.398 292.161C698.398 291.706 698.402 291.376 698.409 291.171C698.431 290.291 698.666 289.576 699.113 289.026C699.56 288.469 700.253 288.19 701.192 288.19C702.138 288.19 702.835 288.469 703.282 289.026C703.729 289.576 703.964 290.291 703.986 291.171C704.001 291.582 704.008 291.912 704.008 292.161C704.008 292.403 704.001 292.722 703.986 293.118C703.957 294.013 703.722 294.735 703.282 295.285C702.842 295.835 702.145 296.11 701.192 296.11ZM701.192 295.164C701.742 295.164 702.156 294.981 702.435 294.614C702.721 294.247 702.871 293.73 702.886 293.063C702.901 292.638 702.908 292.33 702.908 292.139C702.908 291.934 702.901 291.633 702.886 291.237C702.871 290.577 702.725 290.06 702.446 289.686C702.167 289.312 701.749 289.125 701.192 289.125C700.642 289.125 700.224 289.312 699.938 289.686C699.659 290.06 699.513 290.577 699.498 291.237L699.487 292.139L699.498 293.063C699.513 293.73 699.659 294.247 699.938 294.614C700.224 294.981 700.642 295.164 701.192 295.164ZM705.48 296C705.406 296 705.344 295.978 705.293 295.934C705.249 295.883 705.227 295.82 705.227 295.747V295.395C705.227 295.226 705.318 295.065 705.502 294.911L707.834 292.579C708.398 292.11 708.787 291.728 709 291.435C709.212 291.134 709.319 290.819 709.319 290.489C709.319 290.064 709.198 289.73 708.956 289.488C708.721 289.246 708.376 289.125 707.921 289.125C707.496 289.125 707.155 289.253 706.899 289.51C706.642 289.759 706.484 290.093 706.426 290.511C706.411 290.599 706.374 290.665 706.316 290.709C706.264 290.746 706.206 290.764 706.139 290.764H705.568C705.502 290.764 705.447 290.746 705.403 290.709C705.359 290.665 705.337 290.614 705.337 290.555C705.351 290.159 705.458 289.781 705.656 289.422C705.854 289.055 706.143 288.758 706.525 288.531C706.913 288.296 707.379 288.179 707.921 288.179C708.75 288.179 709.374 288.395 709.792 288.828C710.217 289.253 710.43 289.796 710.43 290.456C710.43 290.918 710.312 291.336 710.078 291.71C709.85 292.077 709.495 292.473 709.011 292.898L706.899 295.043H710.331C710.411 295.043 710.474 295.069 710.518 295.12C710.569 295.164 710.595 295.223 710.595 295.296V295.747C710.595 295.82 710.569 295.883 710.518 295.934C710.466 295.978 710.404 296 710.331 296H705.48ZM712.134 296C712.06 296 711.998 295.978 711.947 295.934C711.903 295.883 711.881 295.82 711.881 295.747V294.955C711.881 294.882 711.903 294.823 711.947 294.779C711.998 294.728 712.06 294.702 712.134 294.702H712.926C712.999 294.702 713.061 294.728 713.113 294.779C713.164 294.823 713.19 294.882 713.19 294.955V295.747C713.19 295.82 713.164 295.883 713.113 295.934C713.061 295.978 712.999 296 712.926 296H712.134ZM717.241 296.11C716.295 296.11 715.602 295.835 715.162 295.285C714.722 294.735 714.487 294.013 714.458 293.118C714.451 292.92 714.447 292.601 714.447 292.161C714.447 291.706 714.451 291.376 714.458 291.171C714.48 290.291 714.715 289.576 715.162 289.026C715.609 288.469 716.302 288.19 717.241 288.19C718.187 288.19 718.884 288.469 719.331 289.026C719.778 289.576 720.013 290.291 720.035 291.171C720.05 291.582 720.057 291.912 720.057 292.161C720.057 292.403 720.05 292.722 720.035 293.118C720.006 294.013 719.771 294.735 719.331 295.285C718.891 295.835 718.194 296.11 717.241 296.11ZM717.241 295.164C717.791 295.164 718.205 294.981 718.484 294.614C718.77 294.247 718.92 293.73 718.935 293.063C718.95 292.638 718.957 292.33 718.957 292.139C718.957 291.934 718.95 291.633 718.935 291.237C718.92 290.577 718.774 290.06 718.495 289.686C718.216 289.312 717.798 289.125 717.241 289.125C716.691 289.125 716.273 289.312 715.987 289.686C715.708 290.06 715.562 290.577 715.547 291.237L715.536 292.139L715.547 293.063C715.562 293.73 715.708 294.247 715.987 294.614C716.273 294.981 716.691 295.164 717.241 295.164ZM724.223 296.11C723.277 296.11 722.584 295.835 722.144 295.285C721.704 294.735 721.47 294.013 721.44 293.118C721.433 292.92 721.429 292.601 721.429 292.161C721.429 291.706 721.433 291.376 721.44 291.171C721.462 290.291 721.697 289.576 722.144 289.026C722.592 288.469 723.285 288.19 724.223 288.19C725.169 288.19 725.866 288.469 726.313 289.026C726.761 289.576 726.995 290.291 727.017 291.171C727.032 291.582 727.039 291.912 727.039 292.161C727.039 292.403 727.032 292.722 727.017 293.118C726.988 294.013 726.753 294.735 726.313 295.285C725.873 295.835 725.177 296.11 724.223 296.11ZM724.223 295.164C724.773 295.164 725.188 294.981 725.466 294.614C725.752 294.247 725.903 293.73 725.917 293.063C725.932 292.638 725.939 292.33 725.939 292.139C725.939 291.934 725.932 291.633 725.917 291.237C725.903 290.577 725.756 290.06 725.477 289.686C725.199 289.312 724.781 289.125 724.223 289.125C723.673 289.125 723.255 289.312 722.969 289.686C722.691 290.06 722.544 290.577 722.529 291.237L722.518 292.139L722.529 293.063C722.544 293.73 722.691 294.247 722.969 294.614C723.255 294.981 723.673 295.164 724.223 295.164Z" fill="#9FA3C6" />
    <path d="M696.036 261C695.963 261 695.9 260.978 695.849 260.934C695.805 260.883 695.783 260.82 695.783 260.747V254.587L693.957 255.995C693.906 256.039 693.851 256.061 693.792 256.061C693.726 256.061 693.664 256.024 693.605 255.951L693.319 255.588C693.282 255.537 693.264 255.485 693.264 255.434C693.264 255.346 693.301 255.276 693.374 255.225L695.772 253.377C695.853 253.326 695.948 253.3 696.058 253.3H696.619C696.692 253.3 696.751 253.326 696.795 253.377C696.846 253.421 696.872 253.48 696.872 253.553V260.747C696.872 260.82 696.846 260.883 696.795 260.934C696.751 260.978 696.692 261 696.619 261H696.036ZM701.192 261.11C700.246 261.11 699.553 260.835 699.113 260.285C698.673 259.735 698.438 259.013 698.409 258.118C698.402 257.92 698.398 257.601 698.398 257.161C698.398 256.706 698.402 256.376 698.409 256.171C698.431 255.291 698.666 254.576 699.113 254.026C699.56 253.469 700.253 253.19 701.192 253.19C702.138 253.19 702.835 253.469 703.282 254.026C703.729 254.576 703.964 255.291 703.986 256.171C704.001 256.582 704.008 256.912 704.008 257.161C704.008 257.403 704.001 257.722 703.986 258.118C703.957 259.013 703.722 259.735 703.282 260.285C702.842 260.835 702.145 261.11 701.192 261.11ZM701.192 260.164C701.742 260.164 702.156 259.981 702.435 259.614C702.721 259.247 702.871 258.73 702.886 258.063C702.901 257.638 702.908 257.33 702.908 257.139C702.908 256.934 702.901 256.633 702.886 256.237C702.871 255.577 702.725 255.06 702.446 254.686C702.167 254.312 701.749 254.125 701.192 254.125C700.642 254.125 700.224 254.312 699.938 254.686C699.659 255.06 699.513 255.577 699.498 256.237L699.487 257.139L699.498 258.063C699.513 258.73 699.659 259.247 699.938 259.614C700.224 259.981 700.642 260.164 701.192 260.164ZM708.076 261.11C707.489 261.11 706.979 260.993 706.547 260.758C706.114 260.516 705.784 260.193 705.557 259.79C705.329 259.387 705.216 258.947 705.216 258.47C705.216 258.081 705.293 257.715 705.447 257.37C705.608 257.018 705.788 256.706 705.986 256.435L708.076 253.52C708.083 253.513 708.105 253.487 708.142 253.443C708.171 253.399 708.211 253.366 708.263 253.344C708.314 253.315 708.373 253.3 708.439 253.3H709.022C709.088 253.3 709.139 253.326 709.176 253.377C709.22 253.421 709.242 253.476 709.242 253.542C709.242 253.593 709.227 253.641 709.198 253.685L707.591 255.929C707.753 255.878 707.962 255.852 708.219 255.852C708.747 255.859 709.212 255.98 709.616 256.215C710.026 256.45 710.342 256.765 710.562 257.161C710.789 257.557 710.902 257.99 710.902 258.459C710.902 258.928 710.789 259.368 710.562 259.779C710.342 260.182 710.015 260.505 709.583 260.747C709.157 260.989 708.655 261.11 708.076 261.11ZM708.065 260.175C708.38 260.175 708.67 260.109 708.934 259.977C709.205 259.845 709.418 259.651 709.572 259.394C709.733 259.13 709.814 258.818 709.814 258.459C709.814 258.107 709.733 257.803 709.572 257.546C709.418 257.289 709.205 257.095 708.934 256.963C708.67 256.831 708.38 256.765 708.065 256.765C707.757 256.765 707.467 256.831 707.196 256.963C706.932 257.095 706.719 257.289 706.558 257.546C706.396 257.803 706.316 258.107 706.316 258.459C706.316 258.818 706.396 259.13 706.558 259.394C706.719 259.651 706.932 259.845 707.196 259.977C707.46 260.109 707.749 260.175 708.065 260.175ZM712.305 261C712.232 261 712.17 260.978 712.118 260.934C712.074 260.883 712.052 260.82 712.052 260.747V259.955C712.052 259.882 712.074 259.823 712.118 259.779C712.17 259.728 712.232 259.702 712.305 259.702H713.097C713.171 259.702 713.233 259.728 713.284 259.779C713.336 259.823 713.361 259.882 713.361 259.955V260.747C713.361 260.82 713.336 260.883 713.284 260.934C713.233 260.978 713.171 261 713.097 261H712.305ZM717.413 261.11C716.467 261.11 715.774 260.835 715.334 260.285C714.894 259.735 714.659 259.013 714.63 258.118C714.622 257.92 714.619 257.601 714.619 257.161C714.619 256.706 714.622 256.376 714.63 256.171C714.652 255.291 714.886 254.576 715.334 254.026C715.781 253.469 716.474 253.19 717.413 253.19C718.359 253.19 719.055 253.469 719.503 254.026C719.95 254.576 720.185 255.291 720.207 256.171C720.221 256.582 720.229 256.912 720.229 257.161C720.229 257.403 720.221 257.722 720.207 258.118C720.177 259.013 719.943 259.735 719.503 260.285C719.063 260.835 718.366 261.11 717.413 261.11ZM717.413 260.164C717.963 260.164 718.377 259.981 718.656 259.614C718.942 259.247 719.092 258.73 719.107 258.063C719.121 257.638 719.129 257.33 719.129 257.139C719.129 256.934 719.121 256.633 719.107 256.237C719.092 255.577 718.945 255.06 718.667 254.686C718.388 254.312 717.97 254.125 717.413 254.125C716.863 254.125 716.445 254.312 716.159 254.686C715.88 255.06 715.733 255.577 715.719 256.237L715.708 257.139L715.719 258.063C715.733 258.73 715.88 259.247 716.159 259.614C716.445 259.981 716.863 260.164 717.413 260.164ZM724.395 261.11C723.449 261.11 722.756 260.835 722.316 260.285C721.876 259.735 721.642 259.013 721.612 258.118C721.605 257.92 721.601 257.601 721.601 257.161C721.601 256.706 721.605 256.376 721.612 256.171C721.634 255.291 721.869 254.576 722.316 254.026C722.764 253.469 723.457 253.19 724.395 253.19C725.341 253.19 726.038 253.469 726.485 254.026C726.933 254.576 727.167 255.291 727.189 256.171C727.204 256.582 727.211 256.912 727.211 257.161C727.211 257.403 727.204 257.722 727.189 258.118C727.16 259.013 726.925 259.735 726.485 260.285C726.045 260.835 725.349 261.11 724.395 261.11ZM724.395 260.164C724.945 260.164 725.36 259.981 725.638 259.614C725.924 259.247 726.075 258.73 726.089 258.063C726.104 257.638 726.111 257.33 726.111 257.139C726.111 256.934 726.104 256.633 726.089 256.237C726.075 255.577 725.928 255.06 725.649 254.686C725.371 254.312 724.953 254.125 724.395 254.125C723.845 254.125 723.427 254.312 723.141 254.686C722.863 255.06 722.716 255.577 722.701 256.237L722.69 257.139L722.701 258.063C722.716 258.73 722.863 259.247 723.141 259.614C723.427 259.981 723.845 260.164 724.395 260.164Z" fill="#9FA3C6" />
    <path d="M696.036 189C695.963 189 695.9 188.978 695.849 188.934C695.805 188.883 695.783 188.82 695.783 188.747V182.587L693.957 183.995C693.906 184.039 693.851 184.061 693.792 184.061C693.726 184.061 693.664 184.024 693.605 183.951L693.319 183.588C693.282 183.537 693.264 183.485 693.264 183.434C693.264 183.346 693.301 183.276 693.374 183.225L695.772 181.377C695.853 181.326 695.948 181.3 696.058 181.3H696.619C696.692 181.3 696.751 181.326 696.795 181.377C696.846 181.421 696.872 181.48 696.872 181.553V188.747C696.872 188.82 696.846 188.883 696.795 188.934C696.751 188.978 696.692 189 696.619 189H696.036ZM700.741 189C700.668 189 700.605 188.978 700.554 188.934C700.51 188.883 700.488 188.82 700.488 188.747V182.587L698.662 183.995C698.611 184.039 698.556 184.061 698.497 184.061C698.431 184.061 698.369 184.024 698.31 183.951L698.024 183.588C697.987 183.537 697.969 183.485 697.969 183.434C697.969 183.346 698.006 183.276 698.079 183.225L700.477 181.377C700.558 181.326 700.653 181.3 700.763 181.3H701.324C701.397 181.3 701.456 181.326 701.5 181.377C701.551 181.421 701.577 181.48 701.577 181.553V188.747C701.577 188.82 701.551 188.883 701.5 188.934C701.456 188.978 701.397 189 701.324 189H700.741ZM706.821 189C706.748 189 706.685 188.978 706.634 188.934C706.59 188.883 706.568 188.82 706.568 188.747V187.163H703.004C702.931 187.163 702.868 187.141 702.817 187.097C702.773 187.046 702.751 186.983 702.751 186.91V186.47C702.751 186.36 702.791 186.25 702.872 186.14L706.172 181.487C706.209 181.428 706.264 181.384 706.337 181.355C706.41 181.318 706.491 181.3 706.579 181.3H707.371C707.444 181.3 707.503 181.326 707.547 181.377C707.598 181.421 707.624 181.48 707.624 181.553V186.206H708.614C708.687 186.206 708.75 186.232 708.801 186.283C708.852 186.327 708.878 186.386 708.878 186.459V186.91C708.878 186.983 708.852 187.046 708.801 187.097C708.757 187.141 708.698 187.163 708.625 187.163H707.624V188.747C707.624 188.82 707.598 188.883 707.547 188.934C707.503 188.978 707.444 189 707.371 189H706.821ZM706.579 186.228V182.455L703.928 186.228H706.579ZM710.071 189C709.998 189 709.935 188.978 709.884 188.934C709.84 188.883 709.818 188.82 709.818 188.747V187.955C709.818 187.882 709.84 187.823 709.884 187.779C709.935 187.728 709.998 187.702 710.071 187.702H710.863C710.936 187.702 710.999 187.728 711.05 187.779C711.101 187.823 711.127 187.882 711.127 187.955V188.747C711.127 188.82 711.101 188.883 711.05 188.934C710.999 188.978 710.936 189 710.863 189H710.071ZM715.178 189.11C714.232 189.11 713.539 188.835 713.099 188.285C712.659 187.735 712.425 187.013 712.395 186.118C712.388 185.92 712.384 185.601 712.384 185.161C712.384 184.706 712.388 184.376 712.395 184.171C712.417 183.291 712.652 182.576 713.099 182.026C713.547 181.469 714.24 181.19 715.178 181.19C716.124 181.19 716.821 181.469 717.268 182.026C717.716 182.576 717.95 183.291 717.972 184.171C717.987 184.582 717.994 184.912 717.994 185.161C717.994 185.403 717.987 185.722 717.972 186.118C717.943 187.013 717.708 187.735 717.268 188.285C716.828 188.835 716.132 189.11 715.178 189.11ZM715.178 188.164C715.728 188.164 716.143 187.981 716.421 187.614C716.707 187.247 716.858 186.73 716.872 186.063C716.887 185.638 716.894 185.33 716.894 185.139C716.894 184.934 716.887 184.633 716.872 184.237C716.858 183.577 716.711 183.06 716.432 182.686C716.154 182.312 715.736 182.125 715.178 182.125C714.628 182.125 714.21 182.312 713.924 182.686C713.646 183.06 713.499 183.577 713.484 184.237L713.473 185.139L713.484 186.063C713.499 186.73 713.646 187.247 713.924 187.614C714.21 187.981 714.628 188.164 715.178 188.164ZM722.161 189.11C721.215 189.11 720.522 188.835 720.082 188.285C719.642 187.735 719.407 187.013 719.378 186.118C719.37 185.92 719.367 185.601 719.367 185.161C719.367 184.706 719.37 184.376 719.378 184.171C719.4 183.291 719.634 182.576 720.082 182.026C720.529 181.469 721.222 181.19 722.161 181.19C723.107 181.19 723.803 181.469 724.251 182.026C724.698 182.576 724.933 183.291 724.955 184.171C724.969 184.582 724.977 184.912 724.977 185.161C724.977 185.403 724.969 185.722 724.955 186.118C724.925 187.013 724.691 187.735 724.251 188.285C723.811 188.835 723.114 189.11 722.161 189.11ZM722.161 188.164C722.711 188.164 723.125 187.981 723.404 187.614C723.69 187.247 723.84 186.73 723.855 186.063C723.869 185.638 723.877 185.33 723.877 185.139C723.877 184.934 723.869 184.633 723.855 184.237C723.84 183.577 723.693 183.06 723.415 182.686C723.136 182.312 722.718 182.125 722.161 182.125C721.611 182.125 721.193 182.312 720.907 182.686C720.628 183.06 720.481 183.577 720.467 184.237L720.456 185.139L720.467 186.063C720.481 186.73 720.628 187.247 720.907 187.614C721.193 187.981 721.611 188.164 722.161 188.164Z" fill="#9FA3C6" />
    <path d="M696.036 118C695.963 118 695.9 117.978 695.849 117.934C695.805 117.883 695.783 117.82 695.783 117.747V111.587L693.957 112.995C693.906 113.039 693.851 113.061 693.792 113.061C693.726 113.061 693.664 113.024 693.605 112.951L693.319 112.588C693.282 112.537 693.264 112.485 693.264 112.434C693.264 112.346 693.301 112.276 693.374 112.225L695.772 110.377C695.853 110.326 695.948 110.3 696.058 110.3H696.619C696.692 110.3 696.751 110.326 696.795 110.377C696.846 110.421 696.872 110.48 696.872 110.553V117.747C696.872 117.82 696.846 117.883 696.795 117.934C696.751 117.978 696.692 118 696.619 118H696.036ZM698.497 118C698.424 118 698.361 117.978 698.31 117.934C698.266 117.883 698.244 117.82 698.244 117.747V117.395C698.244 117.226 698.336 117.065 698.519 116.911L700.851 114.579C701.416 114.11 701.804 113.728 702.017 113.435C702.23 113.134 702.336 112.819 702.336 112.489C702.336 112.064 702.215 111.73 701.973 111.488C701.738 111.246 701.394 111.125 700.939 111.125C700.514 111.125 700.173 111.253 699.916 111.51C699.659 111.759 699.502 112.093 699.443 112.511C699.428 112.599 699.392 112.665 699.333 112.709C699.282 112.746 699.223 112.764 699.157 112.764H698.585C698.519 112.764 698.464 112.746 698.42 112.709C698.376 112.665 698.354 112.614 698.354 112.555C698.369 112.159 698.475 111.781 698.673 111.422C698.871 111.055 699.161 110.758 699.542 110.531C699.931 110.296 700.396 110.179 700.939 110.179C701.768 110.179 702.391 110.395 702.809 110.828C703.234 111.253 703.447 111.796 703.447 112.456C703.447 112.918 703.33 113.336 703.095 113.71C702.868 114.077 702.512 114.473 702.028 114.898L699.916 117.043H703.348C703.429 117.043 703.491 117.069 703.535 117.12C703.586 117.164 703.612 117.223 703.612 117.296V117.747C703.612 117.82 703.586 117.883 703.535 117.934C703.484 117.978 703.421 118 703.348 118H698.497ZM704.953 118C704.88 118 704.817 117.978 704.766 117.934C704.722 117.883 704.7 117.82 704.7 117.747V117.395C704.7 117.226 704.792 117.065 704.975 116.911L707.307 114.579C707.872 114.11 708.26 113.728 708.473 113.435C708.686 113.134 708.792 112.819 708.792 112.489C708.792 112.064 708.671 111.73 708.429 111.488C708.194 111.246 707.85 111.125 707.395 111.125C706.97 111.125 706.629 111.253 706.372 111.51C706.115 111.759 705.958 112.093 705.899 112.511C705.884 112.599 705.848 112.665 705.789 112.709C705.738 112.746 705.679 112.764 705.613 112.764H705.041C704.975 112.764 704.92 112.746 704.876 112.709C704.832 112.665 704.81 112.614 704.81 112.555C704.825 112.159 704.931 111.781 705.129 111.422C705.327 111.055 705.617 110.758 705.998 110.531C706.387 110.296 706.852 110.179 707.395 110.179C708.224 110.179 708.847 110.395 709.265 110.828C709.69 111.253 709.903 111.796 709.903 112.456C709.903 112.918 709.786 113.336 709.551 113.71C709.324 114.077 708.968 114.473 708.484 114.898L706.372 117.043H709.804C709.885 117.043 709.947 117.069 709.991 117.12C710.042 117.164 710.068 117.223 710.068 117.296V117.747C710.068 117.82 710.042 117.883 709.991 117.934C709.94 117.978 709.877 118 709.804 118H704.953ZM711.607 118C711.534 118 711.472 117.978 711.42 117.934C711.376 117.883 711.354 117.82 711.354 117.747V116.955C711.354 116.882 711.376 116.823 711.42 116.779C711.472 116.728 711.534 116.702 711.607 116.702H712.399C712.473 116.702 712.535 116.728 712.586 116.779C712.638 116.823 712.663 116.882 712.663 116.955V117.747C712.663 117.82 712.638 117.883 712.586 117.934C712.535 117.978 712.473 118 712.399 118H711.607ZM716.715 118.11C715.769 118.11 715.076 117.835 714.636 117.285C714.196 116.735 713.961 116.013 713.932 115.118C713.924 114.92 713.921 114.601 713.921 114.161C713.921 113.706 713.924 113.376 713.932 113.171C713.954 112.291 714.188 111.576 714.636 111.026C715.083 110.469 715.776 110.19 716.715 110.19C717.661 110.19 718.357 110.469 718.805 111.026C719.252 111.576 719.487 112.291 719.509 113.171C719.523 113.582 719.531 113.912 719.531 114.161C719.531 114.403 719.523 114.722 719.509 115.118C719.479 116.013 719.245 116.735 718.805 117.285C718.365 117.835 717.668 118.11 716.715 118.11ZM716.715 117.164C717.265 117.164 717.679 116.981 717.958 116.614C718.244 116.247 718.394 115.73 718.409 115.063C718.423 114.638 718.431 114.33 718.431 114.139C718.431 113.934 718.423 113.633 718.409 113.237C718.394 112.577 718.247 112.06 717.969 111.686C717.69 111.312 717.272 111.125 716.715 111.125C716.165 111.125 715.747 111.312 715.461 111.686C715.182 112.06 715.035 112.577 715.021 113.237L715.01 114.139L715.021 115.063C715.035 115.73 715.182 116.247 715.461 116.614C715.747 116.981 716.165 117.164 716.715 117.164ZM723.697 118.11C722.751 118.11 722.058 117.835 721.618 117.285C721.178 116.735 720.943 116.013 720.914 115.118C720.907 114.92 720.903 114.601 720.903 114.161C720.903 113.706 720.907 113.376 720.914 113.171C720.936 112.291 721.171 111.576 721.618 111.026C722.065 110.469 722.758 110.19 723.697 110.19C724.643 110.19 725.34 110.469 725.787 111.026C726.234 111.576 726.469 112.291 726.491 113.171C726.506 113.582 726.513 113.912 726.513 114.161C726.513 114.403 726.506 114.722 726.491 115.118C726.462 116.013 726.227 116.735 725.787 117.285C725.347 117.835 724.65 118.11 723.697 118.11ZM723.697 117.164C724.247 117.164 724.661 116.981 724.94 116.614C725.226 116.247 725.376 115.73 725.391 115.063C725.406 114.638 725.413 114.33 725.413 114.139C725.413 113.934 725.406 113.633 725.391 113.237C725.376 112.577 725.23 112.06 724.951 111.686C724.672 111.312 724.254 111.125 723.697 111.125C723.147 111.125 722.729 111.312 722.443 111.686C722.164 112.06 722.018 112.577 722.003 113.237L721.992 114.139L722.003 115.063C722.018 115.73 722.164 116.247 722.443 116.614C722.729 116.981 723.147 117.164 723.697 117.164Z" fill="#9FA3C6" />
    <path d="M696.036 10C695.963 10 695.9 9.978 695.849 9.934C695.805 9.88267 695.783 9.82033 695.783 9.747V3.587L693.957 4.995C693.906 5.039 693.851 5.061 693.792 5.061C693.726 5.061 693.664 5.02433 693.605 4.951L693.319 4.588C693.282 4.53667 693.264 4.48533 693.264 4.434C693.264 4.346 693.301 4.27633 693.374 4.225L695.772 2.377C695.853 2.32567 695.948 2.3 696.058 2.3H696.619C696.692 2.3 696.751 2.32567 696.795 2.377C696.846 2.421 696.872 2.47967 696.872 2.553V9.747C696.872 9.82033 696.846 9.88267 696.795 9.934C696.751 9.978 696.692 10 696.619 10H696.036ZM700.983 10.11C700.404 10.11 699.901 10.0183 699.476 9.835C699.058 9.64433 698.739 9.39867 698.519 9.098C698.306 8.79733 698.193 8.482 698.178 8.152C698.178 8.086 698.2 8.03467 698.244 7.998C698.288 7.954 698.343 7.932 698.409 7.932H698.948C699.102 7.932 699.205 8.01267 699.256 8.174C699.351 8.54067 699.557 8.801 699.872 8.955C700.187 9.10167 700.558 9.175 700.983 9.175C701.504 9.175 701.918 9.054 702.226 8.812C702.534 8.56267 702.688 8.207 702.688 7.745C702.688 6.85767 702.149 6.414 701.071 6.414H700.026C699.953 6.414 699.89 6.392 699.839 6.348C699.795 6.29667 699.773 6.23433 699.773 6.161V5.864C699.773 5.76133 699.813 5.66233 699.894 5.567L702.028 3.235H698.783C698.71 3.235 698.647 3.213 698.596 3.169C698.552 3.11767 698.53 3.05533 698.53 2.982V2.564C698.53 2.49067 698.552 2.42833 698.596 2.377C698.647 2.32567 698.71 2.3 698.783 2.3H703.172C703.253 2.3 703.315 2.32567 703.359 2.377C703.41 2.421 703.436 2.48333 703.436 2.564V2.96C703.436 3.048 703.396 3.13233 703.315 3.213L701.192 5.578L701.368 5.589C702.116 5.611 702.706 5.80533 703.139 6.172C703.572 6.53867 703.788 7.074 703.788 7.778C703.788 8.25467 703.667 8.669 703.425 9.021C703.183 9.373 702.849 9.64433 702.424 9.835C701.999 10.0183 701.518 10.11 700.983 10.11ZM708.723 10C708.649 10 708.587 9.978 708.536 9.934C708.492 9.88267 708.47 9.82033 708.47 9.747V8.163H704.906C704.832 8.163 704.77 8.141 704.719 8.097C704.675 8.04567 704.653 7.98333 704.653 7.91V7.47C704.653 7.36 704.693 7.25 704.774 7.14L708.074 2.487C708.11 2.42833 708.165 2.38433 708.239 2.355C708.312 2.31833 708.393 2.3 708.481 2.3H709.273C709.346 2.3 709.405 2.32567 709.449 2.377C709.5 2.421 709.526 2.47967 709.526 2.553V7.206H710.516C710.589 7.206 710.651 7.23167 710.703 7.283C710.754 7.327 710.78 7.38567 710.78 7.459V7.91C710.78 7.98333 710.754 8.04567 710.703 8.097C710.659 8.141 710.6 8.163 710.527 8.163H709.526V9.747C709.526 9.82033 709.5 9.88267 709.449 9.934C709.405 9.978 709.346 10 709.273 10H708.723ZM708.481 7.228V3.455L705.83 7.228H708.481ZM711.972 10C711.899 10 711.837 9.978 711.785 9.934C711.741 9.88267 711.719 9.82033 711.719 9.747V8.955C711.719 8.88167 711.741 8.823 711.785 8.779C711.837 8.72767 711.899 8.702 711.972 8.702H712.764C712.838 8.702 712.9 8.72767 712.951 8.779C713.003 8.823 713.028 8.88167 713.028 8.955V9.747C713.028 9.82033 713.003 9.88267 712.951 9.934C712.9 9.978 712.838 10 712.764 10H711.972ZM717.08 10.11C716.134 10.11 715.441 9.835 715.001 9.285C714.561 8.735 714.326 8.01267 714.297 7.118C714.289 6.92 714.286 6.601 714.286 6.161C714.286 5.70633 714.289 5.37633 714.297 5.171C714.319 4.291 714.553 3.576 715.001 3.026C715.448 2.46867 716.141 2.19 717.08 2.19C718.026 2.19 718.722 2.46867 719.17 3.026C719.617 3.576 719.852 4.291 719.874 5.171C719.888 5.58167 719.896 5.91167 719.896 6.161C719.896 6.403 719.888 6.722 719.874 7.118C719.844 8.01267 719.61 8.735 719.17 9.285C718.73 9.835 718.033 10.11 717.08 10.11ZM717.08 9.164C717.63 9.164 718.044 8.98067 718.323 8.614C718.609 8.24733 718.759 7.73033 718.774 7.063C718.788 6.63767 718.796 6.32967 718.796 6.139C718.796 5.93367 718.788 5.633 718.774 5.237C718.759 4.577 718.612 4.06 718.334 3.686C718.055 3.312 717.637 3.125 717.08 3.125C716.53 3.125 716.112 3.312 715.826 3.686C715.547 4.06 715.4 4.577 715.386 5.237L715.375 6.139L715.386 7.063C715.4 7.73033 715.547 8.24733 715.826 8.614C716.112 8.98067 716.53 9.164 717.08 9.164ZM724.062 10.11C723.116 10.11 722.423 9.835 721.983 9.285C721.543 8.735 721.309 8.01267 721.279 7.118C721.272 6.92 721.268 6.601 721.268 6.161C721.268 5.70633 721.272 5.37633 721.279 5.171C721.301 4.291 721.536 3.576 721.983 3.026C722.431 2.46867 723.124 2.19 724.062 2.19C725.008 2.19 725.705 2.46867 726.152 3.026C726.6 3.576 726.834 4.291 726.856 5.171C726.871 5.58167 726.878 5.91167 726.878 6.161C726.878 6.403 726.871 6.722 726.856 7.118C726.827 8.01267 726.592 8.735 726.152 9.285C725.712 9.835 725.016 10.11 724.062 10.11ZM724.062 9.164C724.612 9.164 725.027 8.98067 725.305 8.614C725.591 8.24733 725.742 7.73033 725.756 7.063C725.771 6.63767 725.778 6.32967 725.778 6.139C725.778 5.93367 725.771 5.633 725.756 5.237C725.742 4.577 725.595 4.06 725.316 3.686C725.038 3.312 724.62 3.125 724.062 3.125C723.512 3.125 723.094 3.312 722.808 3.686C722.53 4.06 722.383 4.577 722.368 5.237L722.357 6.139L722.368 7.063C722.383 7.73033 722.53 8.24733 722.808 8.614C723.094 8.98067 723.512 9.164 724.062 9.164Z" fill="#9FA3C6" />
    <path d="M696.036 225C695.963 225 695.9 224.978 695.849 224.934C695.805 224.883 695.783 224.82 695.783 224.747V218.587L693.957 219.995C693.906 220.039 693.851 220.061 693.792 220.061C693.726 220.061 693.664 220.024 693.605 219.951L693.319 219.588C693.282 219.537 693.264 219.485 693.264 219.434C693.264 219.346 693.301 219.276 693.374 219.225L695.772 217.377C695.853 217.326 695.948 217.3 696.058 217.3H696.619C696.692 217.3 696.751 217.326 696.795 217.377C696.846 217.421 696.872 217.48 696.872 217.553V224.747C696.872 224.82 696.846 224.883 696.795 224.934C696.751 224.978 696.692 225 696.619 225H696.036ZM700.741 225C700.668 225 700.605 224.978 700.554 224.934C700.51 224.883 700.488 224.82 700.488 224.747V218.587L698.662 219.995C698.611 220.039 698.556 220.061 698.497 220.061C698.431 220.061 698.369 220.024 698.31 219.951L698.024 219.588C697.987 219.537 697.969 219.485 697.969 219.434C697.969 219.346 698.006 219.276 698.079 219.225L700.477 217.377C700.558 217.326 700.653 217.3 700.763 217.3H701.324C701.397 217.3 701.456 217.326 701.5 217.377C701.551 217.421 701.577 217.48 701.577 217.553V224.747C701.577 224.82 701.551 224.883 701.5 224.934C701.456 224.978 701.397 225 701.324 225H700.741ZM705.897 225.11C704.951 225.11 704.258 224.835 703.818 224.285C703.378 223.735 703.143 223.013 703.114 222.118C703.107 221.92 703.103 221.601 703.103 221.161C703.103 220.706 703.107 220.376 703.114 220.171C703.136 219.291 703.371 218.576 703.818 218.026C704.265 217.469 704.958 217.19 705.897 217.19C706.843 217.19 707.54 217.469 707.987 218.026C708.434 218.576 708.669 219.291 708.691 220.171C708.706 220.582 708.713 220.912 708.713 221.161C708.713 221.403 708.706 221.722 708.691 222.118C708.662 223.013 708.427 223.735 707.987 224.285C707.547 224.835 706.85 225.11 705.897 225.11ZM705.897 224.164C706.447 224.164 706.861 223.981 707.14 223.614C707.426 223.247 707.576 222.73 707.591 222.063C707.606 221.638 707.613 221.33 707.613 221.139C707.613 220.934 707.606 220.633 707.591 220.237C707.576 219.577 707.43 219.06 707.151 218.686C706.872 218.312 706.454 218.125 705.897 218.125C705.347 218.125 704.929 218.312 704.643 218.686C704.364 219.06 704.218 219.577 704.203 220.237L704.192 221.139L704.203 222.063C704.218 222.73 704.364 223.247 704.643 223.614C704.929 223.981 705.347 224.164 705.897 224.164ZM710.221 225C710.148 225 710.086 224.978 710.034 224.934C709.99 224.883 709.968 224.82 709.968 224.747V223.955C709.968 223.882 709.99 223.823 710.034 223.779C710.086 223.728 710.148 223.702 710.221 223.702H711.013C711.087 223.702 711.149 223.728 711.2 223.779C711.252 223.823 711.277 223.882 711.277 223.955V224.747C711.277 224.82 711.252 224.883 711.2 224.934C711.149 224.978 711.087 225 711.013 225H710.221ZM715.329 225.11C714.383 225.11 713.69 224.835 713.25 224.285C712.81 223.735 712.575 223.013 712.546 222.118C712.538 221.92 712.535 221.601 712.535 221.161C712.535 220.706 712.538 220.376 712.546 220.171C712.568 219.291 712.802 218.576 713.25 218.026C713.697 217.469 714.39 217.19 715.329 217.19C716.275 217.19 716.971 217.469 717.419 218.026C717.866 218.576 718.101 219.291 718.123 220.171C718.137 220.582 718.145 220.912 718.145 221.161C718.145 221.403 718.137 221.722 718.123 222.118C718.093 223.013 717.859 223.735 717.419 224.285C716.979 224.835 716.282 225.11 715.329 225.11ZM715.329 224.164C715.879 224.164 716.293 223.981 716.572 223.614C716.858 223.247 717.008 222.73 717.023 222.063C717.037 221.638 717.045 221.33 717.045 221.139C717.045 220.934 717.037 220.633 717.023 220.237C717.008 219.577 716.861 219.06 716.583 218.686C716.304 218.312 715.886 218.125 715.329 218.125C714.779 218.125 714.361 218.312 714.075 218.686C713.796 219.06 713.649 219.577 713.635 220.237L713.624 221.139L713.635 222.063C713.649 222.73 713.796 223.247 714.075 223.614C714.361 223.981 714.779 224.164 715.329 224.164ZM722.311 225.11C721.365 225.11 720.672 224.835 720.232 224.285C719.792 223.735 719.558 223.013 719.528 222.118C719.521 221.92 719.517 221.601 719.517 221.161C719.517 220.706 719.521 220.376 719.528 220.171C719.55 219.291 719.785 218.576 720.232 218.026C720.68 217.469 721.373 217.19 722.311 217.19C723.257 217.19 723.954 217.469 724.401 218.026C724.849 218.576 725.083 219.291 725.105 220.171C725.12 220.582 725.127 220.912 725.127 221.161C725.127 221.403 725.12 221.722 725.105 222.118C725.076 223.013 724.841 223.735 724.401 224.285C723.961 224.835 723.265 225.11 722.311 225.11ZM722.311 224.164C722.861 224.164 723.276 223.981 723.554 223.614C723.84 223.247 723.991 222.73 724.005 222.063C724.02 221.638 724.027 221.33 724.027 221.139C724.027 220.934 724.02 220.633 724.005 220.237C723.991 219.577 723.844 219.06 723.565 218.686C723.287 218.312 722.869 218.125 722.311 218.125C721.761 218.125 721.343 218.312 721.057 218.686C720.779 219.06 720.632 219.577 720.617 220.237L720.606 221.139L720.617 222.063C720.632 222.73 720.779 223.247 721.057 223.614C721.343 223.981 721.761 224.164 722.311 224.164Z" fill="#9FA3C6" />
    <path d="M696.036 154C695.963 154 695.9 153.978 695.849 153.934C695.805 153.883 695.783 153.82 695.783 153.747V147.587L693.957 148.995C693.906 149.039 693.851 149.061 693.792 149.061C693.726 149.061 693.664 149.024 693.605 148.951L693.319 148.588C693.282 148.537 693.264 148.485 693.264 148.434C693.264 148.346 693.301 148.276 693.374 148.225L695.772 146.377C695.853 146.326 695.948 146.3 696.058 146.3H696.619C696.692 146.3 696.751 146.326 696.795 146.377C696.846 146.421 696.872 146.48 696.872 146.553V153.747C696.872 153.82 696.846 153.883 696.795 153.934C696.751 153.978 696.692 154 696.619 154H696.036ZM700.741 154C700.668 154 700.605 153.978 700.554 153.934C700.51 153.883 700.488 153.82 700.488 153.747V147.587L698.662 148.995C698.611 149.039 698.556 149.061 698.497 149.061C698.431 149.061 698.369 149.024 698.31 148.951L698.024 148.588C697.987 148.537 697.969 148.485 697.969 148.434C697.969 148.346 698.006 148.276 698.079 148.225L700.477 146.377C700.558 146.326 700.653 146.3 700.763 146.3H701.324C701.397 146.3 701.456 146.326 701.5 146.377C701.551 146.421 701.577 146.48 701.577 146.553V153.747C701.577 153.82 701.551 153.883 701.5 153.934C701.456 153.978 701.397 154 701.324 154H700.741ZM705.908 154.11C705.336 154.11 704.834 154.018 704.401 153.835C703.968 153.644 703.631 153.373 703.389 153.021C703.147 152.669 703.026 152.258 703.026 151.789C703.026 151.356 703.132 150.979 703.345 150.656C703.558 150.326 703.847 150.073 704.214 149.897C703.921 149.728 703.693 149.508 703.532 149.237C703.378 148.958 703.301 148.636 703.301 148.269C703.301 147.624 703.536 147.118 704.005 146.751C704.482 146.377 705.116 146.19 705.908 146.19C706.693 146.19 707.32 146.377 707.789 146.751C708.266 147.118 708.504 147.62 708.504 148.258C708.504 148.625 708.423 148.947 708.262 149.226C708.108 149.497 707.888 149.721 707.602 149.897C707.969 150.073 708.258 150.326 708.471 150.656C708.684 150.979 708.79 151.356 708.79 151.789C708.79 152.258 708.669 152.669 708.427 153.021C708.185 153.373 707.844 153.644 707.404 153.835C706.971 154.018 706.473 154.11 705.908 154.11ZM705.908 149.501C706.348 149.494 706.718 149.38 707.019 149.16C707.32 148.94 707.47 148.65 707.47 148.291C707.47 147.924 707.32 147.631 707.019 147.411C706.726 147.184 706.355 147.07 705.908 147.07C705.453 147.07 705.076 147.18 704.775 147.4C704.482 147.62 704.335 147.917 704.335 148.291C704.335 148.658 704.482 148.951 704.775 149.171C705.076 149.391 705.453 149.501 705.908 149.501ZM705.908 153.23C706.421 153.23 706.85 153.098 707.195 152.834C707.54 152.57 707.712 152.222 707.712 151.789C707.712 151.356 707.54 151.012 707.195 150.755C706.85 150.498 706.421 150.37 705.908 150.37C705.387 150.37 704.955 150.498 704.61 150.755C704.265 151.012 704.093 151.356 704.093 151.789C704.093 152.222 704.265 152.57 704.61 152.834C704.955 153.098 705.387 153.23 705.908 153.23ZM710.286 154C710.213 154 710.15 153.978 710.099 153.934C710.055 153.883 710.033 153.82 710.033 153.747V152.955C710.033 152.882 710.055 152.823 710.099 152.779C710.15 152.728 710.213 152.702 710.286 152.702H711.078C711.151 152.702 711.214 152.728 711.265 152.779C711.316 152.823 711.342 152.882 711.342 152.955V153.747C711.342 153.82 711.316 153.883 711.265 153.934C711.214 153.978 711.151 154 711.078 154H710.286ZM715.393 154.11C714.447 154.11 713.754 153.835 713.314 153.285C712.874 152.735 712.64 152.013 712.61 151.118C712.603 150.92 712.599 150.601 712.599 150.161C712.599 149.706 712.603 149.376 712.61 149.171C712.632 148.291 712.867 147.576 713.314 147.026C713.762 146.469 714.455 146.19 715.393 146.19C716.339 146.19 717.036 146.469 717.483 147.026C717.931 147.576 718.165 148.291 718.187 149.171C718.202 149.582 718.209 149.912 718.209 150.161C718.209 150.403 718.202 150.722 718.187 151.118C718.158 152.013 717.923 152.735 717.483 153.285C717.043 153.835 716.347 154.11 715.393 154.11ZM715.393 153.164C715.943 153.164 716.358 152.981 716.636 152.614C716.922 152.247 717.073 151.73 717.087 151.063C717.102 150.638 717.109 150.33 717.109 150.139C717.109 149.934 717.102 149.633 717.087 149.237C717.073 148.577 716.926 148.06 716.647 147.686C716.369 147.312 715.951 147.125 715.393 147.125C714.843 147.125 714.425 147.312 714.139 147.686C713.861 148.06 713.714 148.577 713.699 149.237L713.688 150.139L713.699 151.063C713.714 151.73 713.861 152.247 714.139 152.614C714.425 152.981 714.843 153.164 715.393 153.164ZM722.376 154.11C721.43 154.11 720.737 153.835 720.297 153.285C719.857 152.735 719.622 152.013 719.593 151.118C719.585 150.92 719.582 150.601 719.582 150.161C719.582 149.706 719.585 149.376 719.593 149.171C719.615 148.291 719.849 147.576 720.297 147.026C720.744 146.469 721.437 146.19 722.376 146.19C723.322 146.19 724.018 146.469 724.466 147.026C724.913 147.576 725.148 148.291 725.17 149.171C725.184 149.582 725.192 149.912 725.192 150.161C725.192 150.403 725.184 150.722 725.17 151.118C725.14 152.013 724.906 152.735 724.466 153.285C724.026 153.835 723.329 154.11 722.376 154.11ZM722.376 153.164C722.926 153.164 723.34 152.981 723.619 152.614C723.905 152.247 724.055 151.73 724.07 151.063C724.084 150.638 724.092 150.33 724.092 150.139C724.092 149.934 724.084 149.633 724.07 149.237C724.055 148.577 723.908 148.06 723.63 147.686C723.351 147.312 722.933 147.125 722.376 147.125C721.826 147.125 721.408 147.312 721.122 147.686C720.843 148.06 720.696 148.577 720.682 149.237L720.671 150.139L720.682 151.063C720.696 151.73 720.843 152.247 721.122 152.614C721.408 152.981 721.826 153.164 722.376 153.164Z" fill="#9FA3C6" />
    <path d="M696.036 82C695.963 82 695.9 81.978 695.849 81.934C695.805 81.8827 695.783 81.8203 695.783 81.747V75.587L693.957 76.995C693.906 77.039 693.851 77.061 693.792 77.061C693.726 77.061 693.664 77.0243 693.605 76.951L693.319 76.588C693.282 76.5367 693.264 76.4853 693.264 76.434C693.264 76.346 693.301 76.2763 693.374 76.225L695.772 74.377C695.853 74.3257 695.948 74.3 696.058 74.3H696.619C696.692 74.3 696.751 74.3257 696.795 74.377C696.846 74.421 696.872 74.4797 696.872 74.553V81.747C696.872 81.8203 696.846 81.8827 696.795 81.934C696.751 81.978 696.692 82 696.619 82H696.036ZM698.497 82C698.424 82 698.361 81.978 698.31 81.934C698.266 81.8827 698.244 81.8203 698.244 81.747V81.395C698.244 81.2263 698.336 81.065 698.519 80.911L700.851 78.579C701.416 78.1097 701.804 77.7283 702.017 77.435C702.23 77.1343 702.336 76.819 702.336 76.489C702.336 76.0637 702.215 75.73 701.973 75.488C701.738 75.246 701.394 75.125 700.939 75.125C700.514 75.125 700.173 75.2533 699.916 75.51C699.659 75.7593 699.502 76.093 699.443 76.511C699.428 76.599 699.392 76.665 699.333 76.709C699.282 76.7457 699.223 76.764 699.157 76.764H698.585C698.519 76.764 698.464 76.7457 698.42 76.709C698.376 76.665 698.354 76.6137 698.354 76.555C698.369 76.159 698.475 75.7813 698.673 75.422C698.871 75.0553 699.161 74.7583 699.542 74.531C699.931 74.2963 700.396 74.179 700.939 74.179C701.768 74.179 702.391 74.3953 702.809 74.828C703.234 75.2533 703.447 75.796 703.447 76.456C703.447 76.918 703.33 77.336 703.095 77.71C702.868 78.0767 702.512 78.4727 702.028 78.898L699.916 81.043H703.348C703.429 81.043 703.491 81.0687 703.535 81.12C703.586 81.164 703.612 81.2227 703.612 81.296V81.747C703.612 81.8203 703.586 81.8827 703.535 81.934C703.484 81.978 703.421 82 703.348 82H698.497ZM707.549 82.11C706.962 82.11 706.453 81.9927 706.02 81.758C705.587 81.516 705.257 81.1933 705.03 80.79C704.803 80.3867 704.689 79.9467 704.689 79.47C704.689 79.0813 704.766 78.7147 704.92 78.37C705.081 78.018 705.261 77.7063 705.459 77.435L707.549 74.52C707.556 74.5127 707.578 74.487 707.615 74.443C707.644 74.399 707.685 74.366 707.736 74.344C707.787 74.3147 707.846 74.3 707.912 74.3H708.495C708.561 74.3 708.612 74.3257 708.649 74.377C708.693 74.421 708.715 74.476 708.715 74.542C708.715 74.5933 708.7 74.641 708.671 74.685L707.065 76.929C707.226 76.8777 707.435 76.852 707.692 76.852C708.22 76.8593 708.686 76.9803 709.089 77.215C709.5 77.4497 709.815 77.765 710.035 78.161C710.262 78.557 710.376 78.9897 710.376 79.459C710.376 79.9283 710.262 80.3683 710.035 80.779C709.815 81.1823 709.489 81.505 709.056 81.747C708.631 81.989 708.128 82.11 707.549 82.11ZM707.538 81.175C707.853 81.175 708.143 81.109 708.407 80.977C708.678 80.845 708.891 80.6507 709.045 80.394C709.206 80.13 709.287 79.8183 709.287 79.459C709.287 79.107 709.206 78.8027 709.045 78.546C708.891 78.2893 708.678 78.095 708.407 77.963C708.143 77.831 707.853 77.765 707.538 77.765C707.23 77.765 706.94 77.831 706.669 77.963C706.405 78.095 706.192 78.2893 706.031 78.546C705.87 78.8027 705.789 79.107 705.789 79.459C705.789 79.8183 705.87 80.13 706.031 80.394C706.192 80.6507 706.405 80.845 706.669 80.977C706.933 81.109 707.223 81.175 707.538 81.175ZM711.779 82C711.706 82 711.643 81.978 711.592 81.934C711.548 81.8827 711.526 81.8203 711.526 81.747V80.955C711.526 80.8817 711.548 80.823 711.592 80.779C711.643 80.7277 711.706 80.702 711.779 80.702H712.571C712.644 80.702 712.707 80.7277 712.758 80.779C712.809 80.823 712.835 80.8817 712.835 80.955V81.747C712.835 81.8203 712.809 81.8827 712.758 81.934C712.707 81.978 712.644 82 712.571 82H711.779ZM716.886 82.11C715.94 82.11 715.247 81.835 714.807 81.285C714.367 80.735 714.133 80.0127 714.103 79.118C714.096 78.92 714.092 78.601 714.092 78.161C714.092 77.7063 714.096 77.3763 714.103 77.171C714.125 76.291 714.36 75.576 714.807 75.026C715.255 74.4687 715.948 74.19 716.886 74.19C717.832 74.19 718.529 74.4687 718.976 75.026C719.424 75.576 719.658 76.291 719.68 77.171C719.695 77.5817 719.702 77.9117 719.702 78.161C719.702 78.403 719.695 78.722 719.68 79.118C719.651 80.0127 719.416 80.735 718.976 81.285C718.536 81.835 717.84 82.11 716.886 82.11ZM716.886 81.164C717.436 81.164 717.851 80.9807 718.129 80.614C718.415 80.2473 718.566 79.7303 718.58 79.063C718.595 78.6377 718.602 78.3297 718.602 78.139C718.602 77.9337 718.595 77.633 718.58 77.237C718.566 76.577 718.419 76.06 718.14 75.686C717.862 75.312 717.444 75.125 716.886 75.125C716.336 75.125 715.918 75.312 715.632 75.686C715.354 76.06 715.207 76.577 715.192 77.237L715.181 78.139L715.192 79.063C715.207 79.7303 715.354 80.2473 715.632 80.614C715.918 80.9807 716.336 81.164 716.886 81.164ZM723.869 82.11C722.923 82.11 722.23 81.835 721.79 81.285C721.35 80.735 721.115 80.0127 721.086 79.118C721.079 78.92 721.075 78.601 721.075 78.161C721.075 77.7063 721.079 77.3763 721.086 77.171C721.108 76.291 721.343 75.576 721.79 75.026C722.237 74.4687 722.93 74.19 723.869 74.19C724.815 74.19 725.512 74.4687 725.959 75.026C726.406 75.576 726.641 76.291 726.663 77.171C726.678 77.5817 726.685 77.9117 726.685 78.161C726.685 78.403 726.678 78.722 726.663 79.118C726.634 80.0127 726.399 80.735 725.959 81.285C725.519 81.835 724.822 82.11 723.869 82.11ZM723.869 81.164C724.419 81.164 724.833 80.9807 725.112 80.614C725.398 80.2473 725.548 79.7303 725.563 79.063C725.578 78.6377 725.585 78.3297 725.585 78.139C725.585 77.9337 725.578 77.633 725.563 77.237C725.548 76.577 725.402 76.06 725.123 75.686C724.844 75.312 724.426 75.125 723.869 75.125C723.319 75.125 722.901 75.312 722.615 75.686C722.336 76.06 722.19 76.577 722.175 77.237L722.164 78.139L722.175 79.063C722.19 79.7303 722.336 80.2473 722.615 80.614C722.901 80.9807 723.319 81.164 723.869 81.164Z" fill="#9FA3C6" />
    <path d="M696.036 46C695.963 46 695.9 45.978 695.849 45.934C695.805 45.8827 695.783 45.8203 695.783 45.747V39.587L693.957 40.995C693.906 41.039 693.851 41.061 693.792 41.061C693.726 41.061 693.664 41.0243 693.605 40.951L693.319 40.588C693.282 40.5367 693.264 40.4853 693.264 40.434C693.264 40.346 693.301 40.2763 693.374 40.225L695.772 38.377C695.853 38.3257 695.948 38.3 696.058 38.3H696.619C696.692 38.3 696.751 38.3257 696.795 38.377C696.846 38.421 696.872 38.4797 696.872 38.553V45.747C696.872 45.8203 696.846 45.8827 696.795 45.934C696.751 45.978 696.692 46 696.619 46H696.036ZM700.983 46.11C700.404 46.11 699.901 46.0183 699.476 45.835C699.058 45.6443 698.739 45.3987 698.519 45.098C698.306 44.7973 698.193 44.482 698.178 44.152C698.178 44.086 698.2 44.0347 698.244 43.998C698.288 43.954 698.343 43.932 698.409 43.932H698.948C699.102 43.932 699.205 44.0127 699.256 44.174C699.351 44.5407 699.557 44.801 699.872 44.955C700.187 45.1017 700.558 45.175 700.983 45.175C701.504 45.175 701.918 45.054 702.226 44.812C702.534 44.5627 702.688 44.207 702.688 43.745C702.688 42.8577 702.149 42.414 701.071 42.414H700.026C699.953 42.414 699.89 42.392 699.839 42.348C699.795 42.2967 699.773 42.2343 699.773 42.161V41.864C699.773 41.7613 699.813 41.6623 699.894 41.567L702.028 39.235H698.783C698.71 39.235 698.647 39.213 698.596 39.169C698.552 39.1177 698.53 39.0553 698.53 38.982V38.564C698.53 38.4907 698.552 38.4283 698.596 38.377C698.647 38.3257 698.71 38.3 698.783 38.3H703.172C703.253 38.3 703.315 38.3257 703.359 38.377C703.41 38.421 703.436 38.4833 703.436 38.564V38.96C703.436 39.048 703.396 39.1323 703.315 39.213L701.192 41.578L701.368 41.589C702.116 41.611 702.706 41.8053 703.139 42.172C703.572 42.5387 703.788 43.074 703.788 43.778C703.788 44.2547 703.667 44.669 703.425 45.021C703.183 45.373 702.849 45.6443 702.424 45.835C701.999 46.0183 701.518 46.11 700.983 46.11ZM707.799 46.11C706.853 46.11 706.16 45.835 705.72 45.285C705.28 44.735 705.045 44.0127 705.016 43.118C705.008 42.92 705.005 42.601 705.005 42.161C705.005 41.7063 705.008 41.3763 705.016 41.171C705.038 40.291 705.272 39.576 705.72 39.026C706.167 38.4687 706.86 38.19 707.799 38.19C708.745 38.19 709.441 38.4687 709.889 39.026C710.336 39.576 710.571 40.291 710.593 41.171C710.607 41.5817 710.615 41.9117 710.615 42.161C710.615 42.403 710.607 42.722 710.593 43.118C710.563 44.0127 710.329 44.735 709.889 45.285C709.449 45.835 708.752 46.11 707.799 46.11ZM707.799 45.164C708.349 45.164 708.763 44.9807 709.042 44.614C709.328 44.2473 709.478 43.7303 709.493 43.063C709.507 42.6377 709.515 42.3297 709.515 42.139C709.515 41.9337 709.507 41.633 709.493 41.237C709.478 40.577 709.331 40.06 709.053 39.686C708.774 39.312 708.356 39.125 707.799 39.125C707.249 39.125 706.831 39.312 706.545 39.686C706.266 40.06 706.119 40.577 706.105 41.237L706.094 42.139L706.105 43.063C706.119 43.7303 706.266 44.2473 706.545 44.614C706.831 44.9807 707.249 45.164 707.799 45.164ZM712.123 46C712.049 46 711.987 45.978 711.936 45.934C711.892 45.8827 711.87 45.8203 711.87 45.747V44.955C711.87 44.8817 711.892 44.823 711.936 44.779C711.987 44.7277 712.049 44.702 712.123 44.702H712.915C712.988 44.702 713.05 44.7277 713.102 44.779C713.153 44.823 713.179 44.8817 713.179 44.955V45.747C713.179 45.8203 713.153 45.8827 713.102 45.934C713.05 45.978 712.988 46 712.915 46H712.123ZM717.23 46.11C716.284 46.11 715.591 45.835 715.151 45.285C714.711 44.735 714.476 44.0127 714.447 43.118C714.44 42.92 714.436 42.601 714.436 42.161C714.436 41.7063 714.44 41.3763 714.447 41.171C714.469 40.291 714.704 39.576 715.151 39.026C715.598 38.4687 716.291 38.19 717.23 38.19C718.176 38.19 718.873 38.4687 719.32 39.026C719.767 39.576 720.002 40.291 720.024 41.171C720.039 41.5817 720.046 41.9117 720.046 42.161C720.046 42.403 720.039 42.722 720.024 43.118C719.995 44.0127 719.76 44.735 719.32 45.285C718.88 45.835 718.183 46.11 717.23 46.11ZM717.23 45.164C717.78 45.164 718.194 44.9807 718.473 44.614C718.759 44.2473 718.909 43.7303 718.924 43.063C718.939 42.6377 718.946 42.3297 718.946 42.139C718.946 41.9337 718.939 41.633 718.924 41.237C718.909 40.577 718.763 40.06 718.484 39.686C718.205 39.312 717.787 39.125 717.23 39.125C716.68 39.125 716.262 39.312 715.976 39.686C715.697 40.06 715.551 40.577 715.536 41.237L715.525 42.139L715.536 43.063C715.551 43.7303 715.697 44.2473 715.976 44.614C716.262 44.9807 716.68 45.164 717.23 45.164ZM724.213 46.11C723.267 46.11 722.574 45.835 722.134 45.285C721.694 44.735 721.459 44.0127 721.43 43.118C721.422 42.92 721.419 42.601 721.419 42.161C721.419 41.7063 721.422 41.3763 721.43 41.171C721.452 40.291 721.686 39.576 722.134 39.026C722.581 38.4687 723.274 38.19 724.213 38.19C725.159 38.19 725.855 38.4687 726.303 39.026C726.75 39.576 726.985 40.291 727.007 41.171C727.021 41.5817 727.029 41.9117 727.029 42.161C727.029 42.403 727.021 42.722 727.007 43.118C726.977 44.0127 726.743 44.735 726.303 45.285C725.863 45.835 725.166 46.11 724.213 46.11ZM724.213 45.164C724.763 45.164 725.177 44.9807 725.456 44.614C725.742 44.2473 725.892 43.7303 725.907 43.063C725.921 42.6377 725.929 42.3297 725.929 42.139C725.929 41.9337 725.921 41.633 725.907 41.237C725.892 40.577 725.745 40.06 725.467 39.686C725.188 39.312 724.77 39.125 724.213 39.125C723.663 39.125 723.245 39.312 722.959 39.686C722.68 40.06 722.533 40.577 722.519 41.237L722.508 42.139L722.519 43.063C722.533 43.7303 722.68 44.2473 722.959 44.614C723.245 44.9807 723.663 45.164 724.213 45.164Z" fill="#9FA3C6" />
    <defs>
        <linearGradient id="paint0_linear" x1="3" y1="19.5145" x2="3" y2="288.083" gradientUnits="userSpaceOnUse">
            <stop stop-color="#8E3CFF" />
            <stop offset="1" stop-color="#167DFF" stop-opacity="0" />
        </linearGradient>
        <linearGradient id="paint1_linear" x1="114" y1="91" x2="114" y2="137" gradientUnits="userSpaceOnUse">
            <stop stop-color="#9737FF" />
            <stop offset="1" stop-color="#127FFF" />
        </linearGradient>
    </defs>
</svg>
