<svg width="16" height="16" viewBox="0 0 16 16" fill="none" xmlns="http://www.w3.org/2000/svg">
    <path d="M12.1578 4.69066C12.3921 4.45634 12.3921 4.07645 12.1578 3.84213C11.9235 3.60782 11.5436 3.60782 11.3093 3.84213L12.1578 4.69066ZM3.84236 11.309C3.60804 11.5434 3.60804 11.9233 3.84236 12.1576C4.07667 12.3919 4.45657 12.3919 4.69088 12.1576L3.84236 11.309ZM11.3091 12.1576C11.5434 12.3919 11.9233 12.3919 12.1576 12.1576C12.392 11.9233 12.392 11.5434 12.1576 11.309L11.3091 12.1576ZM4.69073 3.84213C4.45642 3.60782 4.07652 3.60782 3.8422 3.84213C3.60789 4.07645 3.60789 4.45634 3.8422 4.69066L4.69073 3.84213ZM11.3093 3.84213L3.84236 11.309L4.69088 12.1576L12.1578 4.69066L11.3093 3.84213ZM12.1576 11.309L4.69073 3.84213L3.8422 4.69066L11.3091 12.1576L12.1576 11.309Z" fill="white" />
</svg>
    