<svg width="18" height="18" viewBox="0 0 18 18" fill="none" xmlns="http://www.w3.org/2000/svg">
    <path fill-rule="evenodd" clip-rule="evenodd" d="M13.8611 3.03751L9.49099 7.40764C9.21946 7.67917 8.78057 7.67917 8.50905 7.40764L6.22224 5.12084L3.24099 8.10209L2.25904 7.12014L5.73127 3.64792C6.00279 3.37639 6.44168 3.37639 6.71321 3.64792L9.00002 5.93473L12.8792 2.05556H10.3889V0.666672H14.5556C14.9389 0.666672 15.25 0.977783 15.25 1.36112V5.52778H13.8611V3.03751ZM16.6389 6.91667H13.8611C13.4778 6.91667 13.1667 7.22778 13.1667 7.61112V16.6389C13.1667 17.0222 13.4778 17.3333 13.8611 17.3333H16.6389C17.0222 17.3333 17.3334 17.0222 17.3334 16.6389V7.61112C17.3334 7.22778 17.0222 6.91667 16.6389 6.91667ZM7.61113 9.69445H10.3889C10.7722 9.69445 11.0834 10.0056 11.0834 10.3889V16.6389C11.0834 17.0222 10.7722 17.3333 10.3889 17.3333H7.61113C7.2278 17.3333 6.91669 17.0222 6.91669 16.6389V10.3889C6.91669 10.0056 7.2278 9.69445 7.61113 9.69445ZM1.36113 12.4722H4.13891C4.52224 12.4722 4.83335 12.7833 4.83335 13.1667V16.6389C4.83335 17.0222 4.52224 17.3333 4.13891 17.3333H1.36113C0.977798 17.3333 0.666687 17.0222 0.666687 16.6389V13.1667C0.666687 12.7833 0.977798 12.4722 1.36113 12.4722Z" fill="white" />
</svg>
