<svg width="20" height="20" viewBox="0 0 20 20" fill="none" xmlns="http://www.w3.org/2000/svg">
    <path fill-rule="evenodd" clip-rule="evenodd" d="M8.4722 3.12499C8.4722 4.39065 9.49821 5.41666 10.7639 5.41666C12.0295 5.41666 13.0555 4.39065 13.0555 3.12499C13.0555 1.85934 12.0295 0.833328 10.7639 0.833328C9.49821 0.833328 8.4722 1.85934 8.4722 3.12499ZM11.5278 3.12499C11.5278 3.54688 11.1858 3.88888 10.7639 3.88888C10.342 3.88888 9.99998 3.54688 9.99998 3.12499C9.99998 2.70311 10.342 2.36111 10.7639 2.36111C11.1858 2.36111 11.5278 2.70311 11.5278 3.12499ZM9.23608 10.7639C8.8142 10.7639 8.4722 10.4219 8.4722 10C8.4722 9.57811 8.8142 9.23611 9.23608 9.23611H12.2916C12.7135 9.23611 13.0555 9.57811 13.0555 10C13.0555 10.4219 12.7135 10.7639 12.2916 10.7639H9.23608ZM7.70831 17.6263C5.70822 17.4936 3.94334 16.3264 3.02332 14.5833H1.5972C1.17532 14.5833 0.833313 14.2413 0.833313 13.8194V9.99999C0.833313 9.57811 1.17532 9.23611 1.5972 9.23611H3.02758C3.38445 8.56079 3.87136 7.96372 4.45847 7.48067L3.91936 5.63034C3.80564 5.24003 4.01755 4.82903 4.40146 4.69529C4.47252 4.67054 4.57973 4.64022 4.7179 4.61185C5.35801 4.48038 6.0522 4.50658 6.72534 4.80956C7.31667 5.07571 7.81292 5.53133 8.18253 6.18055H13.4375C16.6017 6.18055 19.1666 8.74547 19.1666 11.9097C19.1666 14.9456 16.8056 17.4298 13.8194 17.6264V18.4028C13.8194 18.8247 13.4774 19.1667 13.0555 19.1667C12.6336 19.1667 12.2916 18.8247 12.2916 18.4028V17.6389H9.23609V18.4028C9.23609 18.8247 8.89408 19.1667 8.4722 19.1667C8.05032 19.1667 7.70831 18.8247 7.70831 18.4028V17.6263ZM2.3611 13.0555H3.50693C3.81519 13.0555 4.09324 13.2408 4.21193 13.5253C4.85994 15.0786 6.37961 16.1111 8.09027 16.1111H13.4375C15.758 16.1111 17.6389 14.2302 17.6389 11.9097C17.6389 9.58924 15.758 7.70833 13.4375 7.70833H7.70832C7.40134 7.70833 7.12418 7.52456 7.00468 7.24179C6.77116 6.68918 6.46455 6.36757 6.0983 6.20272C5.95212 6.13693 5.7978 6.09687 5.64122 6.07841L6.07366 7.56263C6.16696 7.88286 6.04171 8.22659 5.76427 8.41172C5.0773 8.87014 4.53712 9.52618 4.21542 10.2949C4.09654 10.579 3.8187 10.7639 3.51075 10.7639H2.3611V13.0555Z" fill="#A9A9E2" />
</svg>
    