<svg width="20" height="20" viewBox="0 0 20 20" fill="none" xmlns="http://www.w3.org/2000/svg">
    <path fill-rule="evenodd" clip-rule="evenodd" d="M15.276 6.23404L16.9237 4.59366C17.2811 4.23784 17.8867 4.36965 18.0638 4.84181C18.3908 5.71335 18.4206 6.66847 18.1515 7.54909C17.6723 9.2024 16.3174 10.4549 14.5922 10.8101C13.9736 10.9012 13.3451 10.8835 12.7348 10.7588L6.97412 17.2327C6.43545 17.8962 5.6375 18.2962 4.78344 18.3308C3.92938 18.3655 3.10163 18.0314 2.5091 17.4118C1.93766 16.8096 1.6347 16.0016 1.66937 15.1722C1.70404 14.3428 2.07338 13.5629 2.69617 13.0077L7.5449 8.7365L5.99185 7.18378L4.94073 7.53408C4.69121 7.61724 4.4161 7.55231 4.23012 7.36636L2.28575 5.42241C2.01457 5.15129 2.01457 4.7117 2.28575 4.44057L4.23012 2.49662C4.5013 2.2255 4.94098 2.2255 5.21217 2.49662L7.15653 4.44057C7.34251 4.62652 7.40746 4.90157 7.32428 5.15104L6.97391 6.20194L8.58904 7.81673L9.19845 7.2799C9.12321 6.97991 9.087 6.67453 9.09128 6.37828C9.03574 3.95438 10.8744 1.90486 13.2537 1.70151C13.9127 1.60936 14.5844 1.70062 15.1949 1.96526C15.6451 2.16041 15.7563 2.74816 15.4085 3.09426L13.7643 4.73067L15.276 6.23404ZM15.7662 7.70551C15.4954 7.97515 15.0575 7.97526 14.7865 7.70577L12.2901 5.22307C12.0173 4.95172 12.0172 4.51026 12.2899 4.23881L13.46 3.07434C13.4431 3.07632 13.4263 3.07848 13.4094 3.08081C11.7237 3.22556 10.441 4.65543 10.4799 6.3717C10.4759 6.66918 10.5312 6.96447 10.6426 7.24034C10.7529 7.51347 10.6788 7.82647 10.4578 8.0212L3.61739 14.0468C3.27815 14.3492 3.07597 14.7761 3.05699 15.2302C3.03801 15.6842 3.20386 16.1265 3.51482 16.4542C3.82993 16.7837 4.27151 16.9619 4.72713 16.9434C5.18275 16.925 5.60843 16.7116 5.91611 16.3337L11.9756 9.52294C12.154 9.32235 12.4322 9.2426 12.6899 9.31816C13.2412 9.47985 13.8211 9.52018 14.3504 9.44331C15.5321 9.19923 16.4817 8.32141 16.8204 7.15305C16.8816 6.95272 16.92 6.74749 16.9358 6.54113L15.7662 7.70551ZM5.87101 5.11901L5.63043 5.84059L4.9087 6.08111L3.75883 4.93149L4.72114 3.96939L5.87101 5.11901ZM10.8965 14.3686C10.6253 14.6397 10.6253 15.0793 10.8965 15.3504L12.945 17.3985C13.5278 17.9932 14.3323 18.3312 15.1721 18.3312C16.0119 18.3312 16.8164 17.9932 17.4041 17.3935C17.994 16.8159 18.332 16.0116 18.332 15.1719C18.332 14.3323 17.994 13.528 17.3941 12.9404L16.045 11.5915C15.7738 11.3204 15.3342 11.3204 15.063 11.5915C14.7918 11.8626 14.7918 12.3022 15.063 12.5734L16.4171 13.9272C16.7554 14.2586 16.9432 14.7055 16.9432 15.1719C16.9432 15.6384 16.7554 16.0852 16.4221 16.4117C16.0856 16.7549 15.6386 16.9427 15.1721 16.9427C14.7055 16.9427 14.2586 16.7549 13.932 16.4217L11.8785 14.3686C11.6074 14.0975 11.1677 14.0975 10.8965 14.3686Z" fill="#A9A9E2" />
</svg>
    